<?xml version="1.0" encoding="UTF-8" standalone="no"?>
<!-- Created with Inkscape (http://www.inkscape.org/) -->

<svg
   id="svg3406"
   version="1.1"
   inkscape:version="1.2.2 (b0a8486541, 2022-12-01)"
   width="301.83478"
   height="548.65906"
   viewBox="0 0 301.83478 548.65906"
   sodipodi:docname="silhouette-football-11.svg"
   xmlns:inkscape="http://www.inkscape.org/namespaces/inkscape"
   xmlns:sodipodi="http://sodipodi.sourceforge.net/DTD/sodipodi-0.dtd"
   xmlns="http://www.w3.org/2000/svg"
   xmlns:svg="http://www.w3.org/2000/svg"
   xmlns:rdf="http://www.w3.org/1999/02/22-rdf-syntax-ns#"
   xmlns:cc="http://creativecommons.org/ns#"
   xmlns:dc="http://purl.org/dc/elements/1.1/">
  <title
     id="title3340">Silhouette Football 11</title>
  <metadata
     id="metadata3412">
    <rdf:RDF>
      <cc:Work
         rdf:about="">
        <dc:format>image/svg+xml</dc:format>
        <dc:type
           rdf:resource="http://purl.org/dc/dcmitype/StillImage" />
        <dc:title>Silhouette Football 11</dc:title>
        <cc:license
           rdf:resource="http://creativecommons.org/publicdomain/zero/1.0/" />
        <dc:date>2017-03-18</dc:date>
        <dc:creator>
          <cc:Agent>
            <dc:title>JLouis</dc:title>
          </cc:Agent>
        </dc:creator>
        <dc:rights>
          <cc:Agent>
            <dc:title>Domaine pubic</dc:title>
          </cc:Agent>
        </dc:rights>
        <dc:publisher>
          <cc:Agent>
            <dc:title>inkscape</dc:title>
          </cc:Agent>
        </dc:publisher>
        <dc:subject>
          <rdf:Bag>
            <rdf:li>silhouette</rdf:li>
            <rdf:li>soccer</rdf:li>
            <rdf:li>player</rdf:li>
            <rdf:li>sport</rdf:li>
            <rdf:li>football</rdf:li>
            <rdf:li>joueurs</rdf:li>
          </rdf:Bag>
        </dc:subject>
        <dc:description>Soccer player in silhouette - Joueur de football en silhouette</dc:description>
      </cc:Work>
      <cc:License
         rdf:about="http://creativecommons.org/publicdomain/zero/1.0/">
        <cc:permits
           rdf:resource="http://creativecommons.org/ns#Reproduction" />
        <cc:permits
           rdf:resource="http://creativecommons.org/ns#Distribution" />
        <cc:permits
           rdf:resource="http://creativecommons.org/ns#DerivativeWorks" />
      </cc:License>
    </rdf:RDF>
  </metadata>
  <defs
     id="defs3410" />
  <sodipodi:namedview
     pagecolor="#ffffff"
     bordercolor="#666666"
     borderopacity="1"
     objecttolerance="10"
     gridtolerance="10"
     guidetolerance="10"
     inkscape:pageopacity="0"
     inkscape:pageshadow="2"
     inkscape:window-width="1916"
     inkscape:window-height="1026"
     id="namedview3408"
     showgrid="false"
     fit-margin-top="0"
     fit-margin-left="0"
     fit-margin-right="0"
     fit-margin-bottom="0"
     inkscape:zoom="0.8828125"
     inkscape:cx="-75.327434"
     inkscape:cy="251.46903"
     inkscape:window-x="0"
     inkscape:window-y="0"
     inkscape:window-maximized="1"
     inkscape:current-layer="svg3406"
     inkscape:showpageshadow="2"
     inkscape:pagecheckerboard="0"
     inkscape:deskcolor="#d1d1d1" />
  <g
     id="g3416"
     transform="translate(-78.671745,-47.538654)">
    <path
       style="fill:#ffffff"
       d="M 104.77465,594.34941 C 96.285275,591.62972 86.215348,581.9474 81.91871,572.37321 78.849745,565.53465 78.515305,563.5456 79.02008,555.13386 79.934305,539.8989 87.55215,528.22883 101.25,521.079 c 4.69013,-2.4481 7.49474,-2.93565 16.875,-2.93352 9.75079,0.002 12.08959,0.4442 17.55019,3.31666 7.72113,4.0616 16.16624,13.00336 19.66194,20.81827 1.94754,4.35392 2.61435,8.39512 2.61435,15.84459 0,16.6424 -5.91483,26.3767 -20.15874,33.17611 -10.18131,4.8601 -23.519,6.09148 -33.01809,3.0483 z m 215.73527,-4.05605 c -1.9213,-1.29256 -6.95105,-21.82243 -7.72801,-31.54336 -0.53274,-6.66535 -1.47537,-9.36009 -5.24704,-15 -18.93812,-28.31889 -24.59986,-41.04226 -29.40397,-66.07824 -1.98396,-10.33915 -2.7692,-12.22674 -6.73695,-16.19447 -5.15324,-5.15325 -11.21504,-14.78303 -14.36444,-22.81939 -1.19257,-3.0431 -4.05111,-8.62665 -6.35231,-12.4079 -2.3012,-3.78125 -5.1077,-10.05884 -6.23665,-13.95019 -2.13916,-7.37339 -8.66385,-16.04636 -16.0034,-21.27259 -3.62696,-2.58261 -3.82481,-2.60587 -2.87442,-0.33787 2.18313,5.20984 -0.23079,13.44324 -6.76109,23.06065 -1.16705,1.71875 -2.84782,6.47727 -3.73505,10.5745 -1.14414,5.28364 -2.66032,8.4277 -5.21486,10.81401 -3.45405,3.22657 -3.60173,3.82675 -3.60173,14.63868 l 0,11.27417 3.88035,0.85226 c 6.90657,1.51694 14.84626,5.64865 16.91142,8.80048 2.65363,4.04994 6.80064,4.95871 11.51153,2.52263 2.1024,-1.0872 6.17469,-1.97673 9.04952,-1.97673 4.37382,0 5.91385,0.72829 9.43507,4.46188 5.89861,6.25433 6.2345,8.99399 2.55891,20.87161 -2.78849,9.01099 -3.10791,11.84682 -2.56722,22.79151 0.33964,6.875 1.1438,14.46875 1.78701,16.875 2.00651,7.50635 1.35707,14.16065 -2.04915,20.99604 -3.68033,7.38546 -8.6523,11.51271 -13.8354,11.48482 -4.30424,-0.0231 -5.38813,-0.72481 -8.90572,-5.76505 -4.69505,-6.72739 -6.52632,-16.9074 -6.52632,-36.27966 0,-11.78359 -0.47271,-18.08076 -1.4003,-18.65404 -0.77016,-0.47598 -11.31704,-0.93106 -23.4375,-1.01127 -21.73279,-0.14383 -22.11896,-0.1939 -27.95618,-3.62518 -5.09821,-2.99687 -6.53948,-4.81687 -10.39376,-13.125 -5.49727,-11.84971 -8.06226,-21.29277 -8.06226,-29.68141 0,-3.51203 -0.78749,-9.15946 -1.74996,-12.54987 -1.68918,-5.95022 -3.5376,-37.11644 -3.81293,-64.28938 -0.0731,-7.21875 -0.53201,-13.76325 -1.01971,-14.54332 -0.4877,-0.78008 -1.43696,-5.28008 -2.10945,-10 -1.26036,-8.84584 -1.03351,-10.27033 4.59497,-28.85321 1.57565,-5.20212 1.81208,-9.75421 1.16864,-22.5 -0.44365,-8.78816 -0.24007,-21.04097 0.45239,-27.22847 1.40109,-12.51931 1.9855,-25.12954 3.14272,-67.81248 0.70229,-25.90299 0.57138,-29.14557 -1.2042,-29.82692 -2.97576,-1.14191 -15.07397,5.24377 -16.70126,8.81528 -0.76855,1.68678 -2.86799,4.03048 -4.66542,5.20821 -2.89187,1.89482 -4.21062,1.96762 -11.45664,0.6325 -4.50373,-0.82985 -8.47082,-1.22659 -8.81576,-0.88165 -0.34494,0.34494 -1.6587,6.69944 -2.91947,14.12111 -1.26078,7.42167 -3.17974,18.2752 -4.26436,24.11895 -2.60429,14.03146 -2.05501,19.56134 2.54151,25.58626 3.40896,4.46834 3.69393,5.64536 3.69393,15.25724 l 0,10.41537 4.0625,1.34251 c 2.73909,0.90517 4.0625,2.13811 4.0625,3.7848 0,1.34325 0.84375,2.76606 1.875,3.16178 1.03125,0.39574 1.875,1.50308 1.875,2.46078 0,1.26607 -1.78152,1.74126 -6.52813,1.74126 -6.26489,0 -6.41611,0.0785 -3.75,1.94587 1.52797,1.07024 2.77813,2.82963 2.77813,3.90977 0,1.60971 -0.95602,1.81101 -5.30112,1.1162 -7.03983,-1.12572 -16.649169,-7.44494 -20.755435,-13.64904 -3.512356,-5.30677 -4.153404,-11.23383 -7.119131,-65.8228 -1.789154,-32.93224 3.0847,-44.32895 28.866676,-67.5 8.03217,-7.21875 15.52195,-13.98676 16.64397,-15.04003 4.48826,-4.21321 13.84316,-11.14521 24.19873,-17.93131 11.29129,-7.39928 12.43426,-7.76965 34.71631,-11.24951 7.12461,-1.11267 10.51045,-2.16686 10.27729,-3.19987 -0.19124,-0.8473 -0.59988,-5.00863 -0.90808,-9.24741 -0.3082,-4.238779 -1.17649,-13.70358 -1.92954,-21.032892 -1.54982,-15.084354 -0.90362,-17.483748 6.51618,-24.194992 7.83986,-7.091196 11.96548,-8.604733 24.90337,-9.136166 12.57025,-0.516331 16.90509,0.619815 21.33453,5.591706 3.21861,3.612793 6.05625,15.053463 6.05625,24.41735 0,6.742776 0.39166,8.523124 1.875,8.523124 3.02526,0 2.66712,18.89567 -0.41093,21.68126 C 255.20681,109.06907 253.5795,110 252.84781,110 251.2179,110 250,112.95657 250,116.91336 c 0,2.51649 1.07464,3.28425 7.1875,5.135 3.95312,1.19687 8.03125,2.82588 9.0625,3.62003 1.03125,0.79416 5.75853,3.22965 10.50506,5.4122 4.74654,2.18256 9.24654,4.79417 10,5.80358 0.75347,1.00943 4.43604,2.87083 8.1835,4.13647 9.04171,3.05367 11.61458,6.62745 12.0457,16.73173 0.39529,9.26474 1.87804,14.63895 5.40577,19.59319 2.86613,4.02511 11.35997,23.53853 11.35997,26.09796 0,0.90444 0.77679,2.89027 1.72619,4.41295 0.94938,1.52269 2.04862,5.72788 2.44273,9.34485 0.39412,3.61698 2.39085,10.08573 4.43719,14.375 6.4421,13.50305 7.64141,18.21533 11.42414,44.887 0.70821,4.99353 2.10999,10.33417 3.11505,11.86808 1.00506,1.53392 3.22925,6.51339 4.94265,11.06547 4.13864,10.99534 7.17995,15.00594 15.3354,20.22292 7.01627,4.48826 10.66504,10.20837 12.9459,20.29512 0.88149,3.89826 0.52449,4.73546 -3.91046,9.17041 -4.33394,4.33394 -5.33985,4.78227 -8.98215,4.00325 -5.65964,-1.21048 -6.90549,-2.4884 -7.84452,-8.04641 -0.62808,-3.71761 -1.61421,-5.14565 -4.33011,-6.27062 -5.20332,-2.15528 -10.95594,-8.30405 -12.66585,-13.53809 -0.82805,-2.53465 -2.82869,-5.84721 -4.44585,-7.36126 -1.61717,-1.51405 -2.9432,-3.76405 -2.94671,-5 -0.004,-1.23595 -1.39223,-4.49719 -3.08599,-7.24719 -1.69377,-2.75 -3.09715,-6.24628 -3.1186,-7.76951 -0.0215,-1.52323 -3.11111,-8.27323 -6.86589,-15 -3.75478,-6.72677 -9.32592,-18.48 -12.38031,-26.11828 -3.05437,-7.63829 -6.1246,-14.95079 -6.82271,-16.25 -0.69811,-1.29922 -2.46336,-5.73721 -3.92279,-9.86221 -1.45942,-4.125 -4.6079,-10.03125 -6.99661,-13.125 -2.3887,-3.09375 -5.53156,-7.48268 -6.98413,-9.75318 -1.81543,-2.83771 -3.43918,-4.00996 -5.19432,-3.75 -2.13918,0.31684 -3.02298,2.40559 -5.44906,12.87818 -2.45575,10.60057 -2.91648,16.15835 -3.03202,36.57541 -0.1313,23.20085 -0.0387,24.1544 2.54798,26.25 3.7373,3.02773 5.06399,10.19603 3.68684,19.92053 -0.63617,4.49207 -1.42482,8.6013 -1.75257,9.1316 -0.32773,0.53031 0.24167,1.6593 1.26534,2.50888 1.02368,0.84958 1.86124,2.41094 1.86124,3.4697 0,1.05875 1.62279,4.5055 3.60621,7.65944 1.98341,3.15394 3.97935,7.98444 4.43543,10.73444 0.45606,2.75 2.44,8.09375 4.40872,11.875 5.22068,10.02715 5.69901,15.92162 2.48518,30.625 -2.82399,12.91986 -2.82749,15.86807 -0.0501,42.10887 1.08288,10.23077 4.344,16.60004 15.24054,29.76613 5.73354,6.92772 11.17894,17.82665 14.67655,29.375 3.51292,11.59894 8.58054,37.67981 9.59375,49.375 1.75227,20.22602 4.72964,29.29841 15.25246,46.47626 3.74539,6.1141 4.23391,7.78899 3.51428,12.04853 -0.71899,4.25563 -1.36987,5.05407 -4.65569,5.71123 -5.32225,1.06445 -25.09049,0.92205 -26.74744,-0.19266 z"
       id="path3430"
       inkscape:connector-curvature="0" />
  </g>
</svg>
