<?xml version="1.0" encoding="UTF-8" standalone="no"?>
<!-- Created with Inkscape (http://www.inkscape.org/) -->

<svg
   id="svg3406"
   version="1.1"
   inkscape:version="1.2.2 (b0a8486541, 2022-12-01)"
   width="340.32782"
   height="639.61578"
   viewBox="0 0 340.32782 639.61578"
   sodipodi:docname="silhouette-football-19.svg"
   xmlns:inkscape="http://www.inkscape.org/namespaces/inkscape"
   xmlns:sodipodi="http://sodipodi.sourceforge.net/DTD/sodipodi-0.dtd"
   xmlns="http://www.w3.org/2000/svg"
   xmlns:svg="http://www.w3.org/2000/svg"
   xmlns:rdf="http://www.w3.org/1999/02/22-rdf-syntax-ns#"
   xmlns:cc="http://creativecommons.org/ns#"
   xmlns:dc="http://purl.org/dc/elements/1.1/">
  <title
     id="title3340">Silhouette Football 19</title>
  <metadata
     id="metadata3412">
    <rdf:RDF>
      <cc:Work
         rdf:about="">
        <dc:format>image/svg+xml</dc:format>
        <dc:type
           rdf:resource="http://purl.org/dc/dcmitype/StillImage" />
        <dc:title>Silhouette Football 19</dc:title>
        <cc:license
           rdf:resource="http://creativecommons.org/publicdomain/zero/1.0/" />
        <dc:date>2017-03-19</dc:date>
        <dc:creator>
          <cc:Agent>
            <dc:title>JLouis</dc:title>
          </cc:Agent>
        </dc:creator>
        <dc:rights>
          <cc:Agent>
            <dc:title>Domaine pubic</dc:title>
          </cc:Agent>
        </dc:rights>
        <dc:publisher>
          <cc:Agent>
            <dc:title>inkscape</dc:title>
          </cc:Agent>
        </dc:publisher>
        <dc:subject>
          <rdf:Bag>
            <rdf:li>silhouette</rdf:li>
            <rdf:li>soccer</rdf:li>
            <rdf:li>player</rdf:li>
            <rdf:li>sport</rdf:li>
            <rdf:li>football</rdf:li>
            <rdf:li>joueurs</rdf:li>
          </rdf:Bag>
        </dc:subject>
        <dc:description>Soccer player in silhouette - Joueur de football en silhouette</dc:description>
      </cc:Work>
      <cc:License
         rdf:about="http://creativecommons.org/publicdomain/zero/1.0/">
        <cc:permits
           rdf:resource="http://creativecommons.org/ns#Reproduction" />
        <cc:permits
           rdf:resource="http://creativecommons.org/ns#Distribution" />
        <cc:permits
           rdf:resource="http://creativecommons.org/ns#DerivativeWorks" />
      </cc:License>
    </rdf:RDF>
  </metadata>
  <defs
     id="defs3410" />
  <sodipodi:namedview
     pagecolor="#ffffff"
     bordercolor="#666666"
     borderopacity="1"
     objecttolerance="10"
     gridtolerance="10"
     guidetolerance="10"
     inkscape:pageopacity="0"
     inkscape:pageshadow="2"
     inkscape:window-width="1916"
     inkscape:window-height="1026"
     id="namedview3408"
     showgrid="false"
     fit-margin-top="0"
     fit-margin-left="0"
     fit-margin-right="0"
     fit-margin-bottom="0"
     inkscape:zoom="0.8828125"
     inkscape:cx="-86.654867"
     inkscape:cy="329.62832"
     inkscape:window-x="0"
     inkscape:window-y="0"
     inkscape:window-maximized="1"
     inkscape:current-layer="svg3406"
     inkscape:showpageshadow="2"
     inkscape:pagecheckerboard="0"
     inkscape:deskcolor="#d1d1d1" />
  <path
     style="fill:#ffffff"
     d="m 35.925007,637.31022 c -4.46875,-1.2966 -9.075116,-2.07325 -10.236371,-1.72588 -1.297172,0.38803 -2.63972,-0.35565 -3.481479,-1.92849 -0.811921,-1.51708 -2.62533,-2.56007 -4.45113,-2.56007 -1.694561,0 -3.08102,-0.5246 -3.08102,-1.16576 0,-0.64118 -1.125,-1.52283 -2.5,-1.95924 -1.90543,-0.60476 -2.4999996,-1.89129 -2.4999996,-5.40951 0,-6.76274 4.2143686,-10.58225 16.0109856,-14.51089 11.378835,-3.7895 20.648793,-9.25045 22.802868,-13.4332 0.820386,-1.59302 2.791369,-4.30265 4.37996,-6.0214 6.704271,-7.25357 11.409582,-17.12421 12.200479,-25.59374 0.423133,-4.53123 2.712408,-17.64196 5.087277,-29.13493 2.374869,-11.49298 5.240431,-25.95883 6.367916,-32.14633 1.127485,-6.1875 3.510694,-14.50951 5.296019,-18.49336 3.242181,-7.23475 3.245108,-7.27249 2.459039,-31.70778 -0.500795,-15.56741 -0.32956,-25.31916 0.470851,-26.81473 0.691821,-1.29269 1.851495,-5.58669 2.577053,-9.54223 1.5036,-8.19722 13.919625,-32.06122 21.410055,-41.15085 5.33525,-6.4743 5.30339,-6.195 2.90535,-25.46797 -0.98019,-7.87769 -2.08112,-18.2125 -2.44651,-22.96624 -0.36539,-4.75375 -1.2612,-9.01205 -1.99068,-9.46289 -2.59652,-1.60474 -3.86867,-9.60434 -3.8793,-24.39395 -0.008,-11.57381 -0.57647,-16.71309 -2.48738,-22.5 -1.36213,-4.125 -3.815647,-13.19602 -5.452262,-20.15784 -3.214537,-13.67396 -12.073454,-35.29957 -15.86671,-38.73242 -1.289756,-1.16721 -2.345011,-3.32234 -2.345011,-4.78918 0,-1.46682 -1.03135,-4.61402 -2.291889,-6.99376 -1.26054,-2.37974 -5.748264,-10.90232 -9.97272,-18.93908 -4.224457,-8.03675 -7.910454,-14.22425 -8.191104,-13.75 -0.280649,0.47425 -3.595396,6.84302 -7.366103,14.1528 -7.9319,15.37655 -12.659716,22.50379 -18.885869,28.47068 -3.766405,3.60958 -5.310585,4.24815 -10.097728,4.17578 -6.700206,-0.10125 -13.9973559,-3.43858 -17.242072,-7.88552 -1.2836012,-1.7592 -2.62840254,-6.2592 -2.98844734,-10 -0.75343133,-7.82802 1.27991124,-16.1672 12.93555034,-53.05146 7.983459,-25.26366 10.082036,-34.87076 7.910352,-36.21294 -0.720484,-0.44528 -1.30997,-1.89296 -1.30997,-3.21705 0,-1.3241 -1.6875,-5.149988 -3.75,-8.501978 -4.670219,-7.590074 -4.807607,-11.7141 -0.494905,-14.855686 3.210911,-2.338985 3.252742,-2.57309 3.081691,-17.246701 -0.09538,-8.181542 -0.49483,-16.156189 -0.887682,-17.721439 -0.986794,-3.9317 2.957553,-5.417071 5.683093,-2.140153 1.128522,1.356823 3.175908,2.227519 4.720727,2.007594 3.411957,-0.485738 5.064266,2.430807 6.768021,11.946458 2.202514,12.301266 3.632099,16.566897 5.552235,16.566897 1.30169,0 1.82682,-1.455123 1.82682,-5.062075 0,-9.279676 5.376587,-15.311338 9.75,-10.937925 1.902166,1.902166 1.902317,0.415084 4.92e-4,-4.844317 -1.408192,-3.89429 -1.255953,-4.398095 2.5,-8.273257 2.984132,-3.078841 3.999508,-5.261037 3.999508,-8.595537 0,-5.322087 3.82344,-14.446813 8.26558,-19.725996 1.758801,-2.090218 3.608039,-5.3496323 4.109416,-7.2431441 1.28953,-4.8700683 5.150454,-6.2568812 20.191568,-7.25264969 12.192099,-0.80715454 13.927649,-0.62609724 22.906799,2.38969699 13.59343,4.5655715 22.58009,12.2632788 24.43969,20.9342928 1.98015,9.233085 1.66864,24.152612 -0.61778,29.58856 -3.2806,7.799611 -6.79527,18.810877 -6.79527,21.289185 0,2.650607 3.70527,6.483166 6.26786,6.483166 0.9328,0 2.88654,1.118443 4.34163,2.485429 1.45508,1.366986 5.42885,3.01748 8.83056,3.667765 9.98786,1.909312 27.07652,10.811506 40.56306,21.130974 1.72048,1.31644 3.90988,4.55544 4.86536,7.19777 1.64568,4.55104 16.48355,20.51806 19.06708,20.51806 0.62975,0 1.54876,1.04432 2.04222,2.32071 0.49348,1.2764 7.36598,7.17076 15.27223,13.09859 15.35661,11.51385 25.46272,22.37352 27.69007,29.75482 1.67787,5.5603 -2.04422,25.98787 -7.59828,41.70088 -1.94408,5.5 -6.2034,17.59375 -9.46518,26.875 -3.26176,9.28125 -6.64496,17.71875 -7.51821,18.75 -0.87326,1.03125 -2.14124,6.10434 -2.81774,11.27354 -0.6765,5.1692 -2.71331,13.10625 -4.52626,17.63788 -1.81294,4.53166 -4.4515,12.6773 -5.86345,18.10147 -2.99483,11.50486 -10.34038,25.85106 -20.31747,39.68097 -3.89592,5.40038 -7.06007,10.46288 -7.03144,11.25 0.0286,0.78713 2.00883,3.6475 4.4005,6.3564 l 4.34846,4.92526 5.912,-2.01603 c 3.2516,-1.10881 9.00575,-2.70626 12.787,-3.5499 15.64609,-3.49078 36.49591,-12.9705 42.81185,-19.46513 2.57778,-2.65071 7.64416,-8.99878 11.25865,-14.10683 4.75225,-6.71598 7.60766,-9.56573 10.31315,-10.2927 4.97949,-1.33802 7.87224,-0.27652 8.34965,3.0639 0.21544,1.50735 1.46153,2.94471 2.7691,3.19413 3.22156,0.61452 5.90621,3.44983 9.95109,10.50954 1.87104,3.26563 4.22194,5.9375 5.2242,5.9375 1.00227,0 1.82231,0.77488 1.82231,1.72195 0,2.5126 3.03146,4.62299 7.0837,4.9314 2.84834,0.2168 3.81193,1.12095 4.92429,4.62059 0.76065,2.39309 3.01065,5.44966 5,6.7924 5.32997,3.59752 9.85511,13.21286 8.35306,17.74921 -1.62581,4.91013 -6.28879,5.14515 -19.61946,0.98886 -9.91201,-3.09041 -12.00815,-3.30333 -28.1543,-2.85992 l -17.44496,0.47909 -9.75867,5.07953 c -15.83947,8.2447 -31.41647,18.33383 -51.18636,33.15312 -10.21476,7.65687 -18.85355,14.34697 -19.1973,14.8669 -0.34375,0.51993 -5.95834,4.94617 -12.47685,9.8361 -9.37119,7.02987 -12.75836,8.89077 -16.18281,8.89077 -5.79528,0 -12.43763,-4.78352 -16.90186,-12.17199 -1.97832,-3.27416 -5.46745,-7.18855 -7.75367,-8.69863 l -4.15672,-2.74563 -3.59299,5.24563 c -1.97614,2.88508 -4.75005,7.52581 -6.16424,10.3127 -2.56337,5.05155 -2.5639,5.09361 -0.17106,13.72295 3.59251,12.95571 3.13483,22.8357 -1.86099,40.17251 -2.34365,8.1331 -6.50074,19.84996 -9.23797,26.03746 -11.70135,26.45089 -19.509484,43.13739 -24.566373,52.5 -4.225282,7.82294 -5.263346,10.89594 -4.768176,14.11536 0.348135,2.26345 -0.225056,6.4822 -1.273758,9.375 -1.048701,2.8928 -2.19821,9.2173 -2.554463,14.05445 -1.073679,14.57824 -3.145725,16.80398 -15.681823,16.84503 -2.492187,0.009 -7.625,0.84524 -11.40625,1.86016 -8.562645,2.29831 -9.961441,2.25211 -20,-0.66056 z M 213.04311,247.65828 c 0.97279,-1.20313 3.13867,-5 4.81309,-8.4375 2.92575,-6.00644 3.04486,-7.26079 3.0566,-32.1875 l 0.0122,-25.9375 -2.8125,0.016 c -1.54688,0.009 -6.88326,-0.93605 -11.85864,-2.0997 -4.97537,-1.16365 -9.43821,-1.72364 -9.91742,-1.24443 -1.51147,1.51145 6.93535,37.41758 9.68967,41.18936 3.19761,4.37882 4.95529,14.84208 4.01832,23.92056 -0.74949,7.26181 0.0112,8.4751 2.99867,4.78068 z M 65.229677,95.324803 c 1.555084,-0.596741 1.684845,-1.161728 0.574179,-2.5 -0.789229,-0.950961 -2.06921,-1.732486 -2.844405,-1.736722 -0.775194,-0.0042 -2.916556,-0.793998 -4.758583,-1.755028 -1.842025,-0.961031 -3.67015,-1.426315 -4.0625,-1.033966 -0.983971,0.983971 -0.8985,5.94489 0.119975,6.963361 1.04747,1.047472 8.296798,1.088673 10.971336,0.06235 z"
     id="path3430"
     inkscape:connector-curvature="0" />
</svg>
