<?xml version="1.0" encoding="UTF-8" standalone="no"?>
<!-- Created with Inkscape (http://www.inkscape.org/) -->

<svg
   id="svg3387"
   version="1.1"
   inkscape:version="1.2.2 (b0a8486541, 2022-12-01)"
   width="407.05676"
   height="637.65356"
   viewBox="0 0 407.05676 637.65356"
   sodipodi:docname="silhouette-football-10.svg"
   xmlns:inkscape="http://www.inkscape.org/namespaces/inkscape"
   xmlns:sodipodi="http://sodipodi.sourceforge.net/DTD/sodipodi-0.dtd"
   xmlns="http://www.w3.org/2000/svg"
   xmlns:svg="http://www.w3.org/2000/svg"
   xmlns:rdf="http://www.w3.org/1999/02/22-rdf-syntax-ns#"
   xmlns:cc="http://creativecommons.org/ns#"
   xmlns:dc="http://purl.org/dc/elements/1.1/">
  <title
     id="title3340">Silhouette Football 10</title>
  <metadata
     id="metadata3393">
    <rdf:RDF>
      <cc:Work
         rdf:about="">
        <dc:format>image/svg+xml</dc:format>
        <dc:type
           rdf:resource="http://purl.org/dc/dcmitype/StillImage" />
        <dc:title>Silhouette Football 10</dc:title>
        <cc:license
           rdf:resource="http://creativecommons.org/publicdomain/zero/1.0/" />
        <dc:date>2017-03-18</dc:date>
        <dc:creator>
          <cc:Agent>
            <dc:title>JLouis</dc:title>
          </cc:Agent>
        </dc:creator>
        <dc:rights>
          <cc:Agent>
            <dc:title>Domaine pubic</dc:title>
          </cc:Agent>
        </dc:rights>
        <dc:publisher>
          <cc:Agent>
            <dc:title>inkscape</dc:title>
          </cc:Agent>
        </dc:publisher>
        <dc:subject>
          <rdf:Bag>
            <rdf:li>silhouette</rdf:li>
            <rdf:li>soccer</rdf:li>
            <rdf:li>player</rdf:li>
            <rdf:li>sport</rdf:li>
            <rdf:li>football</rdf:li>
            <rdf:li>joueurs</rdf:li>
          </rdf:Bag>
        </dc:subject>
        <dc:description>Soccer player in silhouette - Joueur de football en silhouette</dc:description>
      </cc:Work>
      <cc:License
         rdf:about="http://creativecommons.org/publicdomain/zero/1.0/">
        <cc:permits
           rdf:resource="http://creativecommons.org/ns#Reproduction" />
        <cc:permits
           rdf:resource="http://creativecommons.org/ns#Distribution" />
        <cc:permits
           rdf:resource="http://creativecommons.org/ns#DerivativeWorks" />
      </cc:License>
    </rdf:RDF>
  </metadata>
  <defs
     id="defs3391" />
  <sodipodi:namedview
     pagecolor="#ffffff"
     bordercolor="#666666"
     borderopacity="1"
     objecttolerance="10"
     gridtolerance="10"
     guidetolerance="10"
     inkscape:pageopacity="0"
     inkscape:pageshadow="2"
     inkscape:window-width="1916"
     inkscape:window-height="1026"
     id="namedview3389"
     showgrid="false"
     fit-margin-top="0"
     fit-margin-left="0"
     fit-margin-right="0"
     fit-margin-bottom="0"
     inkscape:zoom="0.8828125"
     inkscape:cx="-264.49558"
     inkscape:cy="320.56637"
     inkscape:window-x="0"
     inkscape:window-y="0"
     inkscape:window-maximized="1"
     inkscape:current-layer="svg3387"
     inkscape:showpageshadow="2"
     inkscape:pagecheckerboard="0"
     inkscape:deskcolor="#d1d1d1" />
  <g
     id="g3397"
     transform="translate(-0.44323054,-2.3464401)">
    <path
       style="fill:#ffffff"
       d="m 19.81592,639.11707 c -3.056577,-0.46956 -3.25989,-0.87508 -2.664441,-5.31448 0.536222,-3.99784 0.197387,-5.04552 -2.014684,-6.22938 -2.049747,-1.09699 -2.476874,-2.15016 -1.863377,-4.59452 0.449641,-1.79151 0.07179,-4.52443 -0.868469,-6.28129 -1.204939,-2.25145 -1.277723,-3.34897 -0.263654,-3.97571 1.647478,-1.01819 6.611839,-19.67099 6.601734,-24.80495 -0.01383,-7.0261 -2.359089,-12.6121 -5.640956,-13.4358 -3.6112457,-0.90637 -3.797373,-2.01053 -1.189135,-7.0543 2.205452,-4.26488 0.93555,-8.00083 -3.1616114,-9.30122 C 7.375597,557.68879 6.25,556.83874 6.25,556.23643 c 0,-0.6023 3.796875,-3.96695 8.4375,-7.47699 7.159712,-5.4154 9.029372,-6.27376 12.345756,-5.66795 8.576055,1.5666 16.054188,-5.03198 24.433518,-21.55969 3.041283,-5.99874 7.01663,-13.7193 8.834105,-17.1568 1.817475,-3.4375 3.928465,-9.43161 4.691088,-13.32024 1.793857,-9.1469 7.138264,-17.08025 16.96133,-25.17775 4.338167,-3.57611 8.268382,-7.56782 8.733813,-8.87048 0.46543,-1.30267 2.993472,-4.39642 5.617871,-6.875 C 101.40201,445.31769 105,435.98656 105,427.58165 c 0,-2.45554 1.125,-8.39852 2.5,-13.20665 1.375,-4.80813 2.5043,-10.15009 2.50955,-11.87103 0.005,-1.72093 1.07862,-6.64438 2.38526,-10.941 l 2.37572,-7.81202 -2.85352,-2.24459 c -5.82828,-4.58452 -17.076953,-19.12008 -20.660573,-26.69765 -2.035492,-4.30405 -4.612635,-11.92363 -5.726985,-16.93243 -1.970663,-8.85775 -1.939132,-9.61155 1.152562,-27.55408 3.984465,-23.1237 5.566082,-27.75486 10.56897,-30.9472 2.154841,-1.375 4.325616,-3.625 4.823936,-5 0.49833,-1.375 0.86259,-11.78125 0.80947,-23.125 -0.0729,-15.5614 -0.76092,-24.15417 -2.80257,-35 -3.905758,-20.74849 -4.47191,-21.95132 -7.354377,-15.625 -0.83533,1.83335 -2.468394,3.125 -3.951009,3.125 -1.758585,0 -3.572488,1.94384 -5.964298,6.39151 -1.890425,3.51534 -5.540796,8.99972 -8.111936,12.1875 -2.571141,3.1878 -7.024328,9.17099 -9.895973,13.29599 -6.043166,8.68076 -18.34115,22.14079 -28.837625,31.5625 -6.699411,6.01344 -7.040143,6.5625 -4.072535,6.5625 1.781212,0 5.30805,-1.40625 7.837418,-3.125 4.916797,-3.34105 7.16949,-3.85551 8.370827,-1.91171 2.021322,3.27057 -10.203393,17.28969 -20.444982,23.44599 -3.935356,2.36557 -5.31417,2.5959 -9.16882,1.53157 C 12.086321,291.92313 1.5278311,282.12712 0.58019685,277.0758 -0.37933218,271.96106 3.8685816,260.2487 8.1377789,256.238 9.8495005,254.62991 11.25,252.32046 11.25,251.10588 c 0,-1.21458 0.46296,-2.49447 1.0288,-2.84417 0.56584,-0.34971 3.060436,-4.74229 5.543545,-9.76127 5.794036,-11.71121 12.05928,-18.9568 20.521495,-23.73258 3.713805,-2.09595 8.118515,-5.60191 9.788246,-7.79104 C 51.724129,202.26741 57.5,189.61701 57.5,186.45909 c 0,-1.2208 1.6875,-4.88055 3.75,-8.13278 2.0625,-3.25222 3.75,-6.94972 3.75,-8.21666 0,-1.26695 0.84375,-3.00379 1.875,-3.85965 1.03125,-0.85586 1.875,-2.59081 1.875,-3.85544 0,-5.44452 6.255819,-21.66771 9.61431,-24.93274 1.93088,-1.87715 6.013306,-6.01147 9.07206,-9.18741 3.058754,-3.17592 5.929741,-5.77441 6.379971,-5.77441 0.450231,0 2.297196,-1.37032 4.104369,-3.04514 2.047975,-1.898 5.5307,-3.35963 9.24503,-3.87994 3.31113,-0.46384 10.57152,-3.29555 16.33855,-6.37239 5.70861,-3.04568 13.3927,-6.66505 17.07575,-8.04306 9.29691,-3.478421 13.69072,-9.271325 12.53137,-16.52162 -0.46285,-2.894567 -2.28875,-7.395645 -4.05755,-10.002394 -5.5928,-8.242323 -8.1706,-30.372802 -4.74073,-40.699181 1.16666,-3.512476 1.78932,-7.431962 1.3837,-8.709971 C 143.79252,19.226365 151.7456,9.3419685 162.0217,4.9371194 171.02743,1.0768111 197.68621,1.6748233 199.2586,5.772421 199.62321,6.7225895 200.69576,7.5 201.64204,7.5 c 2.4262,0 5.71382,3.952733 6.25903,7.525281 0.25344,1.660684 -0.006,5.095668 -0.57587,7.633296 -0.87956,3.914656 -0.37058,6.075519 3.35865,14.258771 2.9228,6.413636 4.35622,11.372406 4.27862,14.801276 -0.0641,2.836007 0.26842,8.08459 0.73913,11.663517 0.66104,5.02607 0.14366,9.151452 -2.2731,18.125 -1.72093,6.389823 -3.65963,14.562353 -4.30824,18.161176 l -1.1793,6.543323 5.71703,2.11028 c 3.14435,1.16066 8.04365,3.43525 10.88732,5.05464 2.84368,1.61939 9.21546,3.71511 14.15954,4.65716 9.79286,1.86595 11.59407,3.10956 20.2927,14.01069 2.94292,3.68808 5.91927,6.70745 6.61411,6.70973 1.23198,0.004 9.94683,18.12423 14.7204,30.60716 1.31165,3.42996 4.75408,8.77371 7.64985,11.875 2.89576,3.10129 7.65011,9.1557 10.56521,13.45426 6.52592,9.623 8.18323,10.71506 21.31087,14.04256 5.76565,1.46144 14.4844,4.67315 19.375,7.13714 8.78817,4.42768 15.76701,7.0194 15.76701,5.8554 0,-0.3299 -0.86674,-2.2759 -1.92609,-4.32445 -1.05934,-2.04855 -1.49336,-4.41124 -0.96449,-5.25042 0.52888,-0.83919 0.78135,-4.76017 0.56107,-8.71329 -0.37815,-6.78611 -0.23969,-7.1875 2.4794,-7.1875 1.9169,0 5.7427,2.92589 11.44122,8.75 4.70873,4.8125 8.80826,8.75 9.1101,8.75 1.39774,0 0.27165,-2.63755 -2.56581,-6.00968 -2.54661,-3.02647 -2.80846,-3.95555 -1.43588,-5.0947 1.28338,-1.0651 2.86452,-0.53422 6.71383,2.2542 4.64724,3.36645 5.29222,3.51403 8.37285,1.91578 1.83576,-0.95241 4.79196,-2.87554 6.56935,-4.27363 3.78451,-2.9769 10.67425,-3.34215 12.88124,-0.68288 2.22306,2.67862 0.79227,5.1726 -3.45483,6.02202 -4.49617,0.89923 -11.53196,6.6013 -11.53196,9.34594 0,3.51861 -7.80034,25.80877 -9.87315,28.21342 -6.20423,7.19744 -12.79286,7.21444 -45.79708,0.11813 -11.02487,-2.3705 -24.02273,-4.80943 -28.88415,-5.41985 -4.8614,-0.61041 -9.95937,-1.7095 -11.32882,-2.4424 -1.36945,-0.73291 -10.24715,-8.10815 -19.72825,-16.38944 C 266.15746,213.0256 257.43041,206.25 256.24511,206.25 c -2.04797,0 -3.73905,-2.1321 -11.80852,-14.88815 -4.13194,-6.53165 -3.98535,-6.69512 -9.46248,10.55321 -10.21166,32.15815 -11.60595,36.28675 -12.62962,37.39744 -0.60198,0.65312 -1.09449,4.43857 -1.09449,8.41211 0,3.97354 -0.79244,11.59541 -1.76099,16.9375 C 216.66354,280.24628 215,292.21536 215,296.96028 c 0,2.42762 -0.89851,6.15141 -1.9967,8.27506 -1.4378,2.7804 -1.66011,4.59995 -0.79425,6.50042 0.71009,1.55854 0.75892,3.83815 0.11925,5.56718 -0.59575,1.61037 -0.76118,3.44893 -0.36763,4.08572 1.06955,1.73058 1.71023,24.86134 0.68861,24.86134 -0.48488,0 -1.93202,3.23437 -3.21588,7.1875 -1.28385,3.95312 -2.99472,8.3125 -3.80194,9.6875 -3.39332,5.78017 -4.15137,10.04261 -2.2351,12.56779 2.29329,3.022 9.79066,19.16825 12.09849,26.05513 2.10412,6.27904 0.9095,16.62025 -3.64748,31.57428 -1.70908,5.60846 -2.79157,11.02031 -2.40552,12.02632 0.38605,1.00603 -0.30426,2.83529 -1.534,4.06504 -1.22975,1.22975 -2.42618,3.97415 -2.65871,6.09868 -0.23254,2.12451 -1.14783,4.98776 -2.03398,6.36276 -0.92089,1.42891 -1.88432,8.12321 -2.24871,15.625 -0.50158,10.32609 -1.32136,14.72437 -3.84421,20.625 -2.14638,5.02005 -4.08127,13.69986 -5.8516,26.25 -1.4547,10.3125 -3.23873,20.27521 -3.9645,22.13935 -1.0933,2.80816 -0.83242,4.1776 1.5214,7.98615 2.02461,3.27589 2.80096,6.35326 2.70173,10.70941 -0.11625,5.10478 0.47238,6.8092 3.57015,10.33739 2.50849,2.857 3.19402,4.39954 2.11748,4.76465 -1.09379,0.37095 1.24824,6.17597 7.48454,18.55147 4.99205,9.90637 9.04995,19.13658 9.01755,20.51158 -0.0324,1.375 -1.41804,4.163 -3.07918,6.19554 -2.59107,3.1704 -3.13657,3.39243 -3.83878,1.5625 -1.01031,-2.6328 -5.36974,-2.80999 -6.34902,-0.25804 -1.0654,2.77637 -2.82062,2.28105 -4.42947,-1.25 -1.66456,-3.6533 -4.39114,-4.02371 -6.90079,-0.9375 -1.12035,1.37774 -1.9978,1.67472 -2.37037,0.80226 -0.32537,-0.76187 -1.33764,-2.40556 -2.24952,-3.65262 -1.58425,-2.16659 -1.76131,-2.14669 -3.98272,0.44773 -2.88078,3.3645 -3.88064,3.40845 -4.89416,0.21513 -0.43642,-1.375 -1.73994,-2.50586 -2.89674,-2.51301 -1.34565,-0.009 -3.3699,-2.73494 -5.61964,-7.5695 -3.81682,-8.20217 -6.07869,-9.91207 -9.93007,-7.50684 -2.18403,1.36395 -2.9508,1.05099 -6.23505,-2.5448 -3.54987,-3.8866 -3.71158,-4.52658 -3.10692,-12.29543 0.4317,-5.54667 1.99538,-11.22541 4.83814,-17.57042 4.15749,-9.2795 4.19865,-9.55326 4.041,-26.875 -0.0876,-9.625 -1.07199,-25.8696 -2.1875,-36.09911 -2.98495,-27.37249 -2.71487,-41.01837 1.04623,-52.86215 1.69095,-5.32483 2.85726,-9.89869 2.59182,-10.16413 -0.73032,-0.73032 -7.94929,12.26793 -9.58052,17.25039 -0.94961,2.90051 -6.26108,9.11811 -15.75981,18.44839 -15.07464,14.8073 -19.20084,19.98055 -22.99955,28.83576 -1.62664,3.7919 -8.86161,11.92756 -24.198405,27.2109 C 73.595096,550.236 63.75,560.82347 63.75,561.77278 c 0,0.9493 -2.053382,4.73564 -4.563073,8.41411 -3.785497,5.54841 -4.628499,7.96616 -4.947022,14.18811 -0.563536,11.00801 -1.695839,15.3219 -4.193079,15.97494 -2.169847,0.56743 -3.571443,6.06921 -5.642795,22.15006 -0.398501,3.09375 -1.597637,8.29687 -2.664747,11.5625 l -1.9402,5.9375 -8.337043,-0.18729 c -4.585372,-0.103 -9.826127,-0.41605 -11.646121,-0.69564 z"
       id="path3411"
       inkscape:connector-curvature="0" />
  </g>
</svg>
