<?xml version="1.0" encoding="UTF-8" standalone="no"?>
<!-- Created with Inkscape (http://www.inkscape.org/) -->

<svg
   id="svg3406"
   version="1.1"
   inkscape:version="1.2.2 (b0a8486541, 2022-12-01)"
   width="284.95999"
   height="440"
   viewBox="0 0 284.95999 440"
   sodipodi:docname="silhouette-football-26.svg"
   xmlns:inkscape="http://www.inkscape.org/namespaces/inkscape"
   xmlns:sodipodi="http://sodipodi.sourceforge.net/DTD/sodipodi-0.dtd"
   xmlns="http://www.w3.org/2000/svg"
   xmlns:svg="http://www.w3.org/2000/svg"
   xmlns:rdf="http://www.w3.org/1999/02/22-rdf-syntax-ns#"
   xmlns:cc="http://creativecommons.org/ns#"
   xmlns:dc="http://purl.org/dc/elements/1.1/">
  <title
     id="title3340">Silhouette Football 26</title>
  <metadata
     id="metadata3412">
    <rdf:RDF>
      <cc:Work
         rdf:about="">
        <dc:format>image/svg+xml</dc:format>
        <dc:type
           rdf:resource="http://purl.org/dc/dcmitype/StillImage" />
        <dc:title>Silhouette Football 26</dc:title>
        <cc:license
           rdf:resource="http://creativecommons.org/publicdomain/zero/1.0/" />
        <dc:date>2017-03-21</dc:date>
        <dc:creator>
          <cc:Agent>
            <dc:title>JLouis</dc:title>
          </cc:Agent>
        </dc:creator>
        <dc:rights>
          <cc:Agent>
            <dc:title>Domaine pubic</dc:title>
          </cc:Agent>
        </dc:rights>
        <dc:publisher>
          <cc:Agent>
            <dc:title>inkscape</dc:title>
          </cc:Agent>
        </dc:publisher>
        <dc:subject>
          <rdf:Bag>
            <rdf:li>silhouette</rdf:li>
            <rdf:li>soccer</rdf:li>
            <rdf:li>player</rdf:li>
            <rdf:li>sport</rdf:li>
            <rdf:li>football</rdf:li>
            <rdf:li>joueurs</rdf:li>
          </rdf:Bag>
        </dc:subject>
        <dc:description>Soccer player in silhouette - Joueur de football en silhouette</dc:description>
      </cc:Work>
      <cc:License
         rdf:about="http://creativecommons.org/publicdomain/zero/1.0/">
        <cc:permits
           rdf:resource="http://creativecommons.org/ns#Reproduction" />
        <cc:permits
           rdf:resource="http://creativecommons.org/ns#Distribution" />
        <cc:permits
           rdf:resource="http://creativecommons.org/ns#DerivativeWorks" />
      </cc:License>
    </rdf:RDF>
  </metadata>
  <defs
     id="defs3410" />
  <sodipodi:namedview
     pagecolor="#ffffff"
     bordercolor="#666666"
     borderopacity="1"
     objecttolerance="10"
     gridtolerance="10"
     guidetolerance="10"
     inkscape:pageopacity="0"
     inkscape:pageshadow="2"
     inkscape:window-width="1916"
     inkscape:window-height="1026"
     id="namedview3408"
     showgrid="false"
     fit-margin-top="0"
     fit-margin-left="0"
     fit-margin-right="0"
     fit-margin-bottom="0"
     inkscape:zoom="0.8828125"
     inkscape:cx="-49.274336"
     inkscape:cy="233.34513"
     inkscape:window-x="0"
     inkscape:window-y="0"
     inkscape:window-maximized="1"
     inkscape:current-layer="svg3406"
     inkscape:showpageshadow="2"
     inkscape:pagecheckerboard="0"
     inkscape:deskcolor="#d1d1d1" />
  <path
     style="fill:#ffffff;stroke-width:0.688457"
     d="m 31.835894,438.39543 c -3.67116,-0.8482 -7.350103,-2.05146 -8.17543,-2.67389 C 16.993246,430.69329 11.870488,423.05082 9.3254165,414.33555 7.659208,408.62985 7.585795,399.20182 9.1556278,392.53053 c 0.6734641,-2.86201 0.838835,-5.16856 0.3904372,-5.44568 -2.4119758,-1.49068 6.313238,-21.43009 12.413445,-28.36799 1.783061,-2.02791 3.768181,-5.17868 4.411379,-7.0017 0.643198,-1.823 2.76646,-5.78546 4.71836,-8.80541 1.951899,-3.01997 3.548908,-5.80175 3.548908,-6.18173 0,-0.37999 -1.839472,-1.72831 -4.087716,-2.99629 -17.346421,-9.7831 -26.8928637,-18.93274 -26.8928637,-25.77507 0,-1.51594 -0.5471606,-4.30708 -1.2159124,-6.20252 C 1.772913,299.85869 0.94960343,296.09765 0.61208804,293.39627 0.04002339,288.81762 0.22097,288.04622 3.2813484,282.0168 7.2706833,274.15718 10.19556,271.62107 20.86901,266.76684 c 4.496487,-2.04498 10.349336,-4.74285 13.006332,-5.99526 l 4.830901,-2.27713 0.566328,-4.81858 c 0.784608,-6.67578 3.781975,-17.90562 6.288846,-23.5616 1.606001,-3.62343 2.178994,-6.64991 2.44394,-12.90857 0.423884,-10.01316 1.079623,-15.93503 2.572902,-23.23543 0.629299,-3.07655 1.775179,-10.62806 2.546401,-16.78115 1.692487,-13.50329 5.900425,-34.92007 8.369649,-42.5983 6.439377,-20.02369 17.326588,-30.01849 44.954011,-41.269139 7.07355,-2.880553 14.65897,-6.391114 16.85649,-7.801261 2.19751,-1.410146 4.44565,-2.563897 4.99586,-2.563897 1.09531,0 1.28586,-3.751859 0.44801,-8.82086 -0.43595,-2.6375 -0.89452,-3.227143 -2.50978,-3.227143 -3.0166,0 -4.89847,-3.175391 -7.57508,-12.78193 -2.29904,-8.251413 -2.36108,-8.897536 -1.04691,-10.903207 0.76832,-1.172607 1.9689,-2.132013 2.66796,-2.132013 0.99747,0 1.27102,-1.270658 1.27102,-5.90389 0,-3.24714 0.24743,-7.70909 0.54985,-9.915444 0.47825,-3.489259 0.36621,-3.941087 -0.86057,-3.470327 -2.07033,0.794458 -1.71853,-0.928065 0.52587,-2.574808 l 1.93628,-1.420682 -2.00999,0.955154 c -2.95389,1.403698 -3.17227,0.438002 -0.40189,-1.777299 l 2.41188,-1.928651 -2.79686,0.390639 c -2.73939,0.382615 -3.95483,-1.07574 -1.93628,-2.32327 0.47331,-0.292525 0.86057,-1.251251 0.86057,-2.130504 0,-0.879252 0.45739,-1.751104 1.01643,-1.937449 0.55903,-0.186345 1.44891,-1.670831 1.9775,-3.2988582 0.81953,-2.524091 1.96657,-3.4643503 7.78813,-6.3841331 6.4973,-3.25870276 7.20193,-3.42116913 14.58849,-3.36373358 18.50146,0.14386111 22.27903,0.46085065 25.58382,2.14683098 1.7939,0.9151813 3.26164,1.4215124 3.26164,1.1251802 0,-0.2963322 1.16178,0.7048947 2.58172,2.224949 1.41994,1.5200545 2.58171,3.3089214 2.58171,3.9752592 0,1.4070425 1.53807,4.3213575 3.57922,6.7818865 0.79321,0.956178 1.59842,3.824797 1.81169,6.454287 0.77208,9.518949 2.72764,19.3633 4.04666,20.370884 1.92092,1.467382 1.70252,14.256002 -0.33456,19.590012 -1.2076,3.162063 -2.03495,4.106704 -3.92848,4.48541 -2.25344,0.450689 -2.42347,0.800113 -2.80769,5.770157 -0.22494,2.909723 -0.24576,5.580855 -0.0463,5.935837 0.19949,0.35499 2.08097,0.645429 4.18108,0.645429 2.1001,0 6.04662,0.743169 8.77006,1.651485 2.72345,0.908317 7.27526,1.910642 10.11515,2.227401 7.4439,0.830272 23.5164,5.343151 27.53829,7.73227 5.81999,3.457254 12.17253,9.652478 14.95742,14.587028 2.54354,4.5069 3.7805,8.37984 7.84907,24.57554 1.01066,4.02318 2.43857,9.20094 3.17311,11.50615 1.08524,3.4058 1.1458,4.77666 0.32311,7.31486 -0.90014,2.77717 -0.57845,4.88913 2.90072,19.04415 2.15223,8.75631 3.91877,17.08234 3.92566,18.50229 0.007,1.41994 0.44032,4.12266 0.96319,6.00606 0.76816,2.76689 0.71944,3.5702 -0.25375,4.18407 -0.98502,0.62133 -1.05409,2.03546 -0.37922,7.76308 0.94469,8.01742 1.05058,25.49034 0.18253,30.11746 -0.42526,2.26685 -1.42917,3.696 -3.66206,5.21329 l -3.07619,2.09032 4.35593,2.20732 c 5.33244,2.70216 13.0794,10.11429 15.47113,14.80247 0.97452,1.91023 2.02315,5.96176 2.33027,9.0034 0.30712,3.04164 1.30222,7.93478 2.21132,10.87364 1.93037,6.2403 2.03487,11.11169 0.43116,20.10088 -2.31294,12.96467 -9.67825,26.01301 -26.63948,47.19433 -5.08157,6.3459 -9.82075,12.66258 -10.53152,14.03706 -0.80295,1.55273 -1.35912,5.33048 -1.46872,9.97629 -0.097,4.11247 -0.49541,7.97826 -0.88527,8.59064 -0.41325,0.64908 -0.25095,1.66517 0.38917,2.43646 0.85322,1.02808 0.87183,1.68522 0.0835,2.9476 -1.4918,2.38876 0.76723,13.07009 4.52391,21.39031 3.23987,7.17556 3.54544,8.73168 2.20609,11.23429 -3.35816,6.27477 -31.70207,4.72588 -35.1715,-1.922 -0.55014,-1.05414 -1.37134,-5.59052 -1.82489,-10.08083 -0.81806,-8.09905 -1.00213,-8.51157 -4.82603,-10.81544 -2.27675,-1.37173 -1.7402,-11.27851 0.97897,-18.07535 1.15476,-2.88644 2.09955,-5.55503 2.09955,-5.93022 0,-0.37518 1.93628,-4.03714 4.30285,-8.13767 2.36655,-4.10055 5.03688,-9.57205 5.93405,-12.1589 2.03721,-5.87397 3.81671,-23.11685 2.54398,-24.65039 -1.71711,-2.069 -18.56696,-7.90694 -25.60145,-8.87009 -3.84946,-0.52706 -8.63892,-1.54038 -10.64322,-2.25182 -6.39813,-2.27103 -13.34217,-2.42043 -19.05408,-0.40993 -2.79565,0.98402 -6.97034,1.78913 -9.27708,1.78913 -2.46568,0 -6.22257,0.84436 -9.11642,2.04891 -2.70729,1.12689 -7.2459,2.71339 -10.08579,3.52553 -2.83988,0.81216 -7.34556,2.39346 -10.01261,3.51402 -7.05908,2.96586 -16.75227,5.38549 -22.82834,5.69843 -2.91646,0.15022 -5.24,0.30578 -5.16343,0.34572 0.0766,0.0399 3.5079,3.04117 7.62516,6.66943 5.37667,4.73807 8.13935,6.59682 9.80497,6.59682 1.72585,0 4.21355,1.80095 9.7255,7.04068 8.67195,8.24367 10.62502,11.16043 12.67125,18.92358 1.27652,4.84296 1.33172,5.95947 0.35289,7.13888 -0.63815,0.76893 -1.6571,1.20741 -2.26432,0.9744 -0.60722,-0.23302 -2.29182,0.92915 -3.74355,2.58257 -2.1303,2.42629 -2.46967,3.32359 -1.75915,4.65123 0.69811,1.30443 0.53469,1.82998 -0.78938,2.5386 -0.91834,0.49149 -2.22932,0.67889 -2.91325,0.41643 -1.89131,-0.72576 -8.16283,7.09941 -9.65121,12.04213 -0.70287,2.33415 -1.27794,6.28714 -1.27794,8.78442 v 4.54051 l -6.23915,1.81041 c -3.43153,0.99573 -7.40091,2.14193 -8.82085,2.54711 -1.41995,0.40518 -5.54312,1.3671 -9.162601,2.1376 -6.193961,1.31854 -6.721312,1.61364 -8.969311,5.01933 -2.814531,4.26396 -6.456023,7.8164 -10.881653,10.61554 -6.965075,4.4053 -32.227673,6.02261 -45.646435,2.92228 z m 63.876833,-57.22399 2.893338,-2.98516 -1.648807,-3.6564 c -0.906843,-2.011 -1.681254,-3.86256 -1.720909,-4.11454 -0.676065,-4.29543 -7.04296,-10.36898 -12.614803,-12.0336 -2.01517,-0.60204 -5.195498,-1.87434 -7.067386,-2.82731 l -3.403444,-1.7327 1.464968,2.04371 c 0.805729,1.12405 2.202781,3.39913 3.10455,5.05573 0.901769,1.6566 2.63326,3.93942 3.847761,5.07293 1.581992,1.4765 1.99475,2.44233 1.455529,3.40584 -0.554779,0.99135 0.249015,2.45902 3.057446,5.58266 2.095554,2.33077 4.466174,5.34841 5.268048,6.70587 0.801881,1.35748 1.685757,2.46813 1.964169,2.46813 0.278412,0 1.808205,-1.34332 3.39954,-2.98516 z m -41.711708,-20.8395 c 4.25983,0.26259 8.713288,0.7444 9.896574,1.0707 2.012684,0.55502 1.957187,0.39576 -0.860572,-2.46951 -2.368435,-2.40838 -4.154271,-3.29405 -8.358027,-4.14512 l -5.346026,-1.08233 -4.76569,3.28225 c -2.62113,1.80525 -4.765691,3.59114 -4.765691,3.96866 0,0.37753 1.452214,0.284 3.227143,-0.20783 1.812361,-0.50221 6.622624,-0.68494 10.972289,-0.41682 z M 88.9743,244.23287 c 2.52776,-1.70106 6.159145,-4.53375 8.069725,-6.29486 1.910579,-1.76112 5.482265,-4.14509 7.937085,-5.29773 3.15241,-1.4802 4.32469,-2.47485 3.99137,-3.38658 -2.15013,-5.88114 -5.17535,-18.13548 -7.23147,-29.29272 -1.35536,-7.35469 -2.868608,-14.43557 -3.362762,-15.73528 -0.494147,-1.29973 -0.857081,-2.64016 -0.8065,-2.97872 0.0506,-0.33857 0.04468,-1.19646 -0.01315,-1.90643 -0.136638,-1.67783 -3.325104,3.53767 -4.070896,6.65894 -0.312388,1.30738 -0.863973,2.76432 -1.225743,3.23763 -1.216298,1.5913 -2.609708,8.12725 -2.612889,12.25608 -0.0028,3.33021 -1.383441,11.17766 -3.030052,17.21977 -0.161422,0.59235 -1.614391,1.70689 -3.228816,2.47674 -2.227277,1.06212 -3.190911,2.25541 -3.994967,4.94702 -0.582813,1.951 -1.817871,5.03666 -2.744576,6.85703 -1.39372,2.73778 -1.582908,4.26222 -1.094723,8.82086 l 0.590187,5.51109 h 4.116128 c 3.298385,0 5.029187,-0.61445 8.712069,-3.09284 z m 142.51962,-27.96322 c 1.06496,-0.65951 1.93629,-1.73125 1.93629,-2.38165 0,-1.50606 -4.37384,-9.59087 -5.18862,-9.59087 -0.89814,0 -5.12637,-12.33568 -5.20844,-15.19543 l -0.0702,-2.44629 -1.32706,3.012 c -0.72987,1.6566 -1.70525,5.92504 -2.16751,9.48543 l -0.84047,6.47343 3.63401,7.11047 c 3.47632,6.80192 3.71345,7.05886 5.46486,5.92124 1.00697,-0.65407 2.70219,-1.72882 3.76715,-2.38833 z"
     id="path3430"
     inkscape:connector-curvature="0" />
</svg>
