<?xml version="1.0" encoding="UTF-8" standalone="no"?>
<!-- Created with Inkscape (http://www.inkscape.org/) -->

<svg
   id="svg3406"
   version="1.1"
   inkscape:version="1.2.2 (b0a8486541, 2022-12-01)"
   width="390.15369"
   height="639.35864"
   viewBox="0 0 390.15369 639.35864"
   sodipodi:docname="silhouette-football-04.svg"
   xmlns:inkscape="http://www.inkscape.org/namespaces/inkscape"
   xmlns:sodipodi="http://sodipodi.sourceforge.net/DTD/sodipodi-0.dtd"
   xmlns="http://www.w3.org/2000/svg"
   xmlns:svg="http://www.w3.org/2000/svg"
   xmlns:rdf="http://www.w3.org/1999/02/22-rdf-syntax-ns#"
   xmlns:cc="http://creativecommons.org/ns#"
   xmlns:dc="http://purl.org/dc/elements/1.1/">
  <title
     id="title3340">Silhouette Football 04</title>
  <metadata
     id="metadata3412">
    <rdf:RDF>
      <cc:Work
         rdf:about="">
        <dc:format>image/svg+xml</dc:format>
        <dc:type
           rdf:resource="http://purl.org/dc/dcmitype/StillImage" />
        <dc:title>Silhouette Football 04</dc:title>
        <cc:license
           rdf:resource="http://creativecommons.org/publicdomain/zero/1.0/" />
        <dc:date>2017-02-27</dc:date>
        <dc:creator>
          <cc:Agent>
            <dc:title>JLouis</dc:title>
          </cc:Agent>
        </dc:creator>
        <dc:rights>
          <cc:Agent>
            <dc:title>Domaine pubic</dc:title>
          </cc:Agent>
        </dc:rights>
        <dc:publisher>
          <cc:Agent>
            <dc:title>inkscape</dc:title>
          </cc:Agent>
        </dc:publisher>
        <dc:subject>
          <rdf:Bag>
            <rdf:li>silhouette</rdf:li>
            <rdf:li>soccer</rdf:li>
            <rdf:li>player</rdf:li>
            <rdf:li>sport</rdf:li>
            <rdf:li>football</rdf:li>
            <rdf:li>joueurs</rdf:li>
          </rdf:Bag>
        </dc:subject>
        <dc:description>Soccer player in silhouette - Joueur de football en silhouette</dc:description>
      </cc:Work>
      <cc:License
         rdf:about="http://creativecommons.org/publicdomain/zero/1.0/">
        <cc:permits
           rdf:resource="http://creativecommons.org/ns#Reproduction" />
        <cc:permits
           rdf:resource="http://creativecommons.org/ns#Distribution" />
        <cc:permits
           rdf:resource="http://creativecommons.org/ns#DerivativeWorks" />
      </cc:License>
    </rdf:RDF>
  </metadata>
  <defs
     id="defs3410" />
  <sodipodi:namedview
     pagecolor="#ffffff"
     bordercolor="#666666"
     borderopacity="1"
     objecttolerance="10"
     gridtolerance="10"
     guidetolerance="10"
     inkscape:pageopacity="0"
     inkscape:pageshadow="2"
     inkscape:window-width="1916"
     inkscape:window-height="1026"
     id="namedview3408"
     showgrid="false"
     fit-margin-top="0"
     fit-margin-left="0"
     fit-margin-right="0"
     fit-margin-bottom="0"
     inkscape:zoom="0.8828125"
     inkscape:cx="-30.017699"
     inkscape:cy="323.9646"
     inkscape:window-x="0"
     inkscape:window-y="0"
     inkscape:window-maximized="1"
     inkscape:current-layer="svg3406"
     inkscape:showpageshadow="2"
     inkscape:pagecheckerboard="0"
     inkscape:deskcolor="#d1d1d1" />
  <g
     id="g3416"
     transform="translate(-0.33019609,-0.65492356)">
    <path
       style="fill:#ffffff"
       d="m 144.375,638.00689 c -2.0625,-1.1615 -5.71875,-3.10563 -8.125,-4.32028 -5.2501,-2.6502 -7.90244,-5.48706 -15.13372,-16.18661 l -5.49128,-8.125 0,-15.625 0,-15.625 4.7694,-8.13351 c 8.78322,-14.97852 23.71464,-23.16 42.1056,-23.07124 8.1131,0.0391 10.46865,0.60558 17.5,4.20811 13.00902,6.66523 18.14974,11.56898 23.2548,22.18284 4.41262,9.17421 4.51454,9.71714 4.03387,21.48791 -0.57977,14.19742 -2.86758,19.9372 -12.57953,31.5602 -9.26464,11.08768 -13.40311,12.83586 -31.58414,13.3419 -12.31253,0.34269 -15.67186,0.0391 -18.75,-1.69432 z m 100.8139,-2.08767 c -2.51495,-1.20908 -2.8307,-2.04863 -2.20126,-5.8529 0.40416,-2.44272 0.74103,-5.45741 0.7486,-6.69928 0.007,-1.24188 1.67816,-3.77816 3.71242,-5.63618 4.93734,-4.50956 7.95043,-16.13177 7.99945,-30.85586 0.0362,-10.90101 -0.15903,-11.67921 -6.29661,-25.08591 -8.48843,-18.54184 -11.69178,-23.46793 -21.48475,-33.03909 -6.16789,-6.02819 -8.9022,-9.80402 -10.59528,-14.63109 -1.25508,-3.57834 -4.38252,-8.92209 -6.94985,-11.875 C 201.20881,491.99252 192.5,477.4131 192.5,472.74354 c 0,-1.29584 -1.21011,-3.42763 -2.68915,-4.7373 C 186.32995,464.9239 180,455.03915 180,452.68576 c 0,-1.00363 -1.35494,-3.60118 -3.01096,-5.77236 -4.97818,-6.52672 -11.98718,-20.64489 -12.01649,-24.20471 -0.0566,-6.8798 -4.33068,-13.2462 -13.41269,-19.97898 l -8.78166,-6.51012 -5.86774,2.51521 c -4.70396,2.01635 -8.63621,2.51763 -19.82659,2.52741 -15.4046,0.0135 -22.151948,2.10122 -30.915615,9.5658 -2.36129,2.01127 -5.84013,4.62947 -7.730755,5.81824 -4.587451,2.88444 -4.547148,8.31089 0.20643,27.79381 7.087822,29.05 8.184727,38.15338 6.402782,53.13759 -1.656485,13.92923 -1.246573,23.95311 1.939263,47.42235 2.002486,14.7518 10.21353,46.21164 12.560666,48.125 0.843359,0.6875 2.473449,4.54684 3.622419,8.57631 3.0471,10.68624 3.12709,10.64663 -24.512091,12.13946 -12.667583,0.68422 -24.719469,1.82245 -26.781969,2.52943 -2.0625,0.70697 -14.212105,1.6151 -26.999123,2.01805 -25.35972264,0.79914 -26.8378986,0.43551 -22.8900458,-5.63073 3.2124594,-4.93623 5.3514919,-6.16393 12.3577278,-7.09272 C 23.268042,604.48171 47.98824,592.04173 54.6875,585.36244 58.023035,582.03686 60,578.93693 60,577.03231 c 0,-1.66841 -1.942755,-11.10508 -4.317233,-20.9704 -3.925363,-16.3088 -6.284425,-23.43926 -12.50469,-37.79646 -1.157972,-2.67276 -2.873297,-9.14151 -3.811833,-14.375 -0.938536,-5.2335 -3.160218,-14.8592 -4.93707,-21.39045 -5.328259,-19.5853 -6.325311,-25.82099 -4.644853,-29.04945 1.727313,-3.31849 1.159225,-35.41679 -0.802187,-45.32555 -1.786671,-9.02599 -0.660609,-12.51101 6.603475,-20.43689 3.560343,-3.88471 8.624195,-10.71936 11.253002,-15.18811 2.628808,-4.46875 7.720827,-12.625 11.315596,-18.125 3.59477,-5.5 7.196137,-12.06196 8.003037,-14.58214 1.785431,-5.5764 10.198942,-15.39217 15.548383,-18.13978 2.155655,-1.1072 6.922868,-4.74919 10.593805,-8.09332 3.670938,-3.34412 10.533608,-8.33411 15.250388,-11.08886 4.71677,-2.75474 8.90877,-5.54712 9.31554,-6.20531 0.40678,-0.65818 2.93433,-1.85424 5.61679,-2.65793 7.2844,-2.18245 13.19825,-7.76886 17.52215,-16.55193 4.44551,-9.03013 4.65804,-10.82699 2.09185,-17.68683 -1.53046,-4.09117 -1.69071,-8.2033 -0.87688,-22.5 0.95679,-16.80795 0.84917,-18.13107 -2.74478,-33.7439 C 135.51737,190.27874 130.58131,175 129.3882,175 c -1.9621,0 -15.19799,4.7906 -19.37825,7.01378 C 106.92167,183.6562 103.801,185 103.07512,185 c -0.72587,0 -3.471854,3.3781 -6.102186,7.50687 -3.592357,5.63887 -6.999043,8.96969 -13.690178,13.38533 C 78.38349,209.12535 70.15625,214.9503 65,218.83654 c -5.15625,3.88624 -10.874459,7.84722 -12.707131,8.80217 -1.832673,0.95497 -5.702649,4.4369 -8.599946,7.73765 l -5.267816,6.00136 2.015588,3.99864 c 1.108574,2.19925 2.824862,6.07065 3.813975,8.60311 1.163885,2.97995 3.266445,5.34566 5.959357,6.70521 5.121048,2.58543 11.035973,7.99332 11.035973,10.08995 0,3.48431 -5.275132,3.21309 -12.645104,-0.65014 -9.003756,-4.71964 -11.66705,-4.83631 -14.421955,-0.6318 -2.006009,3.06156 -1.999824,3.47455 0.110713,7.3936 3.912203,7.26451 -0.213754,9.3293 -6.185949,3.09566 l -3.610019,-3.76805 -2.844299,3.45555 c -2.401518,2.91761 -3.040508,3.16366 -4.104704,1.58055 -1.721083,-2.56031 -1.622779,-10.81125 0.168524,-14.14467 0.820118,-1.52615 1.68014,-9.89718 1.950002,-18.98033 0.542365,-18.25523 0.367784,-17.80179 11.410685,-29.63766 4.034565,-4.32429 9.801916,-11.56205 12.816336,-16.08393 12.501384,-18.7531 23.241568,-31.24312 31.680661,-36.84225 C 85.575085,158.92629 87.5,156.848 87.5,152.6859 c 0,-2.0836 0.615781,-4.16893 1.368403,-4.63408 0.752621,-0.46515 4.268246,-5.19086 7.8125,-10.5016 15.703567,-23.53032 16.542717,-24.50717 24.178777,-28.14632 9.04267,-4.30951 19.99581,-8.1539 23.23146,-8.1539 2.10392,0 1.83535,-0.68009 -1.90247,-4.8174 -6.38447,-7.066847 -12.06728,-19.576533 -14.04851,-30.925216 -0.95392,-5.464243 -2.37905,-11.61065 -3.16695,-13.658685 -0.80485,-2.09212 -1.10774,-6.221357 -0.69128,-9.424021 0.42804,-3.291702 0.0546,-8.045292 -0.88384,-11.25 -1.74323,-5.9531 -1.39684,-19.130467 0.4725,-17.975149 0.62118,0.383907 1.15135,-0.03831 1.17816,-0.938258 C 125.12786,9.6058063 135.79151,2.5 139.69745,2.5 c 1.9539,0 4.10961,-0.5570593 4.79046,-1.2379095 0.81721,-0.81721265 2.7076,-0.80940941 5.5625,0.022961 2.37853,0.6934788 8.57307,1.1787453 13.76565,1.0783698 10.68005,-0.2064513 17.43394,2.2637101 17.43394,6.37627 0,2.2063557 2.27192,8.3831157 5.19495,14.1236547 0.62686,1.231092 0.84666,2.712565 0.48845,3.292166 -0.35821,0.579602 0.17914,3.791096 1.19412,7.136654 1.01498,3.345559 1.8515,7.910959 1.85895,10.145334 0.0112,3.488045 0.45205,4.0625 3.11472,4.0625 2.28301,0 3.3126,0.84235 3.90253,3.192857 1.1815,4.707453 -0.20485,11.165973 -3.29357,15.343698 -2.67756,3.621605 -2.68701,3.794036 -0.6031,11.008839 2.77462,9.60616 4.70481,11.699668 9.99539,10.841126 3.34301,-0.542498 4.28682,-0.204618 4.90961,1.757625 0.69131,2.178125 9.91951,7.855855 12.76837,7.855855 1.80542,0 10.78133,5.06166 14.49038,8.17135 1.86769,1.56589 7.04039,4.05991 11.49487,5.54227 10.69427,3.55882 12.97529,5.53483 22.87755,19.81838 11.77259,16.98139 22.6583,31.18722 25.3349,33.06199 1.2506,0.87595 2.91922,4.11002 3.70805,7.18682 0.78883,3.0768 2.59273,8.37055 4.00867,11.76389 2.65198,6.35556 14.08467,23.92329 19.16883,29.4553 1.57962,1.71875 4.69024,6.78125 6.9125,11.25 2.22227,4.46875 5.08465,9.60464 6.36088,11.41309 2.21692,3.14145 4.45611,8.07589 16.80324,37.02869 12.164,28.52342 18.90935,40.31769 28.78801,50.33587 10.25956,10.40448 11.08709,13.03734 7.25967,23.09735 -1.04626,2.75 -2.22482,6.125 -2.61902,7.5 -0.78454,2.73644 -6.99981,9.0663 -9.45436,9.62866 -0.84678,0.194 -3.66513,-1.26904 -6.263,-3.25121 -2.59786,-1.98218 -6.53537,-4.50924 -8.75,-5.6157 -3.62793,-1.81258 -4.09678,-2.69243 -4.73548,-8.88675 -0.38989,-3.78125 -2.48885,-12.21875 -4.66436,-18.75 -2.1755,-6.53125 -4.32984,-13.84375 -4.7874,-16.25 -1.86618,-9.81383 -14.21501,-29.8157 -26.6247,-43.125 -7.07701,-7.59004 -11.90298,-14.28409 -15.77045,-21.875 -1.9265,-3.78125 -5.5069,-9.6875 -7.95644,-13.125 -5.16325,-7.2457 -34.89604,-37.5084 -35.88246,-36.52198 -0.3654,0.36542 -1.15138,3.66984 -1.7466,7.34318 -0.59523,3.67334 -1.69695,9.4913 -2.44828,12.9288 -0.75132,3.4375 -1.57175,11.38284 -1.82316,17.65629 -0.25141,6.27346 -1.14661,12.69465 -1.98934,14.2693 -1.0921,2.0406 -1.3003,6.66355 -0.72479,16.09371 3.26094,53.43409 2.53751,61.24065 -7.30763,78.8557 -0.96061,1.71875 -6.66076,14.09375 -12.667,27.5 -6.00624,13.40625 -12.7913,28.14082 -15.07794,32.74351 -2.35691,4.74414 -4.51141,11.3797 -4.97466,15.32121 -0.7582,6.45113 -0.57458,7.17752 2.54537,10.06899 1.84939,1.71396 3.76622,3.11629 4.25961,3.11629 0.49338,0 2.6948,3.27007 4.89202,7.26684 2.19724,3.99676 5.17255,8.33253 6.61183,9.63506 4.53655,4.10551 13.88751,20.29304 16.41495,28.41602 1.33602,4.2939 3.17633,8.94808 4.08958,10.34264 2.59311,3.95975 8.9342,20.5096 10.68423,27.88516 2.08146,8.77239 6.04185,19.2672 13.04907,34.57928 3.14619,6.875 5.72589,13.0625 5.73269,13.75 0.006,0.6875 2.24391,4.0625 4.97139,7.5 2.72747,3.4375 6.1977,8.71745 7.71161,11.73322 1.51852,3.02495 4.57158,6.55647 6.8099,7.87712 7.56719,4.46475 8.57066,17.02935 1.76207,22.06315 -5.92858,4.3832 -40.3645,22.34775 -45.63022,23.80441 -5.96947,1.65135 -6.64391,1.63947 -10.4361,-0.18368 z"
       id="path3430"
       inkscape:connector-curvature="0" />
  </g>
</svg>
