<?xml version="1.0" encoding="UTF-8" standalone="no"?>
<!-- Created with Inkscape (http://www.inkscape.org/) -->

<svg
   id="svg3406"
   version="1.1"
   inkscape:version="1.2.2 (b0a8486541, 2022-12-01)"
   width="625.05383"
   height="639.56604"
   viewBox="0 0 625.05383 639.56604"
   sodipodi:docname="silhouette-football-18.svg"
   xmlns:inkscape="http://www.inkscape.org/namespaces/inkscape"
   xmlns:sodipodi="http://sodipodi.sourceforge.net/DTD/sodipodi-0.dtd"
   xmlns="http://www.w3.org/2000/svg"
   xmlns:svg="http://www.w3.org/2000/svg"
   xmlns:rdf="http://www.w3.org/1999/02/22-rdf-syntax-ns#"
   xmlns:cc="http://creativecommons.org/ns#"
   xmlns:dc="http://purl.org/dc/elements/1.1/">
  <title
     id="title3340">Silhouette Football 18</title>
  <metadata
     id="metadata3412">
    <rdf:RDF>
      <cc:Work
         rdf:about="">
        <dc:format>image/svg+xml</dc:format>
        <dc:type
           rdf:resource="http://purl.org/dc/dcmitype/StillImage" />
        <dc:title>Silhouette Football 18</dc:title>
        <cc:license
           rdf:resource="http://creativecommons.org/publicdomain/zero/1.0/" />
        <dc:date>2017-03-18</dc:date>
        <dc:creator>
          <cc:Agent>
            <dc:title>JLouis</dc:title>
          </cc:Agent>
        </dc:creator>
        <dc:rights>
          <cc:Agent>
            <dc:title>Domaine pubic</dc:title>
          </cc:Agent>
        </dc:rights>
        <dc:publisher>
          <cc:Agent>
            <dc:title>inkscape</dc:title>
          </cc:Agent>
        </dc:publisher>
        <dc:subject>
          <rdf:Bag>
            <rdf:li>silhouette</rdf:li>
            <rdf:li>soccer</rdf:li>
            <rdf:li>player</rdf:li>
            <rdf:li>sport</rdf:li>
            <rdf:li>football</rdf:li>
            <rdf:li>joueurs</rdf:li>
          </rdf:Bag>
        </dc:subject>
        <dc:description>Soccer player in silhouette - Joueur de football en silhouette</dc:description>
      </cc:Work>
      <cc:License
         rdf:about="http://creativecommons.org/publicdomain/zero/1.0/">
        <cc:permits
           rdf:resource="http://creativecommons.org/ns#Reproduction" />
        <cc:permits
           rdf:resource="http://creativecommons.org/ns#Distribution" />
        <cc:permits
           rdf:resource="http://creativecommons.org/ns#DerivativeWorks" />
      </cc:License>
    </rdf:RDF>
  </metadata>
  <defs
     id="defs3410" />
  <sodipodi:namedview
     pagecolor="#ffffff"
     bordercolor="#666666"
     borderopacity="1"
     objecttolerance="10"
     gridtolerance="10"
     guidetolerance="10"
     inkscape:pageopacity="0"
     inkscape:pageshadow="2"
     inkscape:window-width="1916"
     inkscape:window-height="1026"
     id="namedview3408"
     showgrid="false"
     fit-margin-top="0"
     fit-margin-left="0"
     fit-margin-right="0"
     fit-margin-bottom="0"
     inkscape:zoom="0.8828125"
     inkscape:cx="90.053097"
     inkscape:cy="327.36283"
     inkscape:window-x="0"
     inkscape:window-y="0"
     inkscape:window-maximized="1"
     inkscape:current-layer="svg3406"
     inkscape:showpageshadow="2"
     inkscape:pagecheckerboard="0"
     inkscape:deskcolor="#d1d1d1" />
  <g
     id="g3416">
    <path
       style="fill:#ffffff"
       d="m 292.2669,639.37365 c -0.21554,-0.20268 -4.8919,-0.72383 -10.3919,-1.15811 -5.5,-0.43428 -12.12235,-1.36062 -14.71634,-2.05852 -2.59398,-0.69791 -5.2081,-0.965 -5.80912,-0.59354 -0.60103,0.37146 -2.91145,0.31163 -5.13428,-0.13293 l -4.0415,-0.8083 0.74962,-8.02745 c 0.85025,-9.10514 -0.76284,-10.10356 -4.47592,-2.77036 -1.19763,2.36531 -3.10115,4.9802 -4.23003,5.81087 -3.66063,2.69363 -19.67598,7.09281 -26.09243,7.16722 -6.17277,0.0716 -6.25489,0.0215 -6.64597,-4.04739 -0.29757,-3.09598 0.78037,-5.89184 4.33745,-11.25 2.60338,-3.92158 7.60043,-13.69839 11.10456,-21.72624 3.50412,-8.02785 7.03206,-15.39246 7.83985,-16.3658 2.58009,-3.1088 2.25635,-19.36615 -0.62801,-31.5381 -7.38424,-31.16121 -9.51133,-42.60549 -10.68723,-57.5 -1.48154,-18.7659 -1.37282,-29.56803 0.39918,-39.66639 2.00973,-11.45307 1.84333,-42.9982 -0.24004,-45.50887 -2.33456,-2.81335 -1.75166,-42.16615 0.90145,-60.8589 1.35,-9.5116 1.55467,-14.58481 0.68862,-17.06915 -0.8071,-2.31527 -0.80962,-5.40887 -0.007,-8.96584 0.67375,-2.98696 0.96023,-6.827 0.63662,-8.5334 -0.32362,-1.70641 0.26177,-4.7466 1.30087,-6.75599 1.12955,-2.18431 1.62191,-5.30091 1.22441,-7.75042 -0.38183,-2.353 0.89214,-11.17535 2.99284,-20.72559 2.34598,-10.66524 3.66068,-20.22143 3.66599,-26.64703 0.005,-5.51013 1.12655,-16.48717 2.49332,-24.39342 2.93118,-16.95583 2.47233,-36.23481 -1.21977,-51.25 -1.26788,-5.15625 -2.97883,-13.15289 -3.80211,-17.7703 -0.82329,-4.61743 -2.29547,-9.05808 -3.2715,-9.86811 -2.64925,-2.19869 -19.84628,-0.43297 -25.74922,2.64381 -2.6323,1.37202 -5.3217,2.4946 -5.97645,2.4946 -0.65475,0 -2.61565,-2.8125 -4.35756,-6.25 -1.83406,-3.61935 -4.07897,-6.3231 -5.33356,-6.42368 -1.19154,-0.0955 -13.43821,-0.32898 -27.21484,-0.51881 -24.24736,-0.3341 -33.59241,-1.1244 -36.2016,-3.06151 -0.6875,-0.51043 -7.36119,-2.14339 -14.83043,-3.62883 -7.46923,-1.48543 -15.062985,-3.4633 -16.874999,-4.39523 -1.812015,-0.93194 -7.09803,-2.8656 -11.746702,-4.29704 -8.959029,-2.75875 -13.584153,-4.84245 -14.773503,-6.65582 -1.458025,-2.22301 -35.047877,-1.15677 -39.50449,1.25398 C 21.971986,122.3007 20,121.62611 20,117.5 c 0,-2.55196 -0.618295,-3.75 -1.935342,-3.75 -1.064439,0 -2.643272,-1.68367 -3.508518,-3.74148 -1.166116,-2.77338 -1.937355,-3.3773 -2.980636,-2.33402 -2.2912297,2.29123 -5.3294862,0.23688 -5.2839174,-3.57277 C 6.3473529,99.439515 10.198149,95.088911 15.58566,93.601349 22.6515,91.650375 21.696855,90.37489 7.5,82.798237 -3.3220339,77.022678 -1.9199709,71.969791 9.4314216,75.8376 c 4.8140164,1.6403 6.2860464,1.700872 8.7884324,0.361636 2.516196,-1.346627 3.364185,-1.301481 5.205501,0.277134 C 26.17512,78.833825 35.491116,82.5 38.7318,82.5 c 1.337165,0 4.278908,1.584338 6.537205,3.520749 6.321632,5.420582 12.366872,8.594531 17.855995,9.374981 5.292885,0.75255 23.287305,3.795002 33.75,5.70637 3.4375,0.62797 14.17712,1.20397 23.86583,1.27998 14.17804,0.11124 19.54474,0.6851 27.49999,2.94057 8.00938,2.27081 12.72934,2.768 24.88418,2.62123 l 15,-0.18111 16.303,-6.90377 c 17.64285,-7.47115 28.14297,-9.787425 47.447,-10.466564 11.02528,-0.387883 21.59005,-1.832729 25.9375,-3.547226 C 279.29652,86.259956 280,84.618589 280,81.741264 280,78.068485 279.58766,77.5 276.9237,77.5 c -1.69198,0 -4.16593,-1.169557 -5.49766,-2.599016 -2.35819,-2.531223 -3.0564,-4.619058 -4.56513,-13.650984 -0.40194,-2.40625 -1.31882,-6.692036 -2.03752,-9.523969 -1.06126,-4.181797 -0.9201,-5.896606 0.75153,-9.129195 1.44682,-2.797825 1.82744,-5.538591 1.28129,-9.226031 -0.61092,-4.124791 -0.0835,-6.755213 2.46819,-12.30911 1.78484,-3.884818 4.11436,-7.784689 5.17674,-8.666378 1.06237,-0.88169 2.99151,-3.680702 4.28697,-6.2200265 1.29546,-2.5393245 3.26911,-4.9675794 4.38588,-5.39612208 C 284.29075,0.35062579 289.91861,0 295.68034,0 c 14.8845,0 22.50184,3.0378389 29.11667,11.611884 6.18142,8.012267 7.10498,10.384657 9.56715,24.575662 2.21937,12.79148 1.4971,16.79592 -5.92163,32.831474 -5.00247,10.812783 -4.10242,13.369091 6.04366,17.165224 3.9322,1.471225 10.14162,4.090477 13.79872,5.820562 3.6571,1.730084 7.64845,3.128436 8.86968,3.10745 1.22122,-0.02099 5.31416,-0.09814 9.09541,-0.171455 9.92534,-0.192438 25.77296,5.804259 44.72105,16.922329 2.94033,1.72528 6.55229,3.13687 8.02658,3.13687 1.47428,0 3.56856,0.73761 4.65395,1.63913 2.16279,1.79641 15.20693,5.25793 26.97342,7.15793 5.02954,0.81214 10.58809,0.77086 16.875,-0.12534 6.39009,-0.9109 15.14583,-0.95835 27.5,-0.14903 11.28404,0.73922 25.17906,0.74996 36.81462,0.0285 21.13297,-1.3104 23.46419,-2.18255 31.25824,-11.69416 2.52699,-3.08384 5.57661,-5.60699 6.77696,-5.60699 2.58643,0 7.83317,-5.47223 9.88757,-10.3125 1.75187,-4.1275 3.4271,-4.367177 5.35436,-0.766059 1.9577,3.657998 0.58464,10.822449 -2.75551,14.377879 -1.51952,1.61745 -2.37117,3.33243 -1.89254,3.81105 1.20538,1.20537 10.74299,-1.165 22.98407,-5.7122 10.28954,-3.82225 13.2957,-3.97473 14.53798,-0.73742 0.4501,1.17292 -2.75721,3.42111 -10.11596,7.09085 -5.92626,2.95537 -11.00099,6.05708 -11.27718,6.8927 -0.36851,1.11498 3.06234,1.61396 12.892,1.875 11.00085,0.29214 13.6334,0.73586 14.73307,2.48325 0.73639,1.17015 1.06101,2.40542 0.72137,2.74506 -0.33964,0.33964 -7.06974,1.32139 -14.95579,2.18168 -14.40347,1.57126 -15.38272,3.16943 -2.11154,3.44611 4.19024,0.0874 6.20144,0.71017 6.72849,2.08362 1.35386,3.52813 -1.64672,4.52925 -13.5117,4.50808 -10.90241,-0.0195 -11.43981,0.0955 -7.94351,1.69964 2.0625,0.94627 4.77135,1.74587 6.01967,1.77688 3.32025,0.0825 7.10533,2.38892 7.10533,4.32964 0,2.77745 -5.45171,2.96628 -14.54688,0.50383 -5.20712,-1.40979 -10.50019,-2.04934 -13.46918,-1.62745 -2.69008,0.38225 -9.00622,0.004 -14.03585,-0.84159 -8.27037,-1.38968 -10.25298,-1.27788 -20.73395,1.16914 -6.37403,1.48815 -15.80789,3.6033 -20.96414,4.70032 -5.15625,1.09701 -13.03125,2.85527 -17.5,3.90722 -4.46875,1.05195 -16.33756,2.21695 -26.37514,2.58888 -15.59455,0.57786 -19.09925,0.35199 -24.08551,-1.55228 -4.50562,-1.72072 -7.75281,-2.05059 -14.24985,-1.44763 -8.07524,0.74944 -8.6161,1.01279 -13.4145,6.53161 -4.50891,5.18588 -5.36831,5.6595 -8.75,4.82213 -2.0625,-0.51073 -6.7536,-2.54628 -10.42465,-4.52344 -8.32629,-4.48441 -21.99174,-9.04339 -24.37084,-8.13045 -2.78522,1.0688 -9.485,14.225 -12.8152,25.16496 -1.99377,6.54971 -3.44831,15.6688 -4.28669,26.875 -0.69792,9.32882 -1.88087,20.33649 -2.62877,24.46149 -1.66108,9.16147 -0.37042,60.81997 1.64924,66.01087 1.24352,3.19609 0.95513,3.93162 -3.21648,8.20374 -2.52035,2.58108 -4.23747,5.03786 -3.81581,5.45951 0.42165,0.42167 0.16491,5.72998 -0.57055,11.79627 -1.38091,11.39029 -2.98854,27.54427 -5.32722,53.52961 -0.7425,8.25 -1.70844,25.96875 -2.14652,39.375 l -0.79651,24.375 -6.84791,0.625 -6.84792,0.625 -3.42042,13.125 c -2.38826,9.16435 -3.37978,15.95404 -3.28573,22.5 0.15114,10.5186 -2.66327,30.87637 -6.22112,45 -2.70071,10.72103 -23.86196,60.68867 -28.78616,67.97219 -2.52867,3.74021 -3.37783,6.73762 -3.71829,13.125 -0.40451,7.58917 -0.0396,9.05772 4.3856,17.65281 3.88556,7.54681 5.74287,9.80831 9.52437,11.59705 4.42233,2.09186 6.97144,5.19076 5.48915,6.67304 -0.7069,0.7069 -16.72013,1.72369 -17.37967,1.10356 z M 270.07055,562.4625 c 1.89716,-10.93699 2.47935,-18.04564 1.95136,-23.82664 -0.86286,-9.44752 1.33307,-19.35521 8.56319,-38.63586 6.95186,-18.53864 8.13429,-26.056 7.32306,-46.55702 l -0.70506,-17.81798 -6.95,-7.13706 -6.95001,-7.13705 5.93418,-11.64187 c 4.93636,-9.68428 5.86723,-12.58283 5.53596,-17.23793 l -0.39823,-5.59609 -1.67656,5 c -0.92211,2.75 -3.19484,8.09375 -5.0505,11.875 -1.85567,3.78125 -4.03103,9.125 -4.83414,11.875 -9.25114,31.67735 -10.88715,40.71805 -7.92836,43.8125 1.98806,2.0792 6.56351,27.93429 6.70106,37.86649 0.0784,5.66206 -0.71175,12.39801 -1.93469,16.4929 -4.73264,15.84677 -6.96341,68.93137 -2.7183,64.68627 0.23824,-0.23825 1.6499,-7.44755 3.13704,-16.02066 z"
       id="path3430"
       inkscape:connector-curvature="0" />
  </g>
</svg>
