<?xml version="1.0" encoding="UTF-8" standalone="no"?>
<!-- Created with Inkscape (http://www.inkscape.org/) -->

<svg
   id="svg3406"
   version="1.1"
   inkscape:version="1.2.2 (b0a8486541, 2022-12-01)"
   width="395.5314"
   height="614.52728"
   viewBox="0 0 395.5314 614.52728"
   sodipodi:docname="silhouette-football-16.svg"
   xmlns:inkscape="http://www.inkscape.org/namespaces/inkscape"
   xmlns:sodipodi="http://sodipodi.sourceforge.net/DTD/sodipodi-0.dtd"
   xmlns="http://www.w3.org/2000/svg"
   xmlns:svg="http://www.w3.org/2000/svg"
   xmlns:rdf="http://www.w3.org/1999/02/22-rdf-syntax-ns#"
   xmlns:cc="http://creativecommons.org/ns#"
   xmlns:dc="http://purl.org/dc/elements/1.1/">
  <title
     id="title3341">Silhouette Football 16</title>
  <metadata
     id="metadata3412">
    <rdf:RDF>
      <cc:Work
         rdf:about="">
        <dc:format>image/svg+xml</dc:format>
        <dc:type
           rdf:resource="http://purl.org/dc/dcmitype/StillImage" />
        <dc:title>Silhouette Football 16</dc:title>
        <cc:license
           rdf:resource="http://creativecommons.org/publicdomain/zero/1.0/" />
        <dc:date>2017-03-18</dc:date>
        <dc:creator>
          <cc:Agent>
            <dc:title>JLouis</dc:title>
          </cc:Agent>
        </dc:creator>
        <dc:rights>
          <cc:Agent>
            <dc:title>Domaine pubic</dc:title>
          </cc:Agent>
        </dc:rights>
        <dc:publisher>
          <cc:Agent>
            <dc:title>inkscape</dc:title>
          </cc:Agent>
        </dc:publisher>
        <dc:subject>
          <rdf:Bag>
            <rdf:li>silhouette</rdf:li>
            <rdf:li>soccer</rdf:li>
            <rdf:li>player</rdf:li>
            <rdf:li>sport</rdf:li>
            <rdf:li>football</rdf:li>
            <rdf:li>joueurs</rdf:li>
          </rdf:Bag>
        </dc:subject>
        <dc:description>Soccer player in silhouette - Joueur de football en silhouette</dc:description>
      </cc:Work>
      <cc:License
         rdf:about="http://creativecommons.org/publicdomain/zero/1.0/">
        <cc:permits
           rdf:resource="http://creativecommons.org/ns#Reproduction" />
        <cc:permits
           rdf:resource="http://creativecommons.org/ns#Distribution" />
        <cc:permits
           rdf:resource="http://creativecommons.org/ns#DerivativeWorks" />
      </cc:License>
    </rdf:RDF>
  </metadata>
  <defs
     id="defs3410" />
  <sodipodi:namedview
     pagecolor="#ffffff"
     bordercolor="#666666"
     borderopacity="1"
     objecttolerance="10"
     gridtolerance="10"
     guidetolerance="10"
     inkscape:pageopacity="0"
     inkscape:pageshadow="2"
     inkscape:window-width="1916"
     inkscape:window-height="1026"
     id="namedview3408"
     showgrid="false"
     fit-margin-top="0"
     fit-margin-left="0"
     fit-margin-right="0"
     fit-margin-bottom="0"
     inkscape:zoom="0.8828125"
     inkscape:cx="-26.619469"
     inkscape:cy="302.44248"
     inkscape:window-x="0"
     inkscape:window-y="0"
     inkscape:window-maximized="1"
     inkscape:current-layer="svg3406"
     inkscape:showpageshadow="2"
     inkscape:pagecheckerboard="0"
     inkscape:deskcolor="#d1d1d1" />
  <g
     id="g3418"
     transform="translate(-18.060631,-25.472735)">
    <path
       style="display:inline;fill:#ffffff"
       d="m 227.72102,635.47103 c -2.49093,-2.49094 -5.66906,-5.28212 -7.0625,-6.20262 -1.39343,-0.9205 -3.8554,-4.36684 -5.47102,-7.65852 -1.61561,-3.29169 -3.4279,-6.82864 -4.0273,-7.85989 -0.59939,-1.03125 -2.46205,-4.49384 -4.13923,-7.69464 -1.67717,-3.20081 -5.63016,-9.10706 -8.78441,-13.125 -3.74371,-4.76884 -5.73526,-8.53509 -5.73577,-10.84702 -5.2e-4,-2.29116 -0.55249,-3.34877 -1.56329,-2.99533 -0.85938,0.30049 -1.40396,1.44299 -1.2102,2.53889 0.19377,1.09589 -0.7906,2.6042 -2.1875,3.3518 -1.44335,0.77245 -2.5398,2.62329 -2.5398,4.28723 0,3.61007 -2.72158,6.05026 -5.54119,4.96827 -1.34609,-0.51655 -3.32359,0.33323 -5.47094,2.35099 -6.27583,5.89709 -11.77078,8.40521 -18.42537,8.41014 -3.47188,0.003 -6.9875,-0.67033 -7.8125,-1.49533 -2.2892,-2.2892 -1.78806,-13.92664 0.89259,-20.7275 1.31592,-3.33852 3.08218,-9.68747 3.92502,-14.10877 0.84285,-4.4213 2.29744,-8.92677 3.23241,-10.01215 2.02373,-2.34927 2.25105,-8.16345 0.36477,-9.32924 -0.73438,-0.45388 -1.06034,-1.54156 -0.72435,-2.4171 0.64673,-1.68538 -5.38227,-7.92193 -13.36159,-13.82159 -6.12355,-4.52755 -17.90282,-19.02917 -23.31926,-28.70865 -2.30826,-4.125 -5.45706,-9.0334 -6.99732,-10.90756 -1.54026,-1.87415 -3.19713,-5.24915 -3.68192,-7.5 -0.4848,-2.25084 -1.70481,-5.70296 -2.71115,-7.67139 -1.00633,-1.96842 -2.63037,-6.65294 -3.60897,-10.41002 -0.97859,-3.75709 -3.236266,-10.02157 -5.01705,-13.92105 C 90.775172,440.89647 90,439.00446 90,437.50646 c 0,-0.81989 -1.616934,-6.92237 -3.593188,-13.56108 -8.87534,-29.81439 -12.500901,-47.85977 -15.208271,-75.69553 -0.971631,-9.98981 -0.944009,-15.32604 0.103525,-20 0.785808,-3.50617 1.888107,-14.71147 2.449554,-24.9007 0.821756,-14.91336 1.447865,-18.99774 3.210866,-20.94582 1.749784,-1.93349 2.153903,-4.48384 2.010223,-12.68629 -0.14296,-8.16125 0.363443,-11.38856 2.469721,-15.73955 2.224458,-4.59511 2.531522,-6.88115 1.913879,-14.24839 -0.404621,-4.82632 -1.041692,-9.08115 -1.415712,-9.45516 -0.37402,-0.37403 -2.050856,-0.0555 -3.726302,0.70793 -3.381468,1.54071 -12.030253,-0.93948 -23.442609,-6.72256 -4.664792,-2.36384 -6.619016,-2.77759 -8.461514,-1.79151 -7.242023,3.87581 -22.093427,-1.62429 -26.101091,-9.66634 -3.369206,-6.76087 -2.386636,-20.57945 1.865723,-26.23896 1.678831,-2.23438 3.802851,-4.0625 4.720043,-4.0625 3.266644,0 6.298392,-6.60051 6.363768,-13.85476 0.06035,-6.69669 0.358069,-7.31388 7.340935,-15.21834 4.002916,-4.53121 8.762449,-8.86396 10.576739,-9.62831 1.842687,-0.77632 5.229792,-4.53263 7.673707,-8.51018 5.715606,-9.30233 17.776546,-22.67886 23.634505,-26.2125 3.302447,-1.99211 7.141305,-2.9283 13.315368,-3.24724 4.771321,-0.24649 10.853201,-1.37752 13.515281,-2.51341 2.66209,-1.13589 6.17772,-2.06526 7.8125,-2.06526 1.6348,0 2.97235,-0.5625 2.97235,-1.25 0,-0.6875 1.125,-1.25 2.5,-1.25 3.08825,0 3.12534,0.475071 -0.625,-8.005104 -3.30744,-7.478716 -3.91576,-11.95414 -1.89897,-13.970925 0.80137,-0.801372 0.29439,-3.954509 -1.46371,-9.103436 -2.19825,-6.437996 -2.44318,-8.600831 -1.34041,-11.83647 0.74213,-2.177486 1.70904,-6.581118 2.1487,-9.785849 0.45828,-3.340502 1.57383,-6.123972 2.61438,-6.523269 C 122.93325,39.14188 123.75,37.717704 123.75,36.360111 123.75,33.249461 128.2823,30 132.62097,30 c 1.82309,0 5.77605,-0.87443 8.78437,-1.943179 3.20506,-1.138643 7.14441,-1.634091 9.51465,-1.196645 2.22473,0.410594 5.24532,0.104125 6.71242,-0.681043 2.19096,-1.172564 3.30151,-0.958803 6.2169,1.196645 C 165.80151,28.8191 168.86477,30 170.65656,30 c 6.59886,0 13.55303,5.974485 15.03673,12.918411 0.46496,2.176124 1.2696,4.519089 1.78806,5.206589 2.33399,3.094914 2.5988,10.988579 0.57323,17.087014 -1.64674,4.957897 -1.78404,6.865725 -0.64695,8.99039 1.12971,2.110883 1.02493,3.882982 -0.48213,8.154449 -1.05903,3.001604 -1.9255,6.792992 -1.9255,8.425306 0,1.632312 -1.15816,4.126006 -2.5737,5.541542 -1.75055,1.75055 -2.45019,3.825699 -2.1875,6.488259 0.34854,3.53282 0.96922,4.06257 6.36466,5.43224 3.28815,0.83472 6.67063,2.09213 7.51662,2.79423 0.84599,0.70211 4.34318,1.96436 7.77155,2.805 8.22645,2.01714 17.10148,6.5001 25.91177,13.08857 3.94813,2.95246 9.29188,6.05724 11.875,6.89951 2.58312,0.84226 7.89884,4.12161 11.81269,7.28744 16.99866,13.74985 31.24131,21.7916 42.31385,23.89147 5.98755,1.13552 48.0451,22.33037 54.70312,27.56757 1.6935,1.33211 3.77111,2.42201 4.61694,2.42201 0.84583,0 2.87934,1.02959 4.51893,2.28799 1.63958,1.25838 5.67556,3.02531 8.96881,3.92651 3.29325,0.90119 8.01122,3.2466 10.48437,5.21201 2.47317,1.96543 5.52523,3.57349 6.78237,3.57349 2.06983,0 8.25271,2.28929 13.91606,5.1526 1.1938,0.60357 3.19711,1.0974 4.4518,1.0974 3.12671,0 8.07979,4.84454 7.22651,7.06815 -0.38261,0.99706 0.20021,3.18011 1.29516,4.85121 1.88837,2.88201 1.82799,3.18341 -1.17332,5.85675 l -3.16415,2.81838 3.87011,3.23091 c 6.13459,5.12137 3.86783,6.6714 -8.28994,5.66871 -15.27731,-1.25996 -18.53979,-2.47851 -24.04222,-8.97995 -14.09168,-16.65005 -20.4155,-20.12091 -51.09449,-28.04347 -8.25,-2.13049 -18.375,-5.20645 -22.5,-6.83549 -4.125,-1.62904 -9.1875,-3.32195 -11.25,-3.76204 -2.0625,-0.44007 -6.28125,-2.40764 -9.375,-4.37234 C 276.55434,189.18116 265.89385,185 261.43851,185 c -1.90791,0 -5.90958,1.17919 -8.8926,2.62042 -4.45,2.15002 -6.68008,2.46499 -12.42229,1.75454 -3.84924,-0.47624 -7.7671,-1.49729 -8.70633,-2.269 -2.27162,-1.86642 -10.14297,-4.56361 -13.3869,-4.58714 -4.56129,-0.0331 -7.64991,4.92397 -9.30391,14.93223 -1.65787,10.03159 -4.7798,18.44049 -8.69363,23.4161 -2.24971,2.86005 -2.43885,5.12212 -2.36696,28.30815 0.043,13.85984 0.54849,25.77496 1.12337,26.47807 1.07718,1.31743 1.52368,10.24609 1.35923,27.1805 -0.1335,13.74614 -6.11262,39.10665 -11.061,46.91542 -1.82755,2.88393 -10.82955,13.87263 -20.68552,25.25071 -1.48882,1.71875 -3.63365,5.09375 -4.76628,7.5 -1.13263,2.40625 -3.83297,6.57771 -6.00075,9.26992 -5.00305,6.21338 -5.5762,8.65629 -4.87457,20.77674 0.37379,6.45696 0.10275,10.04954 -0.78158,10.36113 -0.86188,0.30365 -0.63509,1.33817 0.62415,2.84709 2.57746,3.08852 6.37538,11.39331 7.33357,16.03606 0.7522,3.64467 0.81075,3.66668 10.09754,3.79751 5.13752,0.0724 11.59095,0.8918 14.34095,1.82095 10.33195,3.49086 11.875,4.17205 11.875,5.24225 0,0.60409 0.79649,1.09835 1.76996,1.09835 2.9394,0 9.1507,9.03475 12.08665,17.58082 1.51994,4.4243 3.30726,8.3985 3.97184,8.83157 0.7403,0.48241 0.85517,4.77691 0.29659,11.08725 -0.74295,8.39295 -1.58438,11.2965 -4.5448,15.68301 -3.81228,5.64874 -15.48048,16.81735 -17.5696,16.81735 -2.29015,0 -0.21913,3.0139 3.45055,5.02147 2.0151,1.10239 4.21907,3.23605 4.89772,4.74144 0.67865,1.5054 1.66303,2.73709 2.1875,2.73709 0.52448,0 0.95359,1.03782 0.95359,2.30626 0,2.78778 3.77919,6.44374 6.66093,6.44374 3.02385,0 11.90012,9.33433 12.74786,13.4057 0.3973,1.90811 1.50495,6.45891 2.46145,10.11289 0.95648,3.65397 1.44537,7.40893 1.08642,8.34436 -0.68287,1.77953 4.81618,11.06009 12.58108,21.23265 6.08232,7.96829 7.90216,12.67727 8.28943,21.44969 0.46064,10.43394 -1.53513,14.30199 -9.74771,18.89221 -4.12377,2.30489 -5.13336,2.0086 -10.10843,-2.96647 z M 69.577635,192.89672 c 5.608208,-1.76783 6.672365,-2.57837 6.672365,-5.08217 0,-1.6384 0.608074,-4.1151 1.351275,-5.50379 2.438556,-4.55647 0.363741,-3.71522 -6.143261,2.49085 -3.521758,3.35888 -7.681154,6.9981 -9.243104,8.08716 -3.794446,2.64564 -1.014514,2.64864 7.362725,0.007 z"
       id="path3432"
       inkscape:connector-curvature="0" />
  </g>
</svg>
