<?xml version="1.0" encoding="UTF-8" standalone="no"?>
<!-- Created with Inkscape (http://www.inkscape.org/) -->

<svg
   id="svg3406"
   version="1.1"
   inkscape:version="1.2.2 (b0a8486541, 2022-12-01)"
   width="294.61301"
   height="511.99994"
   viewBox="0 0 294.61301 511.99994"
   sodipodi:docname="silhouette-football-25.svg"
   xmlns:inkscape="http://www.inkscape.org/namespaces/inkscape"
   xmlns:sodipodi="http://sodipodi.sourceforge.net/DTD/sodipodi-0.dtd"
   xmlns="http://www.w3.org/2000/svg"
   xmlns:svg="http://www.w3.org/2000/svg"
   xmlns:rdf="http://www.w3.org/1999/02/22-rdf-syntax-ns#"
   xmlns:cc="http://creativecommons.org/ns#"
   xmlns:dc="http://purl.org/dc/elements/1.1/">
  <title
     id="title3340">Silhouette Football 25</title>
  <metadata
     id="metadata3412">
    <rdf:RDF>
      <cc:Work
         rdf:about="">
        <dc:format>image/svg+xml</dc:format>
        <dc:type
           rdf:resource="http://purl.org/dc/dcmitype/StillImage" />
        <dc:title>Silhouette Football 25</dc:title>
        <cc:license
           rdf:resource="http://creativecommons.org/publicdomain/zero/1.0/" />
        <dc:date>2017-03-21</dc:date>
        <dc:creator>
          <cc:Agent>
            <dc:title>JLouis</dc:title>
          </cc:Agent>
        </dc:creator>
        <dc:rights>
          <cc:Agent>
            <dc:title>Domaine pubic</dc:title>
          </cc:Agent>
        </dc:rights>
        <dc:publisher>
          <cc:Agent>
            <dc:title>inkscape</dc:title>
          </cc:Agent>
        </dc:publisher>
        <dc:subject>
          <rdf:Bag>
            <rdf:li>silhouette</rdf:li>
            <rdf:li>soccer</rdf:li>
            <rdf:li>player</rdf:li>
            <rdf:li>sport</rdf:li>
            <rdf:li>football</rdf:li>
            <rdf:li>joueurs</rdf:li>
          </rdf:Bag>
        </dc:subject>
        <dc:description>Soccer player in silhouette - Joueur de football en silhouette</dc:description>
      </cc:Work>
      <cc:License
         rdf:about="http://creativecommons.org/publicdomain/zero/1.0/">
        <cc:permits
           rdf:resource="http://creativecommons.org/ns#Reproduction" />
        <cc:permits
           rdf:resource="http://creativecommons.org/ns#Distribution" />
        <cc:permits
           rdf:resource="http://creativecommons.org/ns#DerivativeWorks" />
      </cc:License>
    </rdf:RDF>
  </metadata>
  <defs
     id="defs3410" />
  <sodipodi:namedview
     pagecolor="#ffffff"
     bordercolor="#666666"
     borderopacity="1"
     objecttolerance="10"
     gridtolerance="10"
     guidetolerance="10"
     inkscape:pageopacity="0"
     inkscape:pageshadow="2"
     inkscape:window-width="1916"
     inkscape:window-height="1026"
     id="namedview3408"
     showgrid="false"
     fit-margin-top="0"
     fit-margin-left="0"
     fit-margin-right="0"
     fit-margin-bottom="0"
     inkscape:zoom="0.8828125"
     inkscape:cx="-275.82301"
     inkscape:cy="254.86726"
     inkscape:window-x="0"
     inkscape:window-y="0"
     inkscape:window-maximized="1"
     inkscape:current-layer="svg3406"
     inkscape:showpageshadow="2"
     inkscape:pagecheckerboard="0"
     inkscape:deskcolor="#d1d1d1" />
  <path
     style="fill:#ffffff;stroke-width:0.80108"
     d="m 114.84984,511.12979 c -2.55852,-1.57314 -2.20433,-6.95901 0.90241,-13.72299 4.54821,-9.90229 4.01858,-8.21586 8.41909,-26.80829 1.17977,-4.98453 1.90503,-11.76525 1.91985,-17.94918 l 0.0238,-9.93838 -11.03779,-18.80306 c -6.07079,-10.34168 -12.31541,-21.94253 -13.87695,-25.77967 -1.561518,-3.83711 -3.691581,-8.08482 -4.733458,-9.43932 -1.041877,-1.3545 -4.034704,-5.18654 -6.650735,-8.51564 -2.616022,-3.3291 -4.756412,-6.72633 -4.756412,-7.5494 0,-0.82307 -1.577126,-4.78739 -3.504725,-8.80961 -3.084089,-6.43542 -3.504725,-8.25391 -3.504725,-15.15158 0,-9.01717 0.347818,-9.86258 9.981489,-24.26126 3.684832,-5.50743 8.133557,-12.31401 9.886064,-15.12574 1.752507,-2.81174 4.082452,-5.92317 5.177642,-6.91431 1.09518,-0.99114 1.99125,-2.40684 1.99125,-3.14602 0,-0.73916 1.50684,-3.03501 3.34853,-5.10188 5.51218,-6.18614 5.74866,-7.05992 3.44771,-12.73949 -2.35749,-5.81913 -3.45208,-12.23283 -4.9906,-29.2423 -0.96241,-10.64013 -1.34561,-12.25232 -3.0161,-12.68916 -1.57498,-0.41187 -1.80265,-1.09197 -1.28649,-3.84328 0.34491,-1.83857 0.17615,-4.52897 -0.375,-5.97866 -0.72937,-1.91836 -0.59581,-3.95973 0.49067,-7.49971 1.1531,-3.75702 1.33945,-7.48449 0.81885,-16.37943 -0.37069,-6.33353 -1.03842,-11.97185 -1.48385,-12.52957 -0.44544,-0.55772 -0.95611,-2.77593 -1.13484,-4.92934 -0.17872,-2.15341 -0.77556,-4.03628 -1.3263,-4.18416 -0.550743,-0.14787 -2.353173,1.83499 -4.0054,4.40636 -3.710226,5.77423 -9.057163,9.56124 -12.525342,8.87116 -5.974872,-1.18882 -24.623755,-12.36104 -33.066593,-19.80962 -13.243398,-11.68378 -17.621128,-14.71914 -23.816244,-16.51332 -7.893028,-2.28591 -12.034954,-6.71332 -12.034954,-12.86442 0,-2.48366 0.434938,-4.78454 0.966528,-5.11308 1.191168,-0.73619 -0.851912,-3.42311 -2.602858,-3.42311 -1.957838,0 -4.8378721,-3.78404 -4.1816271,-5.49419 0.3299577,-0.85985 1.5815571,-1.9265 2.7813321,-2.37033 2.105502,-0.77887 2.062719,-0.89588 -1.2294919,-3.36245 -1.8759948,-1.40553 -4.8753745,-3.29617 -6.6652876,-4.20146 -3.48671901,-1.76345 -4.2415585,-4.00549 -1.6795512,-4.98862 2.0473446,-0.78564 10.1565797,2.73033 16.1887807,7.01906 2.618194,1.86147 5.675399,3.38449 6.793787,3.38449 1.118388,0 2.922259,0.60868 4.008603,1.35263 1.086342,0.74395 3.101687,1.63251 4.478543,1.97459 1.809588,0.44959 3.572568,2.59474 6.361321,7.74034 2.121871,3.91509 5.501427,8.66489 7.510125,10.55508 5.404521,5.08566 14.745134,10.55446 19.002083,11.12544 3.653548,0.49003 3.787181,0.39146 5.907157,-4.35749 1.257961,-2.81795 2.43434,-8.08575 2.800645,-12.54122 0.34738,-4.2253 1.193273,-10.40793 1.87976,-13.73917 0.736381,-3.57336 0.970398,-8.22194 0.570736,-11.33727 -0.785979,-6.12667 -0.10938,-8.91333 4.310908,-17.75497 2.842079,-5.684844 4.181125,-7.102868 11.23135,-11.893895 7.076676,-4.808987 20.4528,-11.19156 23.45444,-11.19156 1.85901,0 1.18997,-1.481044 -1.13669,-2.516264 -1.42582,-0.6344 -2.69122,-2.602512 -3.53274,-5.494536 -1.50815,-5.182964 -1.83425,-24.345054 -0.47628,-27.986194 0.56587,-1.517251 0.53746,-3.679927 -0.0745,-5.673917 -0.75065,-2.445834 -0.6042,-4.183608 0.60782,-7.212759 1.58986,-3.973442 3.35753,-13.810416 2.81914,-15.688323 -0.15552,-0.542447 0.007,-2.921345 0.3621,-5.2864408 0.59431,-3.9631079 1.05177,-4.5038369 5.83618,-6.8984308 7.64035,-3.8239884 18.904,-3.7450766 28.38791,0.1988825 8.51673,3.5417543 8.98251,4.0072759 14.9832,14.9749571 2.27872,4.164877 2.81324,6.570774 3.17893,14.30824 0.50032,10.586219 -0.70223,14.951489 -6.40118,23.236309 -2.94703,4.284224 -3.41502,5.781133 -3.41502,10.923446 0,5.684918 0.1452,6.031332 3.1579,7.534264 1.73684,0.866451 3.80766,1.575366 4.60184,1.575366 0.79416,0 2.80038,0.965878 4.45827,2.146397 1.65788,1.180518 4.32535,2.299044 5.92771,2.485608 1.60236,0.186563 4.22742,1.018725 5.83346,1.849245 2.05588,1.063145 4.31816,1.318417 7.64405,0.862547 3.70857,-0.50831 4.97644,-0.302176 5.89867,0.959045 0.7457,1.019815 2.97679,1.701454 6.10914,1.866444 3.63681,0.191562 6.11941,1.089236 9.44051,3.41353 2.47835,1.73449 9.62365,5.80908 15.87846,9.054639 6.39543,3.31853 12.31147,7.12887 13.51823,8.70666 1.18021,1.5431 5.02123,6.03641 8.53557,9.98512 l 6.38975,7.17949 -0.58641,7.53849 c -0.87601,11.2613 -4.94902,24.05836 -12.20735,38.35443 -3.57198,7.03541 -6.4945,13.6211 -6.4945,14.63488 0,1.01378 -1.01387,3.13398 -2.25303,4.71155 -1.84809,2.35276 -2.21122,3.94329 -2.02037,8.84922 0.15431,3.96626 -0.27225,6.75158 -1.26633,8.26872 -2.34252,3.57515 -8.29533,6.07323 -13.23558,5.55427 -3.42477,-0.35975 -4.25574,-0.13323 -4.25574,1.16016 0,1.93307 -2.33417,2.11887 -3.83905,0.30561 -0.59412,-0.71588 -1.21256,-5.1093 -1.37429,-9.76316 l -0.29408,-8.46157 -5.19196,0.33654 c -5.98556,0.38799 -9.39971,-0.8673 -7.18909,-2.64321 0.75141,-0.60365 3.29953,-2.76621 5.66251,-4.80569 3.89034,-3.35777 4.80083,-3.69168 9.63585,-3.53367 l 5.33955,0.17447 4.68294,-9.28379 c 4.02168,-7.97289 4.81338,-10.55635 5.60684,-18.29595 0.50814,-4.95668 1.38707,-11.43934 1.95315,-14.40591 1.38527,-7.25955 1.42075,-7.12312 -1.85253,-7.12312 -1.58497,0 -4.40126,-0.62737 -6.25844,-1.39417 -3.2557,-1.34424 -18.88655,-2.69115 -18.9082,-1.62933 -0.006,0.28608 -0.91279,6.37803 -2.01545,13.53768 -1.66118,10.78602 -2.73221,14.55044 -6.24784,21.95963 l -4.24298,8.94207 v 30.70823 c 0,25.82563 0.23882,30.99552 1.50202,32.51504 1.45592,1.75133 2.71236,8.43616 5.0577,26.90929 1.23629,9.73763 0.80472,13.75153 -2.24271,20.85885 l -2.01873,4.70814 2.10525,2.95656 c 1.15788,1.6261 2.11527,3.33759 2.12752,3.80332 0.0122,0.46573 0.90343,1.97329 1.98042,3.35014 2.63827,3.37284 2.49566,5.82227 -0.50067,8.59917 -1.37686,1.27604 -2.50338,3.30273 -2.50338,4.50377 0,1.20104 2.07929,8.43227 4.62064,16.06941 3.20166,9.62145 5.08189,13.8857 6.12262,13.8857 2.71909,0 17.52377,9.40678 23.60581,14.99895 3.99676,3.67485 6.94405,7.5322 8.92701,11.6835 2.31203,4.8402 5.65005,8.8346 15.2426,18.23985 6.9714,6.83529 13.44754,12.33495 14.97712,12.71885 1.5463,0.3881 5.15802,-0.0147 8.47428,-0.94527 3.17869,-0.89189 6.5599,-1.62163 7.51378,-1.62163 2.08191,0 11.65249,9.31824 11.65249,11.34524 0,0.7849 -0.67591,1.98805 -1.50202,2.67366 -1.82857,1.51758 -1.94029,4.15205 -0.25034,5.90332 1.00763,1.04418 0.81238,1.59516 -1.00135,2.82578 -2.11249,1.43332 -2.25304,2.23175 -2.25304,12.79946 0,8.34168 0.35784,11.56775 1.37691,12.4135 0.94118,0.78112 1.22151,2.52146 0.88583,5.49955 -0.29747,2.63916 -0.0508,4.62894 0.6258,5.04708 1.31382,0.81199 1.51948,5.57881 0.24068,5.57881 -0.91227,0 -2.52236,5.59911 -2.22382,7.73336 0.28728,2.05367 -7.22258,9.28616 -9.64413,9.28795 -1.28677,8e-4 -2.93787,-1.07877 -3.90368,-2.55279 -1.99103,-3.03871 -5.38189,-14.79423 -5.38189,-18.65812 0,-1.502 -1.12651,-4.39092 -2.50337,-6.41984 -1.37686,-2.02891 -2.50338,-4.23212 -2.50338,-4.89602 0,-0.6639 -0.90121,-2.02268 -2.0027,-3.01951 -1.13572,-1.02782 -2.0027,-1.31174 -2.0027,-0.65588 0,0.63612 -0.67591,1.15655 -1.50202,1.15655 -0.84881,0 -1.50203,-0.89665 -1.50203,-2.06179 0,-1.13399 -0.45406,-1.78118 -1.00903,-1.43818 -0.55496,0.34299 -1.73343,-0.10079 -2.61882,-0.98619 -1.47882,-1.4788 -1.47614,-1.75746 0.0329,-3.42498 1.47925,-1.63454 1.48848,-1.94322 0.0928,-3.1015 -0.85244,-0.70747 -1.30773,-2.04933 -1.01173,-2.98193 0.37925,-1.19492 -2.3492,-4.49591 -9.23987,-11.17876 -7.93909,-7.69962 -12.10272,-10.78808 -22.13865,-16.42181 -9.21998,-5.17571 -13.92687,-8.56205 -18.52497,-13.3277 -5.95671,-6.17376 -17.70149,-13.16896 -22.11036,-13.16896 -4.26155,0 -9.78633,-4.24783 -14.05994,-10.81027 -4.83104,-7.4184 -10.59545,-13.29176 -17.77851,-18.1145 -2.59952,-1.74533 -5.91991,-4.7381 -7.37865,-6.6506 -3.05372,-4.00366 -3.34521,-4.08696 -6.03544,-1.72491 -1.09771,0.96379 -2.87246,2.24722 -3.94388,2.85205 -1.07142,0.60482 -4.3347,3.90134 -7.25172,7.32558 -6.21683,7.29781 -6.19532,7.74544 0.79808,16.60848 6.9903,8.85911 9.02533,13.5882 10.56329,24.54745 0.75236,5.36116 2.55584,14.4229 4.00775,20.13718 1.45192,5.71429 3.06332,12.19205 3.58088,14.39502 2.06049,8.7703 2.93007,10.15927 10.00317,15.97809 8.67996,7.14073 10.88839,10.54276 10.89334,16.78089 0.003,3.63313 -0.43933,4.9583 -1.91876,5.75007 -1.05739,0.5659 -2.431,2.56964 -3.05249,4.45277 -0.62148,1.88312 -1.76486,3.66748 -2.54082,3.96525 -1.91054,0.73314 -5.77038,7.05371 -8.03283,13.15393 -2.36047,6.36458 -4.43919,9.65522 -5.63311,8.91734 -0.51462,-0.31805 -1.59741,-0.0292 -2.40619,0.64214 -1.10924,0.92058 -1.19394,1.55365 -0.34478,2.57682 1.52166,1.83349 0.30531,4.75565 -1.66482,3.99965 -1.75178,-0.67223 -7.44701,3.13033 -7.44701,4.97216 0,2.22198 -15.29694,4.23112 -18.27464,2.40022 z"
     id="path3430"
     inkscape:connector-curvature="0" />
</svg>
