<?xml version="1.0" encoding="UTF-8" standalone="no"?>
<!-- Created with Inkscape (http://www.inkscape.org/) -->

<svg
   id="svg3406"
   version="1.1"
   inkscape:version="1.2.2 (b0a8486541, 2022-12-01)"
   width="227.431"
   height="511.99988"
   viewBox="0 0 227.431 511.99988"
   sodipodi:docname="silhouette-football-22.svg"
   xmlns:inkscape="http://www.inkscape.org/namespaces/inkscape"
   xmlns:sodipodi="http://sodipodi.sourceforge.net/DTD/sodipodi-0.dtd"
   xmlns="http://www.w3.org/2000/svg"
   xmlns:svg="http://www.w3.org/2000/svg"
   xmlns:rdf="http://www.w3.org/1999/02/22-rdf-syntax-ns#"
   xmlns:cc="http://creativecommons.org/ns#"
   xmlns:dc="http://purl.org/dc/elements/1.1/">
  <title
     id="title3340">Silhouette Football 22</title>
  <metadata
     id="metadata3412">
    <rdf:RDF>
      <cc:Work
         rdf:about="">
        <dc:format>image/svg+xml</dc:format>
        <dc:type
           rdf:resource="http://purl.org/dc/dcmitype/StillImage" />
        <dc:title>Silhouette Football 22</dc:title>
        <cc:license
           rdf:resource="http://creativecommons.org/publicdomain/zero/1.0/" />
        <dc:date>2017-03-19</dc:date>
        <dc:creator>
          <cc:Agent>
            <dc:title>JLouis</dc:title>
          </cc:Agent>
        </dc:creator>
        <dc:rights>
          <cc:Agent>
            <dc:title>Domaine pubic</dc:title>
          </cc:Agent>
        </dc:rights>
        <dc:publisher>
          <cc:Agent>
            <dc:title>inkscape</dc:title>
          </cc:Agent>
        </dc:publisher>
        <dc:subject>
          <rdf:Bag>
            <rdf:li>silhouette</rdf:li>
            <rdf:li>soccer</rdf:li>
            <rdf:li>player</rdf:li>
            <rdf:li>sport</rdf:li>
            <rdf:li>football</rdf:li>
            <rdf:li>joueurs</rdf:li>
          </rdf:Bag>
        </dc:subject>
        <dc:description>Soccer player in silhouette - Joueur de football en silhouette</dc:description>
      </cc:Work>
      <cc:License
         rdf:about="http://creativecommons.org/publicdomain/zero/1.0/">
        <cc:permits
           rdf:resource="http://creativecommons.org/ns#Reproduction" />
        <cc:permits
           rdf:resource="http://creativecommons.org/ns#Distribution" />
        <cc:permits
           rdf:resource="http://creativecommons.org/ns#DerivativeWorks" />
      </cc:License>
    </rdf:RDF>
  </metadata>
  <defs
     id="defs3410" />
  <sodipodi:namedview
     pagecolor="#ffffff"
     bordercolor="#666666"
     borderopacity="1"
     objecttolerance="10"
     gridtolerance="10"
     guidetolerance="10"
     inkscape:pageopacity="0"
     inkscape:pageshadow="2"
     inkscape:window-width="1916"
     inkscape:window-height="1026"
     id="namedview3408"
     showgrid="false"
     fit-margin-top="0"
     fit-margin-left="0"
     fit-margin-right="0"
     fit-margin-bottom="0"
     inkscape:zoom="0.8828125"
     inkscape:cx="119.50442"
     inkscape:cy="277.52212"
     inkscape:window-x="0"
     inkscape:window-y="0"
     inkscape:window-maximized="1"
     inkscape:current-layer="svg3406"
     inkscape:showpageshadow="2"
     inkscape:pagecheckerboard="0"
     inkscape:deskcolor="#d1d1d1" />
  <path
     style="fill:#ffffff;stroke-width:0.800398"
     d="m 86.324372,510.59566 c -0.727154,-0.80775 -2.897874,-3.37322 -4.823832,-5.70105 -4.243976,-5.12952 -9.337194,-10.15514 -15.040895,-14.84127 -7.851551,-6.45077 -9.782243,-15.85679 -4.901999,-23.88169 2.355939,-3.87404 5.602041,-4.71663 10.418254,-2.70429 2.071312,0.86544 3.868913,1.57354 3.994668,1.57354 0.331162,0 -1.125884,-8.33287 -2.974017,-17.00846 -0.890502,-4.18023 -1.850172,-15.037 -2.166723,-24.5122 -0.47525,-14.22543 -0.236672,-19.05481 1.458055,-29.51468 1.114455,-6.87842 2.306635,-16.64316 2.649288,-21.69942 l 0.623008,-9.19319 -7.785171,-3.81328 c -8.761498,-4.2915 -9.269518,-5.2399 -7.401889,-13.81825 0.599011,-2.75137 1.976413,-14.23208 3.060893,-25.5127 3.455291,-35.94145 9.315591,-68.00858 15.126694,-82.77212 0.694766,-1.7651 0.45136,-2.46067 -1.16351,-3.32493 -1.56121,-0.83552 -1.992408,-1.9591 -1.831172,-4.77143 0.115994,-2.0232 -0.130781,-4.9362 -0.548389,-6.47331 -0.510906,-1.88054 -0.166239,-4.33518 1.053632,-7.50374 1.535114,-3.98738 1.8217,-7.92854 1.870224,-25.71942 0.05148,-18.87595 -0.190178,-22.06425 -2.378735,-31.38309 -1.339824,-5.70495 -3.170887,-11.28013 -4.069028,-12.38928 -1.954629,-2.41388 -2.559149,-2.15985 -13.781068,5.79085 -6.755551,4.78629 -8.219036,5.40192 -14.135023,5.94614 -3.629586,0.33388 -11.116454,1.71295 -16.637483,3.06461 -12.119481,2.96711 -16.358414,3.06811 -21.3740786,0.50932 -6.28139446,-3.20454 -6.6464895,-5.52719 -3.2378503,-20.59857 2.9487856,-13.03813 8.0036519,-26.09698 14.0954869,-36.41458 4.204091,-7.120375 12.284623,-22.903884 13.352389,-26.080904 0.462354,-1.375685 1.429022,-5.664179 2.14815,-9.529987 0.719126,-3.86581 2.375609,-8.654331 3.68107,-10.641157 1.305462,-1.986827 3.164524,-5.056299 4.131249,-6.821049 1.726382,-3.1515 1.850383,-3.195887 6.96356,-2.492645 2.863233,0.393795 5.899181,1.083764 6.746549,1.533261 0.847368,0.449499 2.748778,1.070624 4.225355,1.380278 1.477123,0.309768 2.970016,1.462002 3.31904,2.561677 0.348894,1.099269 1.209569,1.998671 1.912614,1.998671 1.694448,0 4.589883,3.266233 4.589883,5.177679 0,0.835106 -0.716899,2.955434 -1.593109,4.711839 -2.334075,4.678763 -1.265351,6.488621 3.354129,5.680133 11.122702,-1.946662 12.00783,-1.891758 14.818789,0.919201 1.471372,1.471375 2.282303,3.035997 1.802064,3.476937 -0.480239,0.44094 -4.180808,1.276204 -8.223481,1.856141 -4.042677,0.579938 -8.094692,1.717222 -9.00448,2.527304 -0.958852,0.853761 -4.937574,1.774923 -9.465503,2.191466 -9.15646,0.842347 -8.663846,0.339473 -15.358496,15.678504 -2.62421,6.012691 -4.741948,12.582531 -5.082946,15.768771 l -0.584537,5.46185 5.992047,-5.21172 c 3.295626,-2.86645 6.652496,-5.21172 7.459712,-5.21172 0.807216,0 3.141001,-2.19422 5.186185,-4.87605 5.314197,-6.968431 12.849869,-13.745851 18.143099,-16.317498 2.509376,-1.21915 4.5625,-2.56558 4.5625,-2.992073 0,-0.426492 1.348327,-1.472684 2.996275,-2.324876 2.777726,-1.436419 3.285659,-1.401802 6.963632,0.474556 4.082495,2.082732 6.708394,2.475648 9.467975,1.416697 2.709174,-1.039606 1.737544,-2.008071 -1.669047,-1.663612 -5.172453,0.523012 -7.952564,-1.59188 -10.096895,-7.680941 -1.435674,-4.076733 -1.642137,-5.853288 -0.831149,-7.151882 0.823761,-1.31905 0.735133,-1.859743 -0.374643,-2.285604 -0.79951,-0.306802 -1.453659,-1.653468 -1.453659,-2.992593 0,-1.805785 -0.775386,-2.705072 -3.001493,-3.481097 -3.642105,-1.269644 -3.679543,-1.879867 -0.500249,-8.153901 2.602967,-5.136708 3.237539,-9.00448 1.477335,-9.00448 -0.667628,0 -0.794019,-2.756567 -0.363229,-7.922106 0.59496,-7.134073 0.44912,-8.191059 -1.466113,-10.625887 -2.483941,-3.157818 -2.097546,-5.967175 1.567932,-11.399939 2.869251,-4.2526436 8.347729,-7.5362393 17.067067,-10.2293692 5.169347,-1.59664854 8.260257,-1.88201502 16.069667,-1.48361958 13.38529,0.68284748 13.17098,0.65513506 13.17098,1.70319018 0,0.5160749 0.93004,0.9383179 2.06677,0.9383179 1.13672,0 2.88603,0.4384538 3.88735,0.9743416 2.90745,1.5560224 9.00437,11.4953181 8.99599,14.6654301 -0.004,1.57819 0.0285,5.378151 0.0725,8.444357 0.0947,6.586005 -1.33323,16.208393 -4.13812,27.887129 -1.22163,5.086426 -1.78103,9.77333 -1.40545,11.775312 0.70345,3.74978 7.09503,11.290763 9.5698,11.290763 0.89235,0 3.83734,1.124222 6.5444,2.498274 4.26857,2.166638 5.74494,2.414642 11.12197,1.868266 6.09772,-0.619604 6.1643,-0.658936 4.03444,-2.383599 -1.91261,-1.548728 -1.99847,-1.954971 -0.73507,-3.477282 1.2458,-1.501083 1.2304,-1.871213 -0.11915,-2.866042 -2.64182,-1.947421 -3.87753,-5.308336 -3.87753,-10.546109 0,-6.077292 1.39599,-7.127495 10.43099,-7.847238 7.48738,-0.59646 8.72771,0.526669 10.589,9.588431 0.71673,3.489424 1.90823,6.576605 2.6478,6.860402 0.73956,0.283796 1.34466,1.073134 1.34466,1.754082 0,0.680948 1.1514,2.546231 2.55868,4.145073 1.40727,1.598842 3.73641,4.932994 5.17587,7.409226 2.82537,4.860362 10.13705,14.305573 18.25919,23.58721 6.93444,7.92436 10.73568,16.16305 11.54682,25.02626 0.64456,7.04268 0.62699,7.11145 -2.48324,9.72855 -3.91723,3.29613 -8.59809,4.52656 -17.53183,4.60851 -6.65476,0.061 -7.3078,-0.14942 -13.74485,-4.42978 -3.71698,-2.47163 -7.6936,-4.49387 -8.83692,-4.49387 -1.14332,0 -2.96298,-0.47322 -4.04368,-1.0516 -1.71609,-0.91842 -2.16627,-0.56998 -3.55482,2.75137 -5.86454,14.02773 -12.52062,69.5508 -9.96857,83.15492 0.63465,3.38306 0.46293,4.69745 -0.7953,6.08779 -1.34252,1.48347 -1.43991,2.64215 -0.59604,7.09186 0.55478,2.92529 1.40799,5.81357 1.89605,6.41843 0.79675,0.98743 4.9661,19.87473 6.64766,30.11418 0.36147,2.20109 1.02988,13.45669 1.48535,25.01244 0.75608,19.18258 1.12403,22.14199 4.22937,34.01693 1.87067,7.15356 3.74228,13.76456 4.15913,14.69113 1.13652,2.52623 -6.64161,10.58686 -11.00588,11.4056 -1.86419,0.34973 -3.21161,0.92417 -2.99426,1.27653 0.21735,0.35237 0.90712,5.76414 1.53284,12.02617 0.62571,6.26201 1.75509,12.86322 2.50973,14.66932 2.96928,7.10648 4.81355,18.5106 4.17717,25.82957 -0.34169,3.92974 -1.00886,11.64722 -1.48258,17.14996 -0.47373,5.50274 -1.66692,13.72347 -2.65155,18.2683 -1.60772,7.42088 -1.63458,8.4409 -0.26342,10.00498 5.07227,5.78598 5.90194,12.07663 2.76861,20.99155 -1.10055,3.13125 -2.0054,7.28458 -2.01077,9.22961 -0.0125,4.50727 -4.39031,14.04165 -6.44744,14.04165 -0.85073,0 -1.54677,-0.48424 -1.54677,-1.07607 0,-0.65491 -1.82581,-0.96379 -4.66512,-0.78918 -4.60997,0.28349 -4.68113,0.24064 -6.01938,-3.62478 -1.44057,-4.16101 -3.62903,-25.74762 -3.16102,-31.17984 0.15366,-1.7835 -0.0449,-3.56702 -0.44129,-3.96338 -1.19957,-1.19957 -0.81131,-2.38816 0.78009,-2.38816 0.82541,0 1.50075,-0.59454 1.50075,-1.32121 0,-2.97175 -4.12565,-20.33235 -6.65256,-27.99384 -2.50936,-7.60823 -2.71105,-9.47736 -2.77896,-25.75398 -0.0607,-14.55231 -0.3558,-17.98204 -1.72747,-20.07742 -2.39271,-3.65514 -5.84948,-15.46586 -5.84948,-19.98588 0,-3.50555 -0.37721,-4.06871 -3.94403,-5.88837 -5.87792,-2.9987 -9.43843,-8.15166 -8.84461,-12.8004 0.26257,-2.05556 0.19495,-5.9885 -0.15027,-8.73987 l -0.62768,-5.00249 -1.77242,7.02392 c -1.52554,6.04557 -1.8469,10.01447 -1.60733,19.85135 0.0659,2.70174 -2.7024,5.33747 -7.55024,7.18887 l -4.24158,1.61988 -0.5626,6.71064 c -0.30943,3.69087 -1.33422,8.63914 -2.27731,10.99617 -1.45943,3.64747 -1.5941,5.95024 -0.90456,15.46725 0.44559,6.14996 0.84545,15.45932 0.88856,20.68747 0.0691,8.3803 -0.25688,10.25237 -2.75341,15.81207 -3.31346,7.37895 -6.476778,22.13215 -7.33194,34.19497 -0.526013,7.41988 -0.24665,9.78022 2.16174,18.26432 2.50088,8.80999 2.64662,10.16899 1.521413,14.18786 -1.137614,4.06314 -1.571654,4.49987 -5.057396,5.08878 -2.097132,0.35432 -4.059228,1.28592 -4.360202,2.07025 -0.702405,1.83045 -2.118366,1.81454 -3.790173,-0.0427 z"
     id="path3430"
     inkscape:connector-curvature="0" />
</svg>
