<?xml version="1.0" encoding="UTF-8" standalone="no"?>
<!-- Created with Inkscape (http://www.inkscape.org/) -->

<svg
   id="svg3406"
   version="1.1"
   inkscape:version="1.2.2 (b0a8486541, 2022-12-01)"
   width="276.952"
   height="512.00043"
   viewBox="0 0 276.952 512.00043"
   sodipodi:docname="silhouette-football-24.svg"
   xmlns:inkscape="http://www.inkscape.org/namespaces/inkscape"
   xmlns:sodipodi="http://sodipodi.sourceforge.net/DTD/sodipodi-0.dtd"
   xmlns="http://www.w3.org/2000/svg"
   xmlns:svg="http://www.w3.org/2000/svg"
   xmlns:rdf="http://www.w3.org/1999/02/22-rdf-syntax-ns#"
   xmlns:cc="http://creativecommons.org/ns#"
   xmlns:dc="http://purl.org/dc/elements/1.1/">
  <title
     id="title3340">Silhouette Football 24</title>
  <metadata
     id="metadata3412">
    <rdf:RDF>
      <cc:Work
         rdf:about="">
        <dc:format>image/svg+xml</dc:format>
        <dc:type
           rdf:resource="http://purl.org/dc/dcmitype/StillImage" />
        <dc:title>Silhouette Football 24</dc:title>
        <cc:license
           rdf:resource="http://creativecommons.org/publicdomain/zero/1.0/" />
        <dc:date>2017-03-21</dc:date>
        <dc:creator>
          <cc:Agent>
            <dc:title>JLouis</dc:title>
          </cc:Agent>
        </dc:creator>
        <dc:rights>
          <cc:Agent>
            <dc:title>Domaine pubic</dc:title>
          </cc:Agent>
        </dc:rights>
        <dc:publisher>
          <cc:Agent>
            <dc:title>inkscape</dc:title>
          </cc:Agent>
        </dc:publisher>
        <dc:subject>
          <rdf:Bag>
            <rdf:li>silhouette</rdf:li>
            <rdf:li>soccer</rdf:li>
            <rdf:li>player</rdf:li>
            <rdf:li>sport</rdf:li>
            <rdf:li>football</rdf:li>
            <rdf:li>joueurs</rdf:li>
          </rdf:Bag>
        </dc:subject>
        <dc:description>Soccer player in silhouette - Joueur de football en silhouette</dc:description>
      </cc:Work>
      <cc:License
         rdf:about="http://creativecommons.org/publicdomain/zero/1.0/">
        <cc:permits
           rdf:resource="http://creativecommons.org/ns#Reproduction" />
        <cc:permits
           rdf:resource="http://creativecommons.org/ns#Distribution" />
        <cc:permits
           rdf:resource="http://creativecommons.org/ns#DerivativeWorks" />
      </cc:License>
    </rdf:RDF>
  </metadata>
  <defs
     id="defs3410" />
  <sodipodi:namedview
     pagecolor="#ffffff"
     bordercolor="#666666"
     borderopacity="1"
     objecttolerance="10"
     gridtolerance="10"
     guidetolerance="10"
     inkscape:pageopacity="0"
     inkscape:pageshadow="2"
     inkscape:window-width="1916"
     inkscape:window-height="1026"
     id="namedview3408"
     showgrid="false"
     fit-margin-top="0"
     fit-margin-left="0"
     fit-margin-right="0"
     fit-margin-bottom="0"
     inkscape:zoom="1.1133005"
     inkscape:cx="-38.174779"
     inkscape:cy="254.19911"
     inkscape:window-x="0"
     inkscape:window-y="0"
     inkscape:window-maximized="1"
     inkscape:current-layer="svg3406"
     inkscape:showpageshadow="2"
     inkscape:pagecheckerboard="0"
     inkscape:deskcolor="#d1d1d1" />
  <path
     style="fill:#ffffff;stroke-width:1.0108"
     d="m 50.368885,510.52291 c -5.300861,-2.37783 -13.795353,-13.97997 -14.593799,-19.93281 -0.892725,-6.65578 1.066,-10.08672 7.885194,-13.81186 7.531431,-4.11422 9.062164,-8.84018 10.025555,-30.9527 1.504163,-34.52473 2.601668,-43.54451 6.823334,-56.07717 2.196307,-6.5201 3.993286,-12.45354 3.993286,-13.18545 0,-0.7319 2.218439,-3.96168 4.929865,-7.17728 4.678233,-5.54809 5.064151,-6.68086 7.560731,-22.19254 1.536416,-9.54603 2.298042,-18.3767 1.830816,-21.22742 -1.41409,-8.62787 1.951876,-33.23814 6.612034,-48.34393 3.135801,-10.16462 4.34172,-16.46193 4.355225,-22.74299 0.03451,-16.05112 6.078257,-35.05017 14.096964,-44.31506 5.89227,-6.80799 6.91128,-9.16469 9.2516,-21.39639 1.73143,-9.04941 4.62541,-15.94773 10.26631,-24.47173 1.63061,-2.46401 3.55432,-7.58883 4.2749,-11.38851 1.49733,-7.89535 1.86116,-26.06723 0.58762,-29.34911 -1.13468,-2.92403 -6.51224,-1.70798 -10.43434,2.35957 -1.59169,1.65072 -3.52479,3.00132 -4.29574,3.00132 -0.77096,0 -7.99728,4.66532 -16.058493,10.36738 -22.30067,15.77428 -28.103566,19.43575 -33.609242,21.20655 -2.779699,0.89403 -10.881891,3.86352 -18.004871,6.59888 -11.184291,4.29495 -12.950873,5.36629 -12.950873,7.85401 0,1.58437 -1.415458,4.40797 -3.145463,6.27468 -1.730006,1.86671 -4.343987,6.18005 -5.808847,9.58522 -2.617165,6.08376 -2.780308,6.2058 -9.401611,7.03309 -7.8411736,0.97968 -13.67740789,-0.57286 -14.30395073,-3.80513 -1.05799268,-5.45804 1.33721473,-16.2147 4.19750493,-18.85058 7.0241218,-6.47306 14.6993308,-12.58296 17.8786718,-14.23242 3.702711,-1.921 15.582499,-11.94894 27.340339,-23.07846 8.237841,-7.79763 16.936663,-14.28219 24.174265,-18.0208 2.706643,-1.39812 8.898334,-5.43479 13.759318,-8.97036 6.98867,-5.08313 10.284839,-8.69374 15.751472,-17.254066 7.57055,-11.854904 16.59323,-21.953637 22.29125,-24.949708 2.0109,-1.057359 5.6986,-1.922471 8.19487,-1.922471 2.49627,0 6.53672,-1.018667 8.97878,-2.263705 4.05694,-2.068344 11.22209,-4.011122 28.44662,-7.713092 3.47463,-0.746782 7.21668,-1.601421 8.31567,-1.899199 2.66889,-0.723147 5.42147,-12.428507 3.68543,-15.672316 -1.46347,-2.734515 -1.65198,-11.336373 -0.29438,-13.432441 0.51056,-0.788266 2.01491,-1.641128 3.34303,-1.89525 2.67973,-0.512738 8.16213,-9.152922 8.31038,-13.097036 0.25707,-6.8391788 7.91271,-11.23706026 19.46356,-11.18109813538 8.42411,0.0408135654 9.64809,0.41776710538 17.85642,5.49926173538 4.84681,3.0004946 9.52723,6.3314164 10.40092,7.4020494 1.54155,1.889011 1.42001,7.736481 -0.47419,22.81525 -0.75649,6.021946 -7.90458,21.254589 -12.6931,27.049093 -1.62332,1.964362 -2.9515,4.386635 -2.9515,5.382828 0,0.996193 4.69074,5.215401 10.42388,9.376016 26.26699,19.062336 30.37873,23.958394 31.82479,37.895334 0.46866,4.51701 1.33516,13.0881 1.92555,19.04689 0.59038,5.95877 2.18921,14.48739 3.55297,18.9525 1.63957,5.36815 2.54367,12.27776 2.66883,20.39662 0.18875,12.24193 0.17335,12.30691 -5.20324,21.96264 -3.51071,6.30483 -7.31971,11.16148 -10.91498,13.91712 -4.95781,3.79996 -14.88778,14.28356 -19.33074,20.40848 -4.52803,6.24219 -13.21213,8.51431 -18.18019,4.75665 -4.5428,-3.436 -5.61137,-2.40904 -5.61137,5.39287 0,4.03056 -0.60696,7.93526 -1.3488,8.6771 -0.74182,0.74183 -2.72417,7.43408 -4.40522,14.87167 -1.68103,7.43759 -6.12761,21.30086 -9.88127,30.80728 -3.75365,9.5064 -7.81255,20.41155 -9.01979,24.23363 -3.74714,11.86342 -12.05778,30.86169 -14.37981,32.87247 -1.21737,1.05418 -4.35667,5.99537 -6.97623,10.98041 -2.61957,4.98503 -7.68218,12.08256 -11.25027,15.77227 -3.96646,4.1017 -7.34089,9.09637 -8.68374,12.8533 -2.60294,7.28235 -11.23902,19.16084 -14.56246,20.02994 -10.37478,2.71306 -13.14498,-11.87292 -8.72733,-45.95211 1.02217,-7.88536 1.8963,-16.89562 1.9425,-20.02278 0.13801,-9.3418 1.28848,-12.52565 5.27016,-14.58466 2.81821,-1.45734 3.68528,-2.78993 3.68528,-5.66378 0,-2.18283 -0.66201,-3.74335 -1.57937,-3.72296 -4.25973,0.0946 -12.30018,12.8105 -22.1714,35.06368 -2.86035,6.44824 -7.16061,14.124 -9.55612,17.05725 -3.71902,4.55386 -4.7491,7.36423 -7.04892,19.23171 -3.592635,18.53858 -4.691351,22.44915 -9.22985,32.85099 -8.278473,18.97354 -15.128454,38.24494 -16.167915,45.48599 -3.786221,26.37542 -6.160509,36.55143 -9.046382,38.77202 -3.351694,2.57905 -8.997425,2.8456 -13.880098,0.65536 z M 236.28873,204.01003 c 2.71307,-0.75649 3.41269,-2.22896 5.49327,-11.56142 2.8035,-12.57512 3.12895,-19.3771 1.1767,-24.59302 -0.78031,-2.08477 -2.04334,-6.20694 -2.80673,-9.16037 -0.7634,-2.95343 -1.86896,-5.36987 -2.4568,-5.36987 -1.59996,0 -4.86138,7.52456 -7.17388,16.55113 -1.12866,4.40558 -3.6945,11.40066 -5.70185,15.5446 l -3.64975,7.53448 2.53037,2.69344 c 1.3917,1.4814 2.53036,3.84134 2.53036,5.24431 0,4.32746 2.70744,5.16639 10.05831,3.11672 z"
     id="path3430"
     inkscape:connector-curvature="0" />
</svg>
