<?xml version="1.0" encoding="UTF-8" standalone="no"?>
<!-- Created with Inkscape (http://www.inkscape.org/) -->

<svg
   id="svg3406"
   version="1.1"
   inkscape:version="1.2.2 (b0a8486541, 2022-12-01)"
   width="340.59665"
   height="605.62109"
   viewBox="0 0 340.59665 605.62109"
   sodipodi:docname="silhouette-football-15.svg"
   xmlns:inkscape="http://www.inkscape.org/namespaces/inkscape"
   xmlns:sodipodi="http://sodipodi.sourceforge.net/DTD/sodipodi-0.dtd"
   xmlns="http://www.w3.org/2000/svg"
   xmlns:svg="http://www.w3.org/2000/svg"
   xmlns:rdf="http://www.w3.org/1999/02/22-rdf-syntax-ns#"
   xmlns:cc="http://creativecommons.org/ns#"
   xmlns:dc="http://purl.org/dc/elements/1.1/">
  <title
     id="title3340">Silhouette Football 15</title>
  <metadata
     id="metadata3412">
    <rdf:RDF>
      <cc:Work
         rdf:about="">
        <dc:format>image/svg+xml</dc:format>
        <dc:type
           rdf:resource="http://purl.org/dc/dcmitype/StillImage" />
        <dc:title>Silhouette Football 15</dc:title>
        <cc:license
           rdf:resource="http://creativecommons.org/publicdomain/zero/1.0/" />
        <dc:date>2017-03-18</dc:date>
        <dc:creator>
          <cc:Agent>
            <dc:title>JLouis</dc:title>
          </cc:Agent>
        </dc:creator>
        <dc:rights>
          <cc:Agent>
            <dc:title>Domaine pubic</dc:title>
          </cc:Agent>
        </dc:rights>
        <dc:publisher>
          <cc:Agent>
            <dc:title>inkscape</dc:title>
          </cc:Agent>
        </dc:publisher>
        <dc:subject>
          <rdf:Bag>
            <rdf:li>silhouette</rdf:li>
            <rdf:li>soccer</rdf:li>
            <rdf:li>player</rdf:li>
            <rdf:li>sport</rdf:li>
            <rdf:li>football</rdf:li>
            <rdf:li>joueurs</rdf:li>
          </rdf:Bag>
        </dc:subject>
        <dc:description>Soccer player in silhouette - Joueur de football en silhouette</dc:description>
      </cc:Work>
      <cc:License
         rdf:about="http://creativecommons.org/publicdomain/zero/1.0/">
        <cc:permits
           rdf:resource="http://creativecommons.org/ns#Reproduction" />
        <cc:permits
           rdf:resource="http://creativecommons.org/ns#Distribution" />
        <cc:permits
           rdf:resource="http://creativecommons.org/ns#DerivativeWorks" />
      </cc:License>
    </rdf:RDF>
  </metadata>
  <defs
     id="defs3410" />
  <sodipodi:namedview
     pagecolor="#ffffff"
     bordercolor="#666666"
     borderopacity="1"
     objecttolerance="10"
     gridtolerance="10"
     guidetolerance="10"
     inkscape:pageopacity="0"
     inkscape:pageshadow="2"
     inkscape:window-width="1916"
     inkscape:window-height="1026"
     id="namedview3408"
     showgrid="false"
     fit-margin-top="0"
     fit-margin-left="0"
     fit-margin-right="0"
     fit-margin-bottom="0"
     inkscape:zoom="0.8828125"
     inkscape:cx="-40.212389"
     inkscape:cy="296.77876"
     inkscape:window-x="0"
     inkscape:window-y="0"
     inkscape:window-maximized="1"
     inkscape:current-layer="svg3406"
     inkscape:showpageshadow="2"
     inkscape:pagecheckerboard="0"
     inkscape:deskcolor="#d1d1d1" />
  <g
     id="g3416"
     transform="translate(-6.5177776,-24.800827)">
    <path
       style="fill:#ffffff"
       d="M 316.32036,627.63148 C 314.88281,624.94539 308.83159,622.5 303.62229,622.5 c -4.8611,0 -9.36799,-2.27392 -10.81907,-5.45867 -1.45283,-3.18864 -11.10917,-8.29133 -15.69052,-8.29133 -1.78116,0 -3.77495,0.95864 -4.43065,2.13029 -1.00679,1.79904 -1.69675,1.9004 -4.43711,0.6518 C 266.46023,610.71893 265,609.21757 265,608.19578 c 0,-1.0218 -1.13335,-2.46437 -2.51855,-3.2057 -1.98183,-1.06064 -2.67627,-0.93683 -3.25874,0.58102 -0.4071,1.06089 -1.69246,1.9289 -2.85635,1.9289 -1.5733,0 -2.501,-1.86316 -3.61626,-7.26275 -1.97375,-9.55592 -1.90381,-12.16251 0.52624,-19.61225 3.44259,-10.5539 4.10731,-11.875 5.97492,-11.875 2.17758,0 3.32846,-3.57944 7.43539,-23.125 4.81474,-22.91416 6.80754,-37.97193 6.14105,-46.40216 -0.48611,-6.14861 0.25685,-10.81518 3.78124,-23.75 5.81496,-21.34152 6.09502,-22.59574 6.63552,-29.7166 l 0.46444,-6.11877 -10.29195,-10.23306 c -5.66057,-5.62819 -12.12773,-11.13232 -14.37145,-12.23141 -5.12325,-2.50964 -13.50664,-9.56134 -29.09106,-24.47001 l -12.20107,-11.67202 -5.43918,5.99634 c -2.99155,3.29799 -12.50118,13.47348 -21.13249,22.61222 -15.54939,16.46348 -15.74713,16.74755 -21.5625,30.9755 -3.22806,7.89781 -5.8692,15.15257 -5.8692,16.1217 0,0.96912 -1.97429,4.69582 -4.3873,8.28155 -2.41301,3.58572 -4.72244,7.85481 -5.13206,9.48687 -0.66578,2.65265 -12.89754,11.74485 -15.80039,11.74485 -3.85713,0 -40.414076,30.25046 -44.81246,37.08181 -0.958535,1.48875 -8.888622,10.0176 -17.622417,18.953 -15.368774,15.72355 -22.078959,25.32117 -21.232335,30.36871 0.187133,1.11569 -0.826837,4.00658 -2.253267,6.4242 -1.426431,2.41762 -2.795208,6.28604 -3.041727,8.59648 -0.24652,2.31044 -1.37061,7.29455 -2.497978,11.0758 -1.127368,3.78125 -2.668931,11.375 -3.425695,16.875 -0.756762,5.5 -1.932706,10.70312 -2.613207,11.5625 -0.8307,1.04905 -5.052655,1.5625 -12.848103,1.5625 -11.422337,0 -11.663187,-0.0622 -14.836191,-3.83313 -4.3511009,-5.17098 -7.4907966,-16.31081 -6.4505899,-22.88707 0.4484514,-2.83514 1.9446844,-8.81105 3.3249619,-13.2798 1.810096,-5.86031 2.284462,-9.77996 1.70188,-14.0625 -0.57826,-4.25077 -0.378991,-5.9375 0.701454,-5.9375 0.979943,0 1.307689,-1.37279 0.934615,-3.91471 -0.370755,-2.52612 0.46232,-6.06405 2.348594,-9.97412 2.324118,-4.81766 4.192356,-6.70254 9.116595,-9.19785 4.101316,-2.0783 6.474491,-2.68371 7.025442,-1.79226 1.500617,2.42805 9.195659,-6.56413 18.288237,-21.37106 4.855038,-7.90625 11.2962,-17.92984 14.313692,-22.27464 3.017494,-4.3448 6.667028,-10.25105 8.110076,-13.125 4.849318,-9.65781 8.426596,-13.0208 24.327574,-22.87028 8.706509,-5.39304 16.714239,-11.15503 17.794959,-12.8044 2.90934,-4.44022 4.13249,-23.64803 1.75373,-27.53968 -2.09042,-3.41994 -1.06544,-8.06301 6.79063,-30.761 2.37953,-6.875 5.19508,-16.15625 6.25679,-20.625 1.0617,-4.46875 2.43304,-9.10174 3.04743,-10.29554 0.61439,-1.1938 1.11706,-3.78981 1.11706,-5.76892 0,-1.97911 1.22491,-5.15561 2.72202,-7.05889 2.60278,-3.30889 2.62302,-3.53289 0.4621,-5.113 -2.15072,-1.57264 -2.0714,-2.12334 1.64144,-11.39557 2.14576,-5.35869 5.36463,-15.08683 7.15304,-21.61808 1.78842,-6.53125 3.56474,-12.71875 3.94739,-13.75 0.38265,-1.03125 0.57586,-3.10991 0.42936,-4.61924 -0.14651,-1.50933 0.3684,-3.93032 1.14424,-5.38 0.77584,-1.44966 2.15302,-5.10257 3.0604,-8.11756 l 1.64978,-5.48182 -6.64648,-3.25182 c -4.36993,-2.13801 -9.1817,-6.12435 -14.04806,-11.6382 -7.30109,-8.2725 -7.41287,-8.5137 -8.23259,-17.76553 -0.86779,-9.7943 1.07541,-19.69632 5.0581,-25.77467 1.02621,-1.56618 2.07867,-4.14105 2.33881,-5.72188 1.07469,-6.53107 8.12711,-24.70649 12.75586,-32.87428 2.72728,-4.8125 7.6378,-13.52087 10.91228,-19.35195 8.30206,-14.78406 14.97251,-22.05336 27.54968,-30.02305 5.96729,-3.78125 12.69854,-8.42373 14.95834,-10.31662 2.2598,-1.8929 6.28235,-4.34787 8.939,-5.45549 9.07965,-3.78554 11.70529,-6.40534 11.70529,-11.67927 0,-2.797909 -0.68185,-5.042799 -1.64379,-5.41193 C 217.6808,93.897842 213.75,82.466811 213.75,77.606456 c 0,-1.846051 0.55131,-3.907767 1.22514,-4.581591 0.80017,-0.80018 0.76891,-2.87742 -0.0901,-5.988634 -0.72339,-2.619923 -0.9998,-5.585586 -0.61422,-6.59036 0.38556,-1.004773 -0.15704,-3.136428 -1.20578,-4.73701 -2.26544,-3.457488 -1.77074,-10.599902 1.01945,-14.718965 2.59308,-3.828079 9.66554,-11.363526 9.66554,-10.298281 0,0.46525 1.26562,0.02278 2.8125,-0.983289 6.86287,-4.463484 26.44017,-6.534199 32.27146,-3.413389 1.43626,0.768664 3.38494,1.100732 4.33039,0.737928 1.65918,-0.636685 5.76123,2.340654 13.10679,9.513127 3.92014,3.827773 5.75236,11.234004 3.96073,16.010092 C 278.2934,57.723619 277.12178,72.5 278.65051,72.5 c 3.90127,0 -0.94899,21.104467 -5.09971,22.189905 -1.37869,0.360535 -2.3008,1.734499 -2.3008,3.428229 0,1.554606 -0.84375,4.845936 -1.875,7.314066 -2.99376,7.16507 -2.44544,10.50674 2.1875,13.3315 2.23437,1.36233 5.25925,2.47906 6.72195,2.48163 1.46269,0.003 3.35969,0.84842 4.21555,1.87967 0.85586,1.03125 3.36541,1.875 5.57677,1.875 4.15324,0 11.58833,4.77136 14.43156,9.26125 0.83109,1.31242 2.69765,6.37492 4.14788,11.25 2.22609,7.4831 2.59573,11.66993 2.37309,26.87925 -0.28516,19.48139 -0.70396,17.6783 8.53385,36.74137 1.26784,2.61628 1.97879,5.60735 1.5799,6.64683 -0.39887,1.03947 -0.13036,3.11763 0.5967,4.61812 0.72706,1.50051 1.62981,4.13443 2.00609,5.85318 1.32991,6.07461 4.08133,16.89939 4.76585,18.75 0.38145,1.03125 1.36047,4.40625 2.17562,7.5 0.81515,3.09375 2.00648,7.35244 2.64739,9.46375 0.64091,2.11131 1.1653,4.5616 1.1653,5.4451 0,0.88349 1.40625,2.7125 3.125,4.06447 2.15916,1.6984 3.1264,3.68568 3.12954,6.4299 0.002,2.18448 1.73402,8.47178 3.84786,13.97178 5.58362,14.52809 5.53547,14.15989 2.30175,17.60202 -2.28964,2.43722 -3.11529,5.16365 -3.83019,12.64794 -0.61546,6.44333 -1.71785,10.63185 -3.39543,12.90092 -1.36626,1.84795 -3.09538,5.55123 -3.84249,8.22951 C 331.98577,349.88822 324.37795,360 321.23785,360 c -2.94181,0 -3.20758,-2.32062 -0.6526,-5.69859 2.68401,-3.5486 2.3223,-4.39449 -1.29163,-3.02047 C 314.75502,353.00651 305,352.8393 305,351.03592 c 0,-0.80523 0.88655,-2.4437 1.97011,-3.64102 1.08356,-1.19733 2.1201,-4.05411 2.3034,-6.34843 0.18331,-2.29431 1.24458,-5.93118 2.35838,-8.08196 1.1138,-2.15076 3.13675,-7.92206 4.49546,-12.8251 1.3587,-4.90304 3.63981,-10.55696 5.06914,-12.56426 1.69904,-2.38608 2.13532,-3.93606 1.26016,-4.47695 -0.73624,-0.45501 -1.1187,-1.47888 -0.8499,-2.27525 0.26879,-0.79638 -1.35219,-4.1294 -3.60218,-7.40673 -2.24997,-3.27732 -5.26877,-9.107 -6.70843,-12.95483 -1.43965,-3.84783 -5.31988,-11.57263 -8.6227,-17.16623 C 299.37061,257.70157 295.1886,249.46875 293.38007,245 288.44949,232.81684 281.62954,217.46286 280.7642,216.59754 280.34389,216.17722 280,214.80209 280,213.54166 c 0,-3.80419 -2.2394,-2.57376 -3.18961,1.7525 -0.48854,2.2243 -1.60889,5.17743 -2.48969,6.5625 -0.88079,1.38509 -2.249,8.67674 -3.04046,16.20368 -0.79148,7.52693 -1.77592,14.23041 -2.18767,14.89662 -1.32653,2.1464 -2.50338,18.85219 -1.47232,20.9002 0.54885,1.09019 0.49156,5.56446 -0.12731,9.94283 -0.7967,5.63633 -0.70823,8.46315 0.303,9.6816 1.5245,1.8369 3.54711,12.39315 3.46436,18.08091 -0.0275,1.89062 0.4778,3.4375 1.1229,3.4375 0.64511,0 1.86434,2.10937 2.70939,4.6875 2.30822,7.04197 4.62085,9.94269 8.55411,10.72934 2.39384,0.47877 3.79737,1.69015 4.30594,3.71643 0.41497,1.65338 2.94117,4.45322 5.61378,6.22188 9.64214,6.38086 19.6472,29.11184 23.68617,53.81371 2.17031,13.27339 3.30893,17.11234 6.59385,22.23144 4.73808,7.38365 5.90177,15.02434 3.43638,22.56282 -0.97345,2.97653 -1.61437,7.94313 -1.42428,11.03688 0.1901,3.09375 -0.76819,11.8125 -2.12953,19.375 -1.36134,7.5625 -3.06344,16.99824 -3.78245,20.9683 -1.14909,6.34474 -4.40541,15.80977 -14.00462,40.70665 -1.41547,3.67124 -3.32692,6.96404 -4.24764,7.31736 -2.49391,0.957 -6.71083,15.93009 -7.55508,26.82593 -0.70841,9.14281 -0.5946,9.71502 2.5597,12.86932 1.81559,1.81559 3.30108,3.83639 3.30108,4.49065 0,2.6136 9.69517,11.67209 19.66999,18.37824 11.79858,7.93229 16.58001,12.87416 16.58001,17.1364 0,3.82734 -2.20956,5.45934 -8.17891,6.04099 -3.57454,0.3483 -5.28825,1.23193 -6.18,3.18655 -1.52189,3.33583 -3.88889,3.47863 -5.57073,0.33608 z m 6.49214,-291.14034 c 2.12797,-1.82749 3.1271,-9.00388 1.25,-8.97843 -0.51563,0.007 -2.0274,2.39761 -3.35949,5.3125 -1.3321,2.91489 -2.6707,5.79996 -2.97466,6.41129 -0.66051,1.32836 2.03623,-0.12784 5.08415,-2.74536 z"
       id="path3430"
       inkscape:connector-curvature="0" />
  </g>
</svg>
