<?xml version="1.0" encoding="UTF-8" standalone="no"?>
<!-- Created with Inkscape (http://www.inkscape.org/) -->

<svg
   id="svg3406"
   version="1.1"
   inkscape:version="1.2.2 (b0a8486541, 2022-12-01)"
   width="323.77008"
   height="512"
   viewBox="0 0 323.77008 512"
   sodipodi:docname="silhouette-football-28.svg"
   xmlns:inkscape="http://www.inkscape.org/namespaces/inkscape"
   xmlns:sodipodi="http://sodipodi.sourceforge.net/DTD/sodipodi-0.dtd"
   xmlns="http://www.w3.org/2000/svg"
   xmlns:svg="http://www.w3.org/2000/svg"
   xmlns:rdf="http://www.w3.org/1999/02/22-rdf-syntax-ns#"
   xmlns:cc="http://creativecommons.org/ns#"
   xmlns:dc="http://purl.org/dc/elements/1.1/">
  <title
     id="title3340">Silhouette Football 28</title>
  <metadata
     id="metadata3412">
    <rdf:RDF>
      <cc:Work
         rdf:about="">
        <dc:format>image/svg+xml</dc:format>
        <dc:type
           rdf:resource="http://purl.org/dc/dcmitype/StillImage" />
        <dc:title>Silhouette Football 28</dc:title>
        <cc:license
           rdf:resource="http://creativecommons.org/publicdomain/zero/1.0/" />
        <dc:date>2017-03-21</dc:date>
        <dc:creator>
          <cc:Agent>
            <dc:title>JLouis</dc:title>
          </cc:Agent>
        </dc:creator>
        <dc:rights>
          <cc:Agent>
            <dc:title>Domaine pubic</dc:title>
          </cc:Agent>
        </dc:rights>
        <dc:publisher>
          <cc:Agent>
            <dc:title>inkscape</dc:title>
          </cc:Agent>
        </dc:publisher>
        <dc:subject>
          <rdf:Bag>
            <rdf:li>silhouette</rdf:li>
            <rdf:li>soccer</rdf:li>
            <rdf:li>player</rdf:li>
            <rdf:li>sport</rdf:li>
            <rdf:li>football</rdf:li>
            <rdf:li>joueurs</rdf:li>
          </rdf:Bag>
        </dc:subject>
        <dc:description>Soccer player in silhouette - Joueur de football en silhouette</dc:description>
      </cc:Work>
      <cc:License
         rdf:about="http://creativecommons.org/publicdomain/zero/1.0/">
        <cc:permits
           rdf:resource="http://creativecommons.org/ns#Reproduction" />
        <cc:permits
           rdf:resource="http://creativecommons.org/ns#Distribution" />
        <cc:permits
           rdf:resource="http://creativecommons.org/ns#DerivativeWorks" />
      </cc:License>
    </rdf:RDF>
  </metadata>
  <defs
     id="defs3410" />
  <sodipodi:namedview
     pagecolor="#ffffff"
     bordercolor="#666666"
     borderopacity="1"
     objecttolerance="10"
     gridtolerance="10"
     guidetolerance="10"
     inkscape:pageopacity="0"
     inkscape:pageshadow="2"
     inkscape:window-width="1916"
     inkscape:window-height="1026"
     id="namedview3408"
     showgrid="false"
     fit-margin-top="0"
     fit-margin-left="0"
     fit-margin-right="0"
     fit-margin-bottom="0"
     inkscape:zoom="0.8828125"
     inkscape:cx="-36.814159"
     inkscape:cy="254.86726"
     inkscape:window-x="0"
     inkscape:window-y="0"
     inkscape:window-maximized="1"
     inkscape:current-layer="svg3406"
     inkscape:showpageshadow="2"
     inkscape:pagecheckerboard="0"
     inkscape:deskcolor="#d1d1d1" />
  <path
     style="fill:#ffffff;stroke-width:0.800998"
     d="m 255.46752,510.91018 -4.30273,-0.96232 2.6348,-4.68763 c 5.08104,-9.03975 7.56101,-18.6937 8.17695,-31.83099 l 0.42764,-9.12089 -3.42824,-3.39471 c -1.88552,-1.86707 -7.43433,-6.77389 -12.33068,-10.90404 -4.89635,-4.13015 -12.37665,-10.9865 -16.62289,-15.23635 l -7.72044,-7.72698 -0.60811,3.72199 c -0.33447,2.0471 -1.25324,6.73959 -2.04173,10.42776 -1.66021,7.76561 -1.90631,25.46241 -0.40886,29.40099 1.6358,4.30248 2.38994,17.0282 1.19484,20.16241 -0.58815,1.54245 -2.03906,6.0631 -3.22424,10.04588 -2.05101,6.89239 -2.33331,7.28948 -5.85686,8.23827 -4.99426,1.34481 -11.05279,1.06424 -14.49833,-0.67144 -1.56021,-0.78594 -4.41353,-1.2854 -6.34072,-1.10989 -3.27042,0.29784 -3.6045,0.0521 -5.01181,-3.68588 -1.86741,-4.96008 -1.79171,-8.15754 0.26752,-11.30032 0.87446,-1.33461 1.72395,-5.03727 1.88772,-8.22813 0.32227,-6.27886 2.02717,-12.62139 4.036,-15.0146 0.69335,-0.82603 1.47488,-3.07884 1.73673,-5.00624 0.26184,-1.9274 1.23798,-6.31015 2.16921,-9.73945 1.82792,-6.73149 1.88149,-5.9392 -3.03085,-44.82856 -1.43064,-11.32592 -1.37674,-23.08812 0.15831,-34.54305 0.53441,-3.98784 0.17983,-5.19598 -3.08555,-10.5131 -8.06413,-13.13112 -9.37643,-16.54029 -15.60919,-40.55054 -1.07213,-4.13014 -2.57343,-9.12059 -3.33623,-11.08989 -0.76279,-1.96929 -1.66067,-6.92547 -1.99532,-11.01372 -0.73082,-8.92842 -2.37669,-17.88775 -3.66469,-19.94879 -2.57591,-4.12199 -5.37286,-11.03633 -6.27777,-15.51935 -0.57799,-2.86344 -1.05561,-23.86286 -1.11585,-49.06114 -0.058,-24.2302 -0.44681,-45.40659 -0.86417,-47.05865 -0.41736,-1.65205 -2.17918,-5.36919 -3.91515,-8.26029 -2.98767,-4.97569 -3.37604,-5.25655 -7.26866,-5.25655 -2.26177,0 -6.33427,0.64388 -9.04999,1.43084 -2.7157,0.78697 -6.85219,1.93064 -9.19218,2.54151 -3.53461,0.92272 -4.61628,1.82423 -6.3923,5.32758 -1.17577,2.3193 -2.64045,4.54794 -3.25482,4.95252 -2.02512,1.33357 -6.07507,0.78502 -9.12705,-1.23623 -4.22337,-2.79703 -5.5596,-2.54942 -11.419075,2.11595 -5.038071,4.01137 -9.772603,5.82154 -15.353478,5.87014 -3.211903,0.028 -25.762555,-14.72136 -32.801688,-21.45406 -3.798837,-3.63346 -13.086528,-10.54622 -15.752299,-11.72431 -0.42256,-0.18675 -2.413236,-2.49633 -4.423726,-5.1324 -2.01049,-2.63607 -5.448771,-6.09194 -7.640625,-7.67971 -3.236141,-2.34425 -4.217898,-3.85691 -5.223293,-8.04787 -0.946818,-3.94677 -2.447096,-6.42673 -6.3768459,-10.54089 -9.42859131,-9.87104 -11.0075521,-12.73174 -8.4428564,-15.296442 0.9344979,-0.934501 0.9344979,-1.468494 0,-2.402995 -1.80067662,-1.800676 -1.45202612,-3.590282 0.8412592,-4.318142 1.52885,-0.485244 3.7422028,0.724744 8.7979851,4.809627 6.842701,5.528652 14.954427,10.292262 15.905928,9.340772 0.286095,-0.2861 -0.518519,-3.02621 -1.788032,-6.089136 -2.663042,-6.425071 -1.975053,-10.824154 1.777145,-11.363306 2.421263,-0.347905 3.678285,1.441212 4.79112,6.819187 0.398827,1.927402 2.04623,6.547565 3.660896,10.267035 1.795825,4.13679 3.168603,9.38526 3.535428,13.51685 0.329818,3.71479 1.037727,7.31018 1.573131,7.98974 1.690023,2.14508 11.997374,7.38837 19.277887,9.80655 3.854804,1.28035 10.775938,3.69831 15.380296,5.37324 7.995805,2.90864 8.512625,2.97392 11.51435,1.45453 1.728538,-0.87493 3.973143,-2.32001 4.988016,-3.2113 1.014881,-0.89128 6.872181,-5.06776 13.016217,-9.28108 7.47892,-5.1287 11.07377,-8.1933 10.87679,-9.27247 -0.16447,-0.90113 0.37384,-1.6119 1.2208,-1.6119 0.83324,0 3.05773,-2.41168 4.94328,-5.35928 1.88556,-2.9476 5.81164,-7.34058 8.72461,-9.76217 2.91298,-2.42158 7.35403,-6.515635 9.86901,-9.097885 3.91089,-4.015501 5.81191,-5.066098 13.13497,-7.259047 4.70926,-1.410222 10.20204,-2.564044 12.2062,-2.564044 2.00415,0 3.88641,-0.392369 4.18279,-0.871926 0.29639,-0.479558 1.78731,-1.149929 3.31315,-1.489713 1.52586,-0.339783 3.59483,-1.259594 4.59775,-2.044019 1.75317,-1.371237 1.72459,-1.739254 -0.7409,-9.543917 -1.4104,-4.464726 -3.22549,-9.126667 -4.03351,-10.359865 -1.12168,-1.711897 -1.63291,-7.57303 -2.16164,-24.782429 l -0.69252,-22.540249 3.67575,-2.982294 c 2.02166,-1.6402605 5.38908,-4.4277772 7.48317,-6.1944799 2.09408,-1.7667028 4.95103,-3.6469881 6.34878,-4.17841157 3.03925,-1.15552136 9.89006,-0.48989954 15.10103,1.46721027 2.07622,0.7797751 5.15888,1.417773 6.85038,1.417773 3.02933,0 5.66914,1.5888331 12.47656,7.5093582 4.30327,3.742625 5.97443,11.293897 4.98563,22.528076 -0.36352,4.130147 -0.76997,9.864946 -0.9032,12.743994 -0.16807,3.631432 -0.95625,6.200363 -2.57351,8.387837 -2.53737,3.431976 -5.0557,11.607371 -5.07458,16.473906 -0.0168,4.329015 1.87814,6.400442 6.4995,7.104832 2.20095,0.335468 6.63535,2.186117 9.85424,4.112549 5.44207,3.256947 6.28175,3.463677 11.97265,2.94765 3.36607,-0.305229 6.9322,-0.120342 7.92474,0.410848 2.87818,1.540352 10.6948,9.868595 20.32976,21.660406 1.46237,1.78973 3.33772,3.25406 4.16746,3.25406 0.82975,0 2.73206,0.87117 4.22737,1.93592 2.76881,1.97157 8.10348,3.7567 8.10348,2.71166 0,-0.31666 -2.02753,-2.85863 -4.50562,-5.64883 -4.74554,-5.34323 -5.83547,-9.01123 -2.67764,-9.01123 1.00537,0 2.88615,1.12641 4.17952,2.50312 1.29336,1.37672 2.94886,2.50312 3.67889,2.50312 2.00347,0 1.59305,-2.45291 -0.76788,-4.58954 -4.77421,-4.320588 -4.4425,-8.426681 0.68073,-8.426681 1.32055,0 2.81355,-0.874954 3.41699,-2.002496 2.19873,-4.10836 6.31529,-1.098969 12.16696,8.894597 2.36156,4.03311 3.10832,3.45408 5.2529,-4.07298 1.91976,-6.737981 5.62546,-10.425264 8.78043,-8.736776 1.07598,0.575846 1.79256,1.354408 1.59238,1.73014 -5.00614,9.396655 -5.67951,21.675866 -1.78469,32.543946 l 2.44756,6.82963 -1.79683,6.1866 c -0.98824,3.40264 -2.13121,9.11526 -2.53989,12.69472 -1.47874,12.95122 -13.51598,32.03993 -20.20422,32.03993 -4.87936,0 -9.36206,-2.7603 -15.17071,-9.34163 -5.19214,-5.88279 -19.23696,-16.56893 -20.33433,-15.47156 -0.244,0.24401 0.27246,2.54533 1.14771,5.11405 1.37743,4.04251 1.42976,5.98346 0.38924,14.43758 -0.66116,5.37194 -1.53245,12.47055 -1.93618,15.77466 -0.40374,3.30412 -1.34353,8.12533 -2.08843,10.7138 -1.25823,4.37229 -1.19219,5.05252 0.93051,9.58459 1.82733,3.90142 2.14708,5.79706 1.59682,9.46652 -0.63161,4.21181 -0.43346,4.85465 2.41514,7.83543 1.70674,1.78596 3.10319,4.09115 3.10319,5.12266 0,1.0315 1.20836,3.70143 2.68526,5.93316 l 2.68524,4.05769 -1.82808,5.37812 c -1.55983,4.58896 -1.6402,5.83173 -0.54764,8.46939 1.74294,4.20783 0.56713,16.92341 -2.22406,24.05157 -1.18599,3.02877 -4.49292,9.11136 -7.34874,13.51685 -2.85581,4.40549 -7.08765,11.38919 -9.40407,15.51934 -2.64244,4.71144 -5.60806,8.48586 -7.95944,10.13022 -2.06127,1.44149 -5.02557,4.8207 -6.58734,7.50936 -1.56177,2.68867 -3.32915,5.20969 -3.92751,5.60226 -0.59836,0.39258 -1.18122,4.0295 -1.29524,8.08203 -0.11402,4.05255 -0.67722,8.60422 -1.25156,10.11483 -1.30359,3.4287 -1.34232,8.71057 -0.088,12.00955 0.52591,1.38323 1.50917,6.46787 2.18505,11.29919 1.42065,10.15534 3.29888,13.49312 12.86474,22.86174 7.25196,7.10244 9.55623,10.56869 11.59934,17.44858 0.83389,2.80803 2.84865,7.07988 4.47726,9.493 1.6286,2.41313 2.96109,4.88408 2.96109,5.49098 0,0.60691 1.57697,2.84899 3.50437,4.98239 1.9274,2.13339 3.50437,4.40681 3.50437,5.05201 0,1.89614 9.15449,11.13081 12.99157,13.10538 7.31425,3.76388 12.77325,12.39986 11.5007,18.19373 -0.42959,1.95593 -1.12115,2.79082 -2.02456,2.44415 -1.26818,-0.48665 -3.42224,4.59142 -3.43842,8.1059 -0.003,0.66691 -0.8262,2.0186 -1.82917,3.00374 -2.32302,2.28174 -4.88489,9.37248 -5.71165,15.80866 -1.01427,7.89596 -1.3921,8.54582 -6.15578,10.58777 -4.94373,2.11913 -15.50369,2.4617 -23.15227,0.75105 z"
     id="path3430"
     inkscape:connector-curvature="0" />
</svg>
