<?xml version="1.0" encoding="UTF-8" standalone="no"?>
<!-- Created with Inkscape (http://www.inkscape.org/) -->

<svg
   id="svg3406"
   version="1.1"
   inkscape:version="1.2.2 (b0a8486541, 2022-12-01)"
   width="342.10999"
   height="512.00073"
   viewBox="0 0 342.10999 512.00073"
   sodipodi:docname="silhouette-football-20.svg"
   xmlns:inkscape="http://www.inkscape.org/namespaces/inkscape"
   xmlns:sodipodi="http://sodipodi.sourceforge.net/DTD/sodipodi-0.dtd"
   xmlns="http://www.w3.org/2000/svg"
   xmlns:svg="http://www.w3.org/2000/svg"
   xmlns:rdf="http://www.w3.org/1999/02/22-rdf-syntax-ns#"
   xmlns:cc="http://creativecommons.org/ns#"
   xmlns:dc="http://purl.org/dc/elements/1.1/">
  <title
     id="title3340">Silhouette Football 20</title>
  <metadata
     id="metadata3412">
    <rdf:RDF>
      <cc:Work
         rdf:about="">
        <dc:format>image/svg+xml</dc:format>
        <dc:type
           rdf:resource="http://purl.org/dc/dcmitype/StillImage" />
        <dc:title>Silhouette Football 20</dc:title>
        <cc:license
           rdf:resource="http://creativecommons.org/publicdomain/zero/1.0/" />
        <dc:date>2017-03-19</dc:date>
        <dc:creator>
          <cc:Agent>
            <dc:title>JLouis</dc:title>
          </cc:Agent>
        </dc:creator>
        <dc:rights>
          <cc:Agent>
            <dc:title>Domaine pubic</dc:title>
          </cc:Agent>
        </dc:rights>
        <dc:publisher>
          <cc:Agent>
            <dc:title>inkscape</dc:title>
          </cc:Agent>
        </dc:publisher>
        <dc:subject>
          <rdf:Bag>
            <rdf:li>silhouette</rdf:li>
            <rdf:li>soccer</rdf:li>
            <rdf:li>player</rdf:li>
            <rdf:li>sport</rdf:li>
            <rdf:li>football</rdf:li>
            <rdf:li>joueurs</rdf:li>
          </rdf:Bag>
        </dc:subject>
        <dc:description>Soccer player in silhouette - Joueur de football en silhouette</dc:description>
      </cc:Work>
      <cc:License
         rdf:about="http://creativecommons.org/publicdomain/zero/1.0/">
        <cc:permits
           rdf:resource="http://creativecommons.org/ns#Reproduction" />
        <cc:permits
           rdf:resource="http://creativecommons.org/ns#Distribution" />
        <cc:permits
           rdf:resource="http://creativecommons.org/ns#DerivativeWorks" />
      </cc:License>
    </rdf:RDF>
  </metadata>
  <defs
     id="defs3410" />
  <sodipodi:namedview
     pagecolor="#ffffff"
     bordercolor="#666666"
     borderopacity="1"
     objecttolerance="10"
     gridtolerance="10"
     guidetolerance="10"
     inkscape:pageopacity="0"
     inkscape:pageshadow="2"
     inkscape:window-width="1916"
     inkscape:window-height="1026"
     id="namedview3408"
     showgrid="false"
     fit-margin-top="0"
     fit-margin-left="0"
     fit-margin-right="0"
     fit-margin-bottom="0"
     inkscape:zoom="0.92433538"
     inkscape:cx="-13.52323"
     inkscape:cy="255.31858"
     inkscape:window-x="0"
     inkscape:window-y="0"
     inkscape:window-maximized="1"
     inkscape:current-layer="svg3406"
     inkscape:showpageshadow="2"
     inkscape:pagecheckerboard="0"
     inkscape:deskcolor="#d1d1d1" />
  <path
     style="fill:#ffffff;stroke-width:0.838716"
     d="m 296.0123,511.22862 c -6.6311,-0.36616 -12.55671,-0.99208 -13.16804,-1.39093 -0.72112,-0.47048 -0.96642,-5.20524 -0.69844,-13.48141 0.35039,-10.82118 0.0209,-14.44855 -2.17236,-23.91212 -1.42196,-6.13572 -3.15974,-14.93008 -3.86172,-19.54302 -1.4141,-9.29251 -3.29943,-14.61885 -6.30815,-17.82147 -4.57788,-4.87294 -6.44061,-11.68202 -7.41248,-27.09583 -1.0206,-16.18711 -2.45015,-22.28752 -8.02286,-34.23654 -3.13157,-6.71471 -5.50051,-9.67523 -16.22196,-20.27286 -14.01829,-13.85642 -14.38983,-13.99294 -21.69468,-7.97167 -2.05715,1.69568 -4.25548,3.08305 -4.88518,3.08305 -1.00237,0 -7.95488,-10.17208 -14.24988,-20.84875 l -2.09322,-3.55022 -4.05179,3.95647 c -3.67103,3.58466 -3.92158,4.16459 -2.66632,6.17121 0.76202,1.21811 1.9414,4.10186 2.62086,6.40832 0.67946,2.30647 2.25128,6.0807 3.49295,8.38717 1.96583,3.65167 2.2761,6.02251 2.40102,18.34691 0.0789,7.78434 -0.25889,16.984 -0.75062,20.44371 -0.49173,3.4597 -1.42528,10.30048 -2.07454,15.20173 -1.47304,11.11976 -2.93164,14.00146 -9.05137,17.88247 -8.56478,5.43163 -16.45272,3.89166 -23.55283,-4.59827 -6.07389,-7.26282 -8.86934,-11.6945 -15.98468,-25.34075 -3.30721,-6.34279 -6.6247,-12.02018 -7.37219,-12.61643 -2.09879,-1.67412 -5.43684,-8.09809 -6.28317,-12.09177 -0.41943,-1.97916 -1.618,-5.0138 -2.66351,-6.74365 -1.80348,-2.98394 -3.99309,-8.08192 -8.55555,-19.91951 -1.1112,-2.88309 -2.71222,-10.43153 -3.55781,-16.77432 -0.8456,-6.34279 -2.1822,-13.89124 -2.97021,-16.77433 -0.78802,-2.88308 -1.7047,-8.78996 -2.03708,-13.12639 -0.33236,-4.33643 -1.82647,-11.4131 -3.3202,-15.72593 -3.49565,-10.09296 -4.36941,-13.56923 -5.6601,-22.51904 -0.5821,-4.03632 -1.77807,-10.86518 -2.6577,-15.17523 -1.20508,-5.90461 -1.351487,-9.2645 -0.5939,-13.62914 0.553,-3.18597 1.48989,-11.23944 2.08197,-17.89659 0.59208,-6.65715 1.80774,-14.56624 2.70146,-17.57574 1.25128,-4.21349 1.37484,-6.37244 0.53731,-9.38818 -0.59821,-2.154 -1.09029,-6.56466 -1.0935,-9.80147 l -0.006,-5.88509 -6.159369,-2.76417 c -7.841719,-3.51915 -11.563086,-3.48294 -17.431407,0.16959 -6.047062,3.76378 -16.450117,18.70764 -20.135503,28.92439 -1.477381,4.09565 -4.863408,10.75134 -7.524504,14.79042 -5.887967,8.93693 -7.967442,13.23409 -9.388172,19.40034 -0.597847,2.59478 -1.623135,7.07667 -2.278419,9.95976 -0.655283,2.88308 -1.815591,6.65731 -2.578464,8.38716 -0.762871,1.72985 -1.932874,6.91941 -2.600008,11.53235 -0.667133,4.61293 -1.969508,11.09985 -2.894163,14.41535 -1.364697,4.89337 -1.452581,6.79125 -0.466828,10.0814 2.428431,8.10538 1.200138,9.31661 -4.803869,4.73713 l -3.595161,-2.74215 0.334099,4.57684 c 0.292283,4.00399 0.05317,4.6172 -1.910358,4.8991 -1.234453,0.17723 -2.878063,-0.44631 -3.652466,-1.38564 -3.871356,-4.69585 -6.331037,-6.70396 -11.2648548,-9.19672 -1.3849449,-0.69972 -3.0361673,-2.21376 -3.6693831,-3.36452 -0.6332158,-1.15076 -1.9837548,-3.3562 -3.0011978,-4.90097 -1.82384417,-2.76913 -1.78693281,-2.95081 2.620988,-12.90091 2.4589863,-5.55073 6.4759397,-12.54161 8.9265637,-15.5353 2.450624,-2.99368 4.455679,-6.40073 4.455679,-7.57121 0,-2.26331 5.339382,-17.08381 7.737022,-21.47562 0.786986,-1.44154 2.459761,-8.13258 3.717274,-14.86898 1.399345,-7.49617 3.484978,-14.72234 5.375801,-18.62572 1.699176,-3.50774 3.089412,-6.58452 3.089412,-6.83728 0,-2.38953 12.004204,-20.37479 17.164671,-25.71691 6.976459,-7.22204 15.335579,-17.15903 15.335579,-18.23032 0,-0.35244 0.744847,-1.46641 1.655215,-2.47549 4.591913,-5.08982 11.451968,-14.9447 13.318779,-19.13321 2.013413,-4.51746 12.396744,-16.906137 14.801159,-17.659748 3.049355,-0.955742 19.115175,-7.892839 20.135345,-8.694284 0.63806,-0.501264 3.23284,-1.336357 5.76617,-1.855762 4.69152,-0.961895 9.33055,-2.479138 15.24845,-4.98716 1.81699,-0.770049 3.93999,-1.410578 4.71778,-1.4234 0.77778,-0.01282 2.58304,-0.921471 4.01169,-2.019222 2.40834,-1.850528 2.5038,-2.255169 1.3105,-5.555198 -0.70788,-1.957607 -1.28705,-5.139864 -1.28705,-7.071682 0,-1.93182 -0.76688,-4.359775 -1.70415,-5.395457 -1.24532,-1.376056 -1.84431,-4.7252 -2.22477,-12.43904 -0.74702,-15.146261 0.56666,-17.806077 17.268,-34.9627975 3.12021,-3.2052777 12.71044,-8.24059366 14.08132,-7.39334303 0.45626,0.28197728 2.52884,0.73024941 4.60576,0.99616043 4.17303,0.5342811 12.83457,5.9810531 13.83562,8.7004839 0.35137,0.9545242 0.93022,1.9713882 1.28634,2.2596972 0.35612,0.288308 1.70941,2.356755 3.00732,4.596547 3.53338,6.097561 5.31769,15.588617 5.28806,28.128519 -0.0239,10.141856 -0.27392,11.597533 -2.57353,14.986189 -1.40085,2.064274 -2.54701,4.193426 -2.54701,4.73145 0,0.538024 4.01465,4.832446 8.92144,9.543161 7.97973,7.66086 10.33133,9.220356 22.27839,14.774173 15.78111,7.336149 19.60255,10.632094 29.51759,25.458493 3.85609,5.76617 8.49218,12.52103 10.30246,15.01079 3.45234,4.7482 8.09365,17.35316 9.32513,25.32533 1.12557,7.28665 8.04557,16.6272 14.82975,20.01704 6.32353,3.15969 10.26163,6.54174 12.39747,10.64698 1.24455,2.39209 1.9755,2.75638 4.51263,2.24894 2.41381,-0.48275 3.1628,-0.17929 3.69483,1.49701 0.36703,1.15638 1.82985,2.39428 3.25073,2.7509 1.42089,0.35661 2.58342,1.10754 2.58342,1.66873 0,0.56118 1.4023,2.26977 3.1162,3.79688 1.71391,1.52709 4.11398,4.71524 5.33348,7.08475 1.21951,2.36952 3.64449,5.80072 5.38883,7.62491 3.11811,3.26083 3.22489,5.59466 0.25598,5.59466 -0.82923,0 -3.36992,-1.6824 -5.64597,-3.73867 -3.65893,-3.30562 -4.90398,-3.78285 -10.74907,-4.12005 -3.63594,-0.20975 -7.31847,-0.51451 -8.1834,-0.67722 -0.86492,-0.16272 -4.73884,0.0931 -8.60871,0.56846 -6.57883,0.80813 -7.48127,0.656 -13.88537,-2.34085 -11.27549,-5.27644 -17.34493,-11.0496 -17.34493,-16.49822 0,-1.97692 -6.29733,-10.18828 -17.71158,-23.0949 -7.90234,-8.93556 -10.39903,-11.04466 -16.88546,-14.2642 -2.01817,-1.00172 -4.72926,-2.59936 -6.02465,-3.55033 -2.3295,-1.71012 -2.3906,-1.65353 -5.58611,5.17513 -1.97025,4.21034 -2.97627,7.70625 -2.57839,8.95987 0.81293,2.56133 -1.35282,7.86532 -5.61293,13.74621 -3.69842,5.10555 -4.24742,10.28688 -1.72868,16.31507 1.13361,2.7131 1.25031,4.29369 0.44718,6.05637 -0.87088,1.9114 -0.56071,3.3745 1.5615,7.36585 2.09479,3.93975 2.43956,5.52963 1.64961,7.60733 -1.56599,4.11886 -1.18899,6.87019 1.30519,9.52512 1.50002,1.59669 2.26886,3.68609 2.2036,5.98848 -0.0889,3.1348 0.49583,3.9224 5.15122,6.93899 3.0477,1.97485 5.83743,4.76961 6.64782,6.65983 0.76799,1.79135 3.90016,6.11063 6.96036,9.59839 3.06022,3.48778 9.57414,12.68454 14.47539,20.43726 5.76277,9.11547 11.4117,16.55579 15.98802,21.05813 4.41348,4.34214 7.07667,7.81644 7.07667,9.23198 0,2.73322 -2.64748,8.1153 -4.25569,8.65136 -0.83335,0.27779 -0.83973,1.10632 -0.023,2.97781 0.62244,1.42611 2.06382,7.5006 3.20308,13.49886 1.91581,10.08685 5.44167,19.13896 9.05583,23.24947 0.80039,0.91033 1.45527,2.35343 1.45527,3.2069 0,0.85347 0.69266,2.46755 1.53925,3.58684 0.84659,1.11928 1.55425,2.76774 1.57259,3.66323 0.0184,0.89548 1.37044,3.49026 3.00466,5.76617 3.0176,4.20244 6.4806,12.26325 8.53377,19.86394 1.75013,6.47888 4.22046,19.63137 4.22067,22.4716 9e-5,1.40364 0.97978,4.57566 2.17705,7.04891 1.91028,3.9461 2.04134,5.17433 1.07016,10.02866 -0.6087,3.04251 -0.99857,11.90083 -0.86638,19.68516 0.18166,10.6985 -0.12523,14.79312 -1.25724,16.77432 -2.52054,4.41135 -0.32863,22.0163 2.74114,22.0163 0.75426,0 3.32609,1.76916 5.71518,3.93148 2.3891,2.16231 8.83289,6.29037 14.31955,9.17346 10.31295,5.41917 13.12781,7.94906 11.1003,9.97656 -1.38722,1.38723 -28.80138,2.0943 -45.48354,1.17314 z"
     id="path3430"
     inkscape:connector-curvature="0" />
</svg>
