<?xml version="1.0" encoding="UTF-8" standalone="no"?>
<!-- Created with Inkscape (http://www.inkscape.org/) -->

<svg
   id="svg3540"
   version="1.1"
   inkscape:version="1.2.2 (b0a8486541, 2022-12-01)"
   width="277.59836"
   height="611.45392"
   viewBox="0 0 277.59836 611.45392"
   sodipodi:docname="silhouette-football-12.svg"
   xmlns:inkscape="http://www.inkscape.org/namespaces/inkscape"
   xmlns:sodipodi="http://sodipodi.sourceforge.net/DTD/sodipodi-0.dtd"
   xmlns="http://www.w3.org/2000/svg"
   xmlns:svg="http://www.w3.org/2000/svg"
   xmlns:rdf="http://www.w3.org/1999/02/22-rdf-syntax-ns#"
   xmlns:cc="http://creativecommons.org/ns#"
   xmlns:dc="http://purl.org/dc/elements/1.1/">
  <title
     id="title3340">Silhouette Football 12</title>
  <metadata
     id="metadata3546">
    <rdf:RDF>
      <cc:Work
         rdf:about="">
        <dc:format>image/svg+xml</dc:format>
        <dc:type
           rdf:resource="http://purl.org/dc/dcmitype/StillImage" />
        <dc:title>Silhouette Football 12</dc:title>
        <cc:license
           rdf:resource="http://creativecommons.org/publicdomain/zero/1.0/" />
        <dc:date>2017-03-18</dc:date>
        <dc:creator>
          <cc:Agent>
            <dc:title>JLouis</dc:title>
          </cc:Agent>
        </dc:creator>
        <dc:rights>
          <cc:Agent>
            <dc:title>Domaine pubic</dc:title>
          </cc:Agent>
        </dc:rights>
        <dc:publisher>
          <cc:Agent>
            <dc:title>inkscape</dc:title>
          </cc:Agent>
        </dc:publisher>
        <dc:subject>
          <rdf:Bag>
            <rdf:li>silhouette</rdf:li>
            <rdf:li>soccer</rdf:li>
            <rdf:li>player</rdf:li>
            <rdf:li>sport</rdf:li>
            <rdf:li>football</rdf:li>
            <rdf:li>joueurs</rdf:li>
          </rdf:Bag>
        </dc:subject>
        <dc:description>Soccer player in silhouette - Joueur de football en silhouette</dc:description>
      </cc:Work>
      <cc:License
         rdf:about="http://creativecommons.org/publicdomain/zero/1.0/">
        <cc:permits
           rdf:resource="http://creativecommons.org/ns#Reproduction" />
        <cc:permits
           rdf:resource="http://creativecommons.org/ns#Distribution" />
        <cc:permits
           rdf:resource="http://creativecommons.org/ns#DerivativeWorks" />
      </cc:License>
    </rdf:RDF>
  </metadata>
  <defs
     id="defs3544" />
  <sodipodi:namedview
     pagecolor="#ffffff"
     bordercolor="#666666"
     borderopacity="1"
     objecttolerance="10"
     gridtolerance="10"
     guidetolerance="10"
     inkscape:pageopacity="0"
     inkscape:pageshadow="2"
     inkscape:window-width="1916"
     inkscape:window-height="1026"
     id="namedview3542"
     showgrid="false"
     fit-margin-top="0"
     fit-margin-left="0"
     fit-margin-right="0"
     fit-margin-bottom="0"
     inkscape:zoom="0.92244898"
     inkscape:cx="-107.86504"
     inkscape:cy="319.80088"
     inkscape:window-x="0"
     inkscape:window-y="0"
     inkscape:window-maximized="1"
     inkscape:current-layer="svg3540"
     inkscape:showpageshadow="2"
     inkscape:pagecheckerboard="0"
     inkscape:deskcolor="#d1d1d1" />
  <g
     id="g3550"
     transform="translate(-0.27846711,-0.93783655)">
    <path
       style="fill:#ffffff"
       d="M 89.274015,610.29547 C 74.458721,605.00456 62.73681,591.61325 60.460584,577.3785 c -0.689276,-4.3105 -1.039691,-4.85339 -1.802198,-2.79214 -1.159497,3.13441 -4.714296,3.79436 -18.729867,3.47718 C 28.917031,577.81434 23.75,576.85209 23.75,575.05062 c 0,-0.56699 3.042075,-5.87636 6.760166,-11.7986 8.0388,-12.80431 10.617228,-19.71044 11.616882,-31.11497 0.695708,-7.93697 0.533118,-8.70807 -2.504686,-11.87886 -4.511245,-4.70873 -18.539661,-34.48628 -19.193693,-40.74169 -1.560699,-14.92707 -3.259454,-25.00287 -4.862123,-28.8386 -0.98544,-2.35849 -1.435723,-5.21584 -1.000632,-6.34966 0.435091,-1.13384 0.06411,-5.91425 -0.824389,-10.62315 -1.225974,-6.49741 -1.286868,-10.19784 -0.252567,-15.348 1.064338,-5.29974 0.989008,-8.0287 -0.343879,-12.45755 -0.938726,-3.11915 -1.343558,-6.03439 -0.899627,-6.47833 1.397398,-1.3974 -2.6855255,-3.13215 -7.4187185,-3.15207 L 0.27846711,396.25 0.87816956,374.6875 C 1.5519104,350.46292 5.058071,325.82314 11.23915,301.875 c 5.300086,-20.5348 8.487864,-27.10303 15.580289,-32.10222 6.981561,-4.92106 10.099223,-12.87124 8.01193,-20.43081 -0.986124,-3.57143 -0.836633,-5.15431 0.709674,-7.51427 3.703376,-5.65206 2.801333,-9.4223 -8.692648,-36.33235 C 19.567811,188.44982 6.3230714,138.62091 6.2830213,128.125 6.2447874,118.10508 8.2219008,114.44421 18.63548,105.2529 24.032839,100.48905 32.735366,94.225144 37.97443,91.333116 43.213494,88.44109 47.486249,85.411161 47.469442,84.599943 47.349589,78.814891 44.457101,71.8201 40.731884,68.306768 35.602071,63.468733 32.554073,54.702044 34.768804,51.155694 35.583461,49.85122 36.25,45.510511 36.25,41.509675 36.25,33.957257 40.552009,18.75 42.688526,18.75 c 0.664959,0 0.882739,-0.527929 0.483955,-1.173175 -0.398785,-0.645245 0.006,-1.62962 0.899425,-2.1875 0.893468,-0.557879 2.68876,-3.428307 3.989539,-6.3787297 1.625341,-3.686593 2.934348,-5.1459458 4.185239,-4.6659338 1.001102,0.3841591 2.475015,0.1550116 3.275361,-0.5092167 C 56.322391,3.1712164 58.833394,2.3007455 61.10205,1.901065 63.370707,1.5013845 65.597707,1.0729055 66.05094,0.94888944 66.504173,0.82487337 70.097526,1.7589134 74.03617,3.0245339 88.774871,7.7605807 100,23.496511 100,39.421891 c 0,5.236097 0.43717,6.828109 1.875,6.828109 3.53671,0 1.38881,16.68601 -2.515388,19.540824 -1.749667,1.279388 -1.820318,2.17528 -0.5151,6.53171 1.255798,4.191492 2.384578,5.40001 6.646598,7.116119 7.68192,3.093146 27.4352,5.812636 31.36581,4.318221 4.61887,-1.756089 16.70782,-2.567913 17.56583,-1.179619 0.39864,0.64501 2.80097,1.192677 5.33852,1.217039 2.53755,0.02436 5.99164,0.807371 7.67575,1.74002 1.68412,0.932648 3.8,1.412532 4.70199,1.066407 0.90199,-0.346124 4.58658,0.53372 8.18798,1.955209 3.60141,1.421488 11.54688,3.741911 17.65662,5.156496 16.0493,3.715888 19.89705,5.7949 36.54938,19.748364 18.08637,15.15508 27.91268,25.5442 31.80213,33.62361 1.59938,3.32232 4.77185,8.6475 7.04993,11.8337 4.01109,5.61002 4.1483,6.20636 4.34209,18.86997 0.19995,13.06699 0.19696,13.08079 -3.95627,18.24892 -3.0443,3.78822 -5.35897,5.36882 -8.65112,5.90748 -2.47211,0.40449 -5.77697,1.36141 -7.34414,2.12645 -4.59789,2.24459 -6.59749,-1.0157 -7.96589,-12.98806 -0.65741,-5.75182 -0.89061,-12.03971 -0.51821,-13.9731 1.53876,-7.98884 -6.51315,-18.30747 -23.56029,-30.19285 -9.9214,-6.91726 -12.76227,-8.2607 -20.20062,-9.55279 -4.76058,-0.82695 -10.06185,-1.41962 -11.7806,-1.31707 -1.71875,0.10262 -6.7373,0.22312 -11.15234,0.26791 -6.10972,0.062 -9.2469,0.79617 -13.1326,3.07334 -8.60967,5.04561 -9.2296,7.14641 -8.84866,29.9867 0.18346,11 1.02251,23.09375 1.86456,26.875 0.84205,3.78125 5.17443,16.0681 9.62751,27.30411 l 8.09653,20.4291 -0.76794,10.8209 c -1.3345,18.80438 -1.88416,21.50688 -4.57686,22.50298 -2.14874,0.79486 -2.54521,2.42863 -3.09169,12.73985 -0.53342,10.06482 -1.29189,13.31878 -5.08785,21.82806 -6.53992,14.66032 -10.42756,26.73064 -10.45356,32.45611 -0.0314,6.91258 -3.29536,28.6771 -5.44291,36.29389 -0.9692,3.4375 -3.21092,9.4581 -4.9816,13.37912 -2.77575,6.14664 -3.11619,8.23472 -2.47028,15.15158 0.55818,5.9774 0.25885,8.93975 -1.17422,11.62087 -1.05787,1.97914 -2.84954,6.22599 -3.98152,9.43747 -1.13197,3.21147 -2.87228,6.51472 -3.86736,7.34056 -1.29701,1.07642 -1.80921,4.27185 -1.80921,11.28692 0,13.27858 -1.96968,21.68784 -7.06179,30.14945 -7.50264,12.46722 -15.5185,16.5653 -22.6421,11.57574 -6.643739,-4.65346 -8.065723,-22.47974 -3.457505,-43.34394 2.083565,-9.43358 2.075035,-9.73203 -0.376736,-13.17523 -1.379728,-1.93764 -3.771437,-7.15664 -5.314908,-11.59777 -2.972489,-8.55292 -3.283161,-13.91645 -2.20566,-38.07908 0.479114,-10.74399 0.188924,-14.7109 -1.32589,-18.125 l -1.939246,-4.37069 -0.650583,7.5 -0.650582,7.5 -4.564056,0.3806 c -3.679442,0.30682 -4.85314,1.0785 -6.055545,3.98136 -0.845698,2.0417 -2.976772,4.11855 -4.921826,4.7966 -3.017831,1.05203 -4.263672,3.42389 -10.360214,19.72407 -6.471033,17.30143 -6.804347,18.71982 -5.034,21.42171 1.042732,1.59141 2.083054,4.98647 2.311825,7.54457 0.228771,2.5581 2.110113,9.43234 4.18076,15.27609 3.878736,10.94651 4.613717,19.24444 2.767941,31.25 -0.972609,6.32619 1.352605,29.88681 3.515855,35.625 1.272566,3.37558 6.288716,14.4542 6.957964,15.36729 0.148061,0.202 3.554258,-1.61162 7.56933,-4.03026 13.539004,-8.15579 27.016886,-8.77181 40.707986,-1.86056 9.61584,4.85407 15.96504,10.70549 20.50138,18.89409 3.49112,6.30186 3.6726,7.37061 3.6726,21.62944 0,13.83315 -0.25898,15.49063 -3.32911,21.30705 -4.44783,8.42647 -12.23335,15.99191 -20.74026,20.15396 -9.20694,4.50453 -25.141409,5.40222 -34.781615,1.95946 z"
       id="path3564"
       inkscape:connector-curvature="0" />
  </g>
</svg>
