<?xml version="1.0" encoding="UTF-8" standalone="no"?>
<!-- Created with Inkscape (http://www.inkscape.org/) -->

<svg
   id="svg3438"
   version="1.1"
   inkscape:version="1.2.2 (b0a8486541, 2022-12-01)"
   width="408.76306"
   height="616.20251"
   viewBox="0 0 408.76306 616.20251"
   sodipodi:docname="silhouette-football-08.svg"
   xmlns:inkscape="http://www.inkscape.org/namespaces/inkscape"
   xmlns:sodipodi="http://sodipodi.sourceforge.net/DTD/sodipodi-0.dtd"
   xmlns="http://www.w3.org/2000/svg"
   xmlns:svg="http://www.w3.org/2000/svg"
   xmlns:rdf="http://www.w3.org/1999/02/22-rdf-syntax-ns#"
   xmlns:cc="http://creativecommons.org/ns#"
   xmlns:dc="http://purl.org/dc/elements/1.1/">
  <title
     id="title3340">Silhouette Football 08</title>
  <metadata
     id="metadata3444">
    <rdf:RDF>
      <cc:Work
         rdf:about="">
        <dc:format>image/svg+xml</dc:format>
        <dc:type
           rdf:resource="http://purl.org/dc/dcmitype/StillImage" />
        <dc:title>Silhouette Football 08</dc:title>
        <cc:license
           rdf:resource="http://creativecommons.org/publicdomain/zero/1.0/" />
        <dc:date>2017-03-18</dc:date>
        <dc:creator>
          <cc:Agent>
            <dc:title>JLouis</dc:title>
          </cc:Agent>
        </dc:creator>
        <dc:rights>
          <cc:Agent>
            <dc:title>Domaine pubic</dc:title>
          </cc:Agent>
        </dc:rights>
        <dc:publisher>
          <cc:Agent>
            <dc:title>inkscape</dc:title>
          </cc:Agent>
        </dc:publisher>
        <dc:subject>
          <rdf:Bag>
            <rdf:li>silhouette</rdf:li>
            <rdf:li>soccer</rdf:li>
            <rdf:li>player</rdf:li>
            <rdf:li>sport</rdf:li>
            <rdf:li>football</rdf:li>
            <rdf:li>joueurs</rdf:li>
          </rdf:Bag>
        </dc:subject>
        <dc:description>Soccer player in silhouette - Joueur de football en silhouette</dc:description>
      </cc:Work>
      <cc:License
         rdf:about="http://creativecommons.org/publicdomain/zero/1.0/">
        <cc:permits
           rdf:resource="http://creativecommons.org/ns#Reproduction" />
        <cc:permits
           rdf:resource="http://creativecommons.org/ns#Distribution" />
        <cc:permits
           rdf:resource="http://creativecommons.org/ns#DerivativeWorks" />
      </cc:License>
    </rdf:RDF>
  </metadata>
  <defs
     id="defs3442" />
  <sodipodi:namedview
     pagecolor="#ffffff"
     bordercolor="#666666"
     borderopacity="1"
     objecttolerance="10"
     gridtolerance="10"
     guidetolerance="10"
     inkscape:pageopacity="0"
     inkscape:pageshadow="2"
     inkscape:window-width="1916"
     inkscape:window-height="1026"
     id="namedview3440"
     showgrid="false"
     fit-margin-top="0"
     fit-margin-left="0"
     fit-margin-right="0"
     fit-margin-bottom="0"
     inkscape:zoom="0.8828125"
     inkscape:cx="-0.56637168"
     inkscape:cy="310.37168"
     inkscape:window-x="0"
     inkscape:window-y="0"
     inkscape:window-maximized="1"
     inkscape:current-layer="svg3438"
     inkscape:showpageshadow="2"
     inkscape:pagecheckerboard="0"
     inkscape:deskcolor="#d1d1d1" />
  <path
     style="fill:#ffffff"
     d="m 2.1369113,613.54492 c -2.1543958,-2.15439 -2.4914199,-3.55274 -1.8392458,-7.63121 1.3750388,-8.59903 3.6354331,-11.28965 14.6633455,-17.45431 5.74125,-3.2094 12.662169,-8.12835 15.379821,-10.931 2.717651,-2.80265 5.906149,-5.09574 7.08555,-5.09574 1.179401,0 3.364196,-1.97373 4.8551,-4.38606 1.490904,-2.41233 5.070754,-5.76913 7.955222,-7.45954 3.997315,-2.34258 6.539774,-5.38684 10.691297,-12.80144 2.995745,-5.35037 8.758261,-14.62697 12.805591,-20.61465 4.04733,-5.98767 9.63192,-15.83142 12.410201,-21.875 9.015598,-19.61156 21.339927,-33.51522 34.880857,-39.35073 10.84891,-4.67539 10.97252,-4.79544 14.36654,-13.95197 4.96266,-13.38853 7.1245,-25.24461 6.19785,-33.9905 -0.73409,-6.9285 -0.22065,-9.30131 6.19257,-28.6182 3.84618,-11.58482 6.99304,-21.57167 6.99304,-22.193 0,-0.62132 1.125,-3.45816 2.5,-6.30408 1.375,-2.84592 2.5,-6.71607 2.5,-8.60033 0,-1.88426 0.84375,-4.26968 1.875,-5.30093 1.11264,-1.11263 1.875,-4.1684 1.875,-7.51551 0,-3.10229 0.5625,-5.98816 1.25,-6.41306 0.6875,-0.4249 1.25,-3.58882 1.25,-7.03095 0,-3.44212 0.65629,-7.48467 1.45841,-8.98346 1.90556,-3.56059 2.09148,-21.19365 0.24753,-23.47778 -0.78049,-0.9668 -1.72886,-5.41406 -2.10751,-9.88281 -0.37866,-4.46875 -1.42758,-11.67854 -2.33094,-16.02174 l -1.64249,-7.89675 -5,4.28885 c -7.39861,6.34629 -16.98673,12.12964 -20.10954,12.12964 -3.39782,0 -14.11816,-9.5175 -17.09838,-15.17994 -4.35099,-8.26689 -12.71021,-37.03497 -20.469413,-70.44506 -4.477466,-19.27934 -2.965469,-40.57269 3.528583,-49.69274 1.81575,-2.54999 6.91548,-5.80306 15.60288,-9.95293 9.83351,-4.69737 13.94874,-7.43797 17.28818,-11.51332 2.41048,-2.94167 4.38615,-6.13431 4.39039,-7.09475 0.004,-0.96044 0.80969,-3.28361 1.78989,-5.16259 1.17955,-2.26112 1.34516,-3.68643 0.48976,-4.2151 -0.71084,-0.43932 -2.11251,-2.55822 -3.11484,-4.708668 -2.76693,-5.936338 -5.06957,-9.788848 -6.36025,-10.641263 -0.64011,-0.422751 -3.8173,-6.093987 -7.06041,-12.602748 -3.24311,-6.50876 -6.34895,-12.41501 -6.90185,-13.125 -1.20706,-1.54999 -2.60602,-7.109668 -3.36359,-13.36737 -0.76526,-6.321155 2.76273,-22.474249 6.40454,-29.323547 3.43285,-6.456301 11.93401,-15.4749719 14.58699,-15.4749719 0.97463,0 2.35999,-0.5879276 3.07856,-1.306506 1.76369,-1.7636863 17.4793,-2.9844136 24.62534,-1.9127999 7.21996,1.0827007 15.12536,8.4658329 16.20798,15.1371958 0.38744,2.387561 2.25808,6.502406 4.15697,9.1441 l 3.45251,4.80308 4.61549,-7.14106 c 5.3196,-8.23044 10.1105,-12.21726 20.56295,-17.1117429 6.36046,-2.9783599 8.9978,-3.4803592 18.07226,-3.4399317 8.89805,0.039641 11.86527,0.6128481 18.25572,3.5266257 9.65425,4.40194 19.26444,14.0397039 23.85755,23.9260389 3.01569,6.491002 3.47863,9.013495 3.44109,18.75 -0.0362,9.39724 -0.5713,12.382243 -3.24896,18.125 -4.72791,10.13994 -12.31958,17.984879 -22.03154,22.766565 -7.66259,3.772683 -9.31721,4.108435 -20.2467,4.108435 -10.209,0 -12.88829,-0.462531 -18.8342,-3.251391 -3.81262,-1.788265 -8.98106,-5.050461 -11.48544,-7.249324 -4.37957,-3.845326 -4.60405,-3.903281 -5.88046,-1.518286 -1.89491,3.540696 -1.63885,9.579128 0.48083,11.3383 0.99433,0.825226 1.97871,3.829481 2.1875,6.676121 l 0.37961,5.175708 9.375,2.13439 c 5.15625,1.17392 15.28125,2.77391 22.5,3.55554 11.46177,1.24105 17.32526,2.13561 29.76139,4.54049 5.40792,1.04578 13.87643,10.67721 24.97188,28.40111 26.37635,42.13366 25.83877,41.16758 26.54139,47.69734 l 0.67251,6.25 2.61559,-4.12875 c 1.43858,-2.27083 2.9587,-6.632 3.37805,-9.6915 0.41935,-3.05951 1.83209,-7.67032 3.13941,-10.24625 1.30732,-2.57593 2.37457,-6.08975 2.37165,-7.8085 -0.007,-4.25559 4.80969,-19.5142 7.65873,-24.26071 1.27572,-2.12537 3.34072,-7.23929 4.5889,-11.36429 3.03167,-10.01917 5.25871,-11.64011 8.72476,-6.35025 1.8464,2.81796 1.7656,3.64669 -1.182,12.12251 -1.74015,5.00378 -2.88995,9.37171 -2.55514,9.70654 0.63972,0.6397 9.72344,-7.49788 13.01522,-11.65956 1.05746,-1.33693 4.07492,-5.55568 6.70547,-9.375 5.66658,-8.22737 7.90169,-9.79546 10.40048,-7.29667 1.37651,1.37651 1.49551,2.58073 0.51093,5.17037 -1.20162,3.1605 -1.12003,3.28842 1.27853,2.00475 1.90029,-1.017 3.03301,-0.98032 4.38537,0.14205 2.28834,1.89915 1.23772,5.71347 -2.74855,9.97866 -3.90553,4.1788 -3.86716,6.19654 0.0479,2.51854 6.03394,-5.6686 7.96477,1.22436 2.28004,8.13958 -8.34163,10.1472 -9.34758,11.77348 -7.28258,11.77348 4.74461,0 1.1923,5.24326 -9.73905,14.375 -3.68914,3.0818 -4.49365,4.59499 -4.51495,8.49209 -0.032,5.84628 -7.59916,26.47963 -13.2991,36.26238 -2.32475,3.98995 -4.22682,7.68804 -4.22682,8.21797 0,0.52992 -3.30902,5.98416 -7.35337,12.12052 -6.55425,9.94456 -9.4721,12.87436 -19.87431,19.95564 -0.19397,0.13205 0.33481,2.81054 1.17508,5.95219 1.16491,4.35546 1.18487,6.46462 0.0841,8.88061 -1.1426,2.50775 -1.09269,3.37185 0.23939,4.14356 0.92567,0.53626 3.53687,3.78754 5.80267,7.22504 2.26579,3.4375 6.55117,8.89777 9.52304,12.13395 4.22623,4.60206 5.40343,6.8393 5.40343,10.26909 0,2.72501 1.41967,6.62373 3.75,10.29827 2.0625,3.25223 3.75,6.6676 3.75,7.58971 0,0.92212 3.23437,4.90228 7.1875,8.84481 5.2123,5.19832 7.95732,9.22748 9.98877,14.66156 1.5407,4.12132 5.31698,11.40387 8.39173,16.18342 9.18445,14.2768 25.69793,51.90703 27.06241,61.66869 1.94035,13.88156 4.50446,22.06012 10.451,33.33489 3.11772,5.91127 5.66859,12.42922 5.66859,14.48433 0,8.39739 -7.81925,19.78648 -27.00652,39.33619 -7.29888,7.43676 -12.08916,11.11331 -18.39693,14.11966 -5.88729,2.80595 -9.17773,5.24483 -10.625,7.87527 -1.1531,2.09577 -3.91922,6.14817 -6.14692,9.00533 -2.22771,2.85715 -4.05583,5.65787 -4.0625,6.22379 -0.006,0.56593 2.23787,3.04883 4.98787,5.51755 3.08393,2.76851 5,5.5907 5,7.36456 0,1.67599 1.13723,3.48459 2.72558,4.33467 4.91168,2.62865 14.7636,12.85195 20.04978,20.80557 2.85171,4.29073 6.20506,8.12509 7.45189,8.52082 3.33536,1.05859 4.28101,6.39315 1.64888,9.30161 -5.88633,6.50433 -21.70897,7.7173 -36.87613,2.82692 -9.00852,-2.90462 -9.65107,-3.39132 -10.68357,-8.09228 -1.45381,-6.61918 -7.08205,-14.30831 -14.93922,-20.40954 -6.077,-4.71888 -8.08954,-5.64388 -11.00915,-5.05995 -4.81396,0.96278 -8.11829,-1.0361 -8.59749,-5.20091 -0.33484,-2.91006 -0.91361,-3.38427 -3.76914,-3.08819 -5.2022,0.53939 -6.27437,-2.75546 -4.53577,-13.9386 1.368,-8.79933 1.85085,-9.78661 7.68451,-15.71274 3.42363,-3.4779 7.18106,-6.32345 8.34985,-6.32345 2.00514,0 10.27058,-8.734 17.97034,-18.98909 1.9054,-2.53773 4.49251,-8.00981 5.74914,-12.16016 2.24586,-7.41759 10.23585,-23.05757 12.49162,-24.45172 0.63263,-0.39099 -1.20024,-4.39774 -4.07304,-8.90389 -4.92315,-7.72224 -5.43988,-8.148 -8.99318,-7.40975 -2.07344,0.43079 -5.73865,1.10446 -8.1449,1.49706 -2.40625,0.3926 -4.97748,1.195 -5.71384,1.78311 -0.73635,0.58812 -6.0801,1.60774 -11.875,2.26583 -8.20873,0.93221 -11.08841,0.83431 -13.03616,-0.44315 -4.18943,-2.74771 -10.34598,-14.50828 -13.12039,-25.06324 -3.07044,-11.68112 -4.56045,-13.98295 -18.86228,-29.13924 l -10.73266,-11.37387 -2.10207,4.00655 c -1.15614,2.20361 -4.00143,7.01056 -6.32287,10.68211 -2.32143,3.67155 -5.97301,11.2653 -8.11461,16.875 -6.5586,17.17964 -5.93876,16.51315 -14.91711,16.03985 -6.56088,-0.34585 -8.10524,-0.0163 -9.92403,2.1183 -2.86566,3.36305 -20.28032,15.1663 -22.37659,15.1663 -0.90884,0 -1.65243,0.60426 -1.65243,1.3428 0,0.73854 -2.9765,4.53541 -6.61445,8.4375 -3.63795,3.90209 -8.94759,10.25975 -11.79919,14.12814 -4.71701,6.39896 -12.89809,12.85242 -23.80412,18.77736 -2.08633,1.13345 -5.74397,5.11014 -8.12808,8.83711 -7.01241,10.96216 -12.05693,15.8944 -20.79905,20.33606 -14.5531,7.39409 -32.232021,28.1818 -37.099569,43.62344 -1.245934,3.95256 -3.624549,8.54569 -5.28581,10.20695 -1.661261,1.66125 -4.425535,5.70139 -6.14283,8.97805 -6.460576,12.32705 -10.183405,14.5877 -29.500353,17.91378 -19.305383,3.32407 -31.2465888,3.24877 -34.7142867,-0.21893 z"
     id="path3462"
     inkscape:connector-curvature="0" />
</svg>
