<?xml version="1.0" encoding="UTF-8" standalone="no"?>
<!-- Created with Inkscape (http://www.inkscape.org/) -->

<svg
   id="svg3406"
   version="1.1"
   inkscape:version="1.2.2 (b0a8486541, 2022-12-01)"
   width="540.12"
   height="511.99976"
   viewBox="0 0 540.12 511.99976"
   sodipodi:docname="silhouette-football-32.svg"
   xmlns:inkscape="http://www.inkscape.org/namespaces/inkscape"
   xmlns:sodipodi="http://sodipodi.sourceforge.net/DTD/sodipodi-0.dtd"
   xmlns="http://www.w3.org/2000/svg"
   xmlns:svg="http://www.w3.org/2000/svg"
   xmlns:rdf="http://www.w3.org/1999/02/22-rdf-syntax-ns#"
   xmlns:cc="http://creativecommons.org/ns#"
   xmlns:dc="http://purl.org/dc/elements/1.1/">
  <title
     id="title3340">Silhouette Football 32</title>
  <metadata
     id="metadata3412">
    <rdf:RDF>
      <cc:Work
         rdf:about="">
        <dc:format>image/svg+xml</dc:format>
        <dc:type
           rdf:resource="http://purl.org/dc/dcmitype/StillImage" />
        <dc:title>Silhouette Football 32</dc:title>
        <cc:license
           rdf:resource="http://creativecommons.org/publicdomain/zero/1.0/" />
        <dc:date>2017-03-21</dc:date>
        <dc:creator>
          <cc:Agent>
            <dc:title>JLouis</dc:title>
          </cc:Agent>
        </dc:creator>
        <dc:rights>
          <cc:Agent>
            <dc:title>Domaine pubic</dc:title>
          </cc:Agent>
        </dc:rights>
        <dc:publisher>
          <cc:Agent>
            <dc:title>inkscape</dc:title>
          </cc:Agent>
        </dc:publisher>
        <dc:subject>
          <rdf:Bag>
            <rdf:li>silhouette</rdf:li>
            <rdf:li>soccer</rdf:li>
            <rdf:li>player</rdf:li>
            <rdf:li>sport</rdf:li>
            <rdf:li>football</rdf:li>
            <rdf:li>joueurs</rdf:li>
          </rdf:Bag>
        </dc:subject>
        <dc:description>Soccer player in silhouette - Joueur de football en silhouette</dc:description>
      </cc:Work>
      <cc:License
         rdf:about="http://creativecommons.org/publicdomain/zero/1.0/">
        <cc:permits
           rdf:resource="http://creativecommons.org/ns#Reproduction" />
        <cc:permits
           rdf:resource="http://creativecommons.org/ns#Distribution" />
        <cc:permits
           rdf:resource="http://creativecommons.org/ns#DerivativeWorks" />
      </cc:License>
    </rdf:RDF>
  </metadata>
  <defs
     id="defs3410" />
  <sodipodi:namedview
     pagecolor="#ffffff"
     bordercolor="#666666"
     borderopacity="1"
     objecttolerance="10"
     gridtolerance="10"
     guidetolerance="10"
     inkscape:pageopacity="0"
     inkscape:pageshadow="2"
     inkscape:window-width="1916"
     inkscape:window-height="1026"
     id="namedview3408"
     showgrid="false"
     fit-margin-top="0"
     fit-margin-left="0"
     fit-margin-right="0"
     fit-margin-bottom="0"
     inkscape:zoom="0.91497976"
     inkscape:cx="66.121681"
     inkscape:cy="272.13717"
     inkscape:window-x="0"
     inkscape:window-y="0"
     inkscape:window-maximized="1"
     inkscape:current-layer="svg3406"
     inkscape:showpageshadow="2"
     inkscape:pagecheckerboard="0"
     inkscape:deskcolor="#d1d1d1" />
  <g
     id="g3416"
     transform="matrix(0.84382361,0,0,0.84382361,0,-9.0914788)">
    <path
       style="fill:#ffffff"
       d="m 268.5803,616.2298 c -1.12458,-0.65681 -3.93708,-3.0765 -6.25,-5.3771 -2.31291,-2.3006 -6.88554,-5.20073 -10.16139,-6.44472 -5.6512,-2.14604 -6.07851,-2.15102 -8.34791,-0.0972 -2.69343,2.43751 -7.571,1.63467 -7.571,-1.24618 0,-0.97181 -1.358,-2.10779 -3.01779,-2.52436 -4.59647,-1.15364 -8.64504,-11.52373 -7.9868,-20.45754 0.60274,-8.1805 6.07968,-20.96696 9.54676,-22.28788 4.48,-1.7068 27.62209,-32.31355 32.35763,-42.7948 8.72822,-19.31837 10.5915,-22.27515 19.37345,-30.74305 4.92365,-4.74757 12.20829,-12.00695 16.1881,-16.13195 l 7.23602,-7.5 0.0264,-8.50897 c 0.0145,-4.67994 -0.60296,-11.00806 -1.37208,-14.0625 -1.25876,-4.9987 -1.76647,-5.5535 -5.08225,-5.5535 -5.93402,0 -8.26842,-2.064 -13.03131,-11.52183 -3.94786,-7.83941 -10.47394,-25.6537 -12.03541,-32.85317 -0.38679,-1.78337 -0.81944,-1.15975 -1.50934,2.17556 -0.63165,3.05375 -0.2342,8.36911 1.14583,15.32373 2.96661,14.95021 2.36141,53.02588 -0.9389,59.07056 -2.46241,4.51003 -11.26369,13.0351 -18.24455,17.672 -2.4919,1.6552 -8.21145,6.44041 -12.7101,10.6338 -4.49867,4.1934 -10.96742,9.5985 -14.375,12.01134 -5.13709,3.63745 -6.26153,5.13244 -6.58126,8.75 -0.48581,5.49627 -5.04095,17.05774 -13.04638,33.11301 -3.42799,6.875 -8.36456,18.8621 -10.97016,26.63799 -5.06,15.10053 -8.72536,21.43979 -16.41151,28.38376 -6.15073,5.55681 -10.67342,5.71499 -16.52424,0.57789 -5.48156,-4.81289 -7.6806,-13.16336 -6.5813,-24.99143 1.25929,-13.5494 4.86335,-22.86703 22.23524,-57.48503 l 16.38957,-32.66052 -0.87048,-11.85856 c -0.77981,-10.6235 -0.59159,-12.43462 1.80709,-17.38966 3.33799,-6.89535 8.29178,-11.13631 16.34955,-13.99693 6.02223,-2.13797 6.23304,-2.37443 5.87725,-6.59251 -0.35333,-4.18917 -0.60792,-4.40155 -5.99401,-5 l -5.625,-0.625 0.625,-5 c 1.02561,-8.20486 0.44105,-33.95825 -1.13492,-50 -0.81049,-8.25 -1.54174,-32.4375 -1.62502,-53.75 -0.12841,-32.87089 0.16844,-39.88789 1.95662,-46.25 l 2.10798,-7.5 -9.58161,-9.04316 -9.58161,-9.04318 5.80694,-11.58182 c 10.93283,-21.80534 15.99067,-29.85089 21.32218,-33.91743 3.41609,-2.60558 4.28882,-4.28035 4.99173,-9.57916 1.09864,-8.28194 4.70941,-17.85654 9.67174,-25.64629 4.32786,-6.79379 17.31597,-32.39004 17.31597,-34.12536 0,-2.00854 -15.52863,-6.20614 -26.25,-7.09575 -7.31421,-0.6069 -13.15677,-1.96769 -18.75,-4.36707 -6.9162,-2.96691 -10.54259,-3.61351 -24.375,-4.3462 C 159.36104,119.30462 146.52146,115.63113 111.25,99.708019 101.28125,95.20768 91.71875,91.100119 90,90.580103 88.28125,90.060087 82.268713,87.46683 76.638805,84.81731 71.008898,82.16779 64.717391,80 62.657679,80 60.597968,80 57.329255,79.376086 55.393875,78.613525 53.458494,77.850964 42.625154,76.166704 31.319787,74.870726 20.01442,73.574747 9.7160037,72.181597 8.4344176,71.774838 5.0096176,70.687849 6.1128816,65.907148 10,64.990802 c 2.902355,-0.684197 3.095241,-1.190552 2.707316,-7.107088 -0.414721,-6.325213 -0.385901,-6.380895 4.0625,-7.849 C 19.233917,49.221487 21.25,48.106372 21.25,47.556681 21.25,47.00699 16.46875,42.216494 10.625,36.911134 4.78125,31.605774 0,26.755395 0,26.132512 0,23.370272 5.7301162,25.530113 15.893961,32.12339 21.933532,36.041254 30.53125,41.108131 35,43.383117 39.46875,45.658104 47.432942,50.208129 52.698206,53.494286 62.850085,59.830277 72.703974,63.354349 90,66.834624 c 11.91579,2.397672 42.00595,6.447196 60,8.074778 9.23967,0.835739 14.51032,2.143937 23.75,5.894853 l 11.875,4.820745 21.25,-0.0076 c 18.43915,-0.0066 22.32474,-0.365536 29.375,-2.713201 4.46875,-1.488049 10.89075,-3.08002 14.27111,-3.537717 3.38038,-0.457695 7.31788,-1.585371 8.75,-2.505946 4.32688,-2.781311 17.84233,-6.857889 22.87695,-6.90023 2.59981,-0.02186 5.81883,-0.865615 7.15335,-1.875 3.1543,-2.385797 19.00046,-2.424049 27.85317,-0.06724 3.59127,0.956086 9.3569,2.127193 12.8125,2.602461 5.17391,0.711595 6.28292,0.527805 6.28292,-1.041236 0,-1.047948 -1.26563,-2.085107 -2.8125,-2.304798 -2.4001,-0.340867 -2.86836,-1.270072 -3.19349,-6.336939 -0.28924,-4.507582 0.052,-5.9375 1.41671,-5.9375 2.17911,0 3.29015,-3.731507 3.34967,-11.25 0.1317,-16.640141 17.45246,-32.964051 34.98961,-32.975898 5.2426,-0.0035 8.67355,0.91858 14.44979,3.88361 4.16613,2.138538 8.28355,4.742246 9.1498,5.786015 2.85121,3.435506 6.48798,21.001051 6.15117,29.710121 -0.20465,5.292074 0.25271,8.969147 1.26774,10.192175 1.27065,1.531046 1.28556,3.623034 0.0746,10.471121 -1.75781,9.940639 -2.61572,11.396345 -7.02567,11.921123 -4.48211,0.533365 -4.91855,3.02828 -0.67875,3.880159 3.54034,0.71134 5.74795,2.136987 18.71469,12.085697 11.6006,8.900543 17.60508,14.869213 27.71115,27.545843 5.20683,6.53125 14.00135,16.9375 19.54335,23.125 5.542,6.1875 13.43803,15.18175 17.54675,19.98723 12.73653,14.89642 23.82722,25.34417 35.18218,33.14267 6.00228,4.1223 11.53978,7.4951 12.30558,7.4951 2.52203,0 18.59429,11.49448 26.04394,18.62595 4.02121,3.84948 13.2154,15.1553 20.4315,25.12405 23.90657,33.02591 22.48516,31.67518 38.37207,36.46414 6.57598,1.98227 9.98959,3.84556 13.13493,7.1696 3.16193,3.3416 5.87853,4.81752 10.6126,5.76582 8.09948,1.62244 9.39585,4.89819 2.38416,6.02447 l -4.74658,0.76242 -0.0635,10.34428 c -0.0715,11.63336 -2.23058,17.84427 -6.2033,17.84427 -1.97287,0 -2.56361,-0.97545 -2.87465,-4.74666 -0.35196,-4.26756 -0.66738,-4.65361 -3.125,-3.82471 -3.96793,1.33831 -7.65028,1.25895 -8.28811,-0.17863 -0.30504,-0.6875 1.7723,-2.9375 4.6163,-5 6.5222,-4.72997 7.54411,-7.46151 4.38194,-11.71271 -1.89523,-2.54791 -3.70118,-3.37089 -8.0293,-3.65898 -4.96628,-0.33057 -5.74735,-0.0134 -7.05955,2.86655 -1.23201,2.70395 -1.06333,4.04608 1.02239,8.13439 3.0713,6.02026 3.14582,8.60324 0.31032,10.75569 -3.35062,2.54349 -6.5625,2.14116 -6.5625,-0.82201 0,-4.19735 -3.20899,-8.99505 -9.70931,-14.5162 -4.73656,-4.02309 -6.76003,-6.94198 -8.92109,-12.86892 -1.53726,-4.21608 -4.4863,-9.59187 -6.55341,-11.94618 -2.06711,-2.3543 -12.57451,-10.17834 -23.34979,-17.38674 -10.77526,-7.2084 -23.33485,-16.6474 -27.91019,-20.97554 -17.74641,-16.78764 -22.85163,-20.6338 -32.93121,-24.80961 -5.5,-2.27858 -11.6875,-5.16268 -13.75,-6.40913 -2.56129,-1.54787 -6.23892,-2.26775 -11.60172,-2.27093 -6.38363,-0.004 -7.97854,-0.41369 -8.5299,-2.19218 -1.52885,-4.93144 -4.13225,-8.23315 -9.96801,-12.64172 -3.38271,-2.55544 -7.4603,-7.01819 -9.06133,-9.91723 -3.48747,-6.31489 -5.96195,-7.80962 -13.16791,-7.95426 -5.18994,-0.10413 -9.37208,1.18354 -26.42113,8.1353 l -7.5,3.05814 -7.56945,14.19113 c -4.1632,7.80513 -8.76722,16.44114 -10.23117,19.19114 -1.85147,3.47798 -3.27393,10.09859 -4.6729,21.74934 l -2.0112,16.74934 3.15387,3.29193 c 3.89125,4.06159 8.20585,16.21864 8.20585,23.12124 0,2.83001 -1.40625,10.68909 -3.125,17.4646 -4.10375,16.17746 -4.37435,39.5986 -0.65205,56.43688 4.34876,19.67216 2.75304,55.67405 -3.07214,69.31167 -1.61512,3.78125 -4.71152,13.53641 -6.88091,21.67814 -2.16937,8.14171 -5.81289,18.26671 -8.09667,22.5 -2.2838,4.23327 -4.53423,9.88186 -5.00097,12.55241 -0.58667,3.35689 -2.68193,6.82919 -6.78848,11.25 -3.26694,3.51695 -7.17398,8.18173 -8.6823,10.36616 -4.02012,5.82213 -20.34944,18.98027 -33.95148,27.358 -6.53125,4.02273 -13.93157,9.3067 -16.44517,11.74217 -3.94769,3.82498 -4.65848,5.40221 -5.21848,11.57973 -0.54422,6.00347 -0.20041,7.81163 2.14159,11.26275 1.53444,2.26113 3.73062,5.99689 4.88041,8.3017 3.76414,7.54539 12.66204,17.52305 18.00943,20.19489 6.2505,3.12308 11.63222,7.19666 11.63222,8.80478 0,1.5447 -43.76397,1.44011 -46.4197,-0.11088 z"
       id="path3430"
       inkscape:connector-curvature="0" />
  </g>
</svg>
